<svg width="100" height="91" viewBox="0 0 100 91" fill="none" xmlns="http://www.w3.org/2000/svg">
<path d="M98.5245 57.9567C98.144 57.9308 97.7599 57.9524 97.2823 57.9524C97.2823 56.8335 97.2904 55.8099 97.28 54.7865C97.2696 53.766 96.7975 53.2671 95.8547 53.2516C94.8722 53.2353 94.3652 53.7547 94.3542 54.8148C94.3438 55.8351 94.3518 56.8554 94.3518 57.8924H87.0334C87.0334 57.4964 87.0334 57.1526 87.0334 56.8086C87.0334 52.5442 86.9971 48.2791 87.0577 44.0154C87.0736 42.8906 86.6636 42.1574 85.6464 41.5199C83.2947 40.0461 80.9897 38.5091 78.7124 36.9423C77.8635 36.3583 77.0081 36.0846 75.9358 36.118C73.9628 36.1792 71.9858 36.1354 69.984 36.1354V26.5257H94.3516C94.3516 29.4327 94.3516 32.281 94.3516 35.1295C94.3516 39.5115 94.3555 43.8938 94.3479 48.2758C94.3469 48.9361 94.4721 49.5084 95.2406 49.7868C96.3651 50.1941 97.2787 49.5392 97.2795 48.2965C97.2847 40.7968 97.2667 33.2973 97.3024 25.7978C97.3069 24.8834 96.9796 24.2586 96.2229 23.6758C91.9633 20.394 87.7351 17.0792 83.4946 13.7772C82.4344 12.9517 81.8545 12.9564 80.7776 13.7944C77.4238 16.4045 74.0721 19.0165 70.7178 21.6259C70.5078 21.7892 70.2836 21.9377 69.9295 22.1909C69.9295 19.4893 69.9394 16.9413 69.9271 14.3935C69.9073 10.2393 67.0232 6.86743 62.5654 5.81605C62.0153 5.68639 61.8311 5.48025 61.8496 4.97715C61.8882 3.91964 61.8305 2.85908 61.871 1.80157C61.9002 1.03868 61.6706 0.425685 60.9441 0H59.7721C59.1273 0.43698 58.8807 1.00762 58.9162 1.74274C58.9671 2.79931 58.9 3.86034 58.941 4.91785C58.9614 5.44707 58.7797 5.67674 58.1892 5.81863C53.6846 6.90085 50.8402 10.2586 50.8191 14.4872C50.8047 17.3985 50.8175 20.3098 50.8139 23.2211C50.8136 23.4981 50.782 23.7751 50.758 24.1633C50.3379 23.8875 50.0247 23.6913 49.7223 23.4823C46.1551 21.0188 42.5855 18.5581 39.0269 16.0845C38.3335 15.6026 37.6407 15.427 36.8944 15.9351C35.4915 16.8904 34.099 17.8588 32.7092 18.8297C32.1497 19.2205 32.0104 19.7434 32.2596 20.3275C32.6393 21.2165 33.6627 21.4504 34.5904 20.8414C35.6864 20.1218 36.7529 19.3655 37.8518 18.612C41.1917 20.9221 44.4563 23.1799 47.8904 25.5552H27.8208C28.3583 25.1726 28.7336 24.9121 29.1007 24.6429C29.9658 24.0087 30.1278 23.3402 29.584 22.6766C29.005 21.97 28.2362 21.9219 27.2965 22.5634C25.8427 23.5557 24.4226 24.5895 22.9461 25.5529C22.1857 26.0491 21.864 26.6318 21.8718 27.4841C21.9065 31.248 21.8867 35.0123 21.8867 38.7764V39.2854C19.6827 37.4407 17.4591 35.6145 15.2853 33.7411C13.9746 32.6114 13.4378 32.5765 12.1461 33.7694C9.23305 36.4599 6.33464 39.1637 3.40466 41.8392C2.81203 42.3805 2.55108 42.9577 2.55552 43.7192C2.58031 48.1302 2.56752 52.5411 2.56752 56.9524C2.56752 57.2658 2.56752 57.5792 2.56752 57.9484C1.4402 57.8922 0.461887 57.9322 0 58.9467V59.6526C0.424832 60.3828 1.09 60.6115 1.99603 60.6084C5.54343 60.5964 9.09109 60.6461 12.6388 60.6661C14.224 60.675 15.8093 60.6675 17.4687 60.6675C17.3239 61.4713 17.2104 62.1368 17.0838 62.8002C16.3519 66.6304 17.5906 68.7692 21.4733 70.4644C21.7001 70.5634 21.8825 70.9517 21.8932 71.212C21.9394 72.3281 21.8989 73.4468 21.918 74.564C21.9352 75.5695 22.4412 76.0797 23.3762 76.0877C24.3362 76.0959 24.8261 75.611 24.8399 74.5951C24.8553 73.4776 24.8686 72.3594 24.8331 71.2426C24.8174 70.7515 24.9996 70.5442 25.5246 70.3693C28.3748 69.4203 30.0013 67.2591 29.8724 64.5184C29.8137 63.2668 29.5504 62.0227 29.3679 60.6892C29.7578 60.6892 30.143 60.6896 30.5279 60.6892C50.4485 60.6635 70.3694 60.6381 90.2901 60.611C93.0241 60.6073 95.7586 60.6096 98.4924 60.5811C99.4485 60.5713 99.9918 60.0644 99.9999 59.2914C100.008 58.5186 99.4699 58.0207 98.5245 57.9567ZM82.1471 16.2269C85.3278 18.7054 88.4929 21.1715 91.8002 23.7487H72.49C75.7816 21.1849 78.9311 18.7315 82.1471 16.2269ZM13.7486 36.6108C15.5847 38.134 17.6751 39.868 19.9705 41.7719H7.55199C9.77949 39.9165 11.8663 38.1785 13.7486 36.6108ZM17.117 57.9647C13.508 57.9212 9.89796 57.9468 6.28819 57.9433C6.06612 57.9433 5.84405 57.9082 5.54317 57.883V44.5385H21.8864V46.682C21.8864 48.1805 21.8974 49.679 21.8765 51.1773C21.8726 51.4493 21.8402 51.8239 21.6497 51.9747C19.9491 53.3207 19.2383 55.1585 18.6083 57.0079C18.3445 57.7821 17.9632 57.9748 17.117 57.9647ZM24.8443 67.6632C24.8443 66.4304 24.8506 65.2427 24.8425 64.0551C24.8349 62.9559 24.2854 62.3394 23.3553 62.3639C22.4733 62.3872 21.9269 63.0082 21.9162 64.036C21.9039 65.2265 21.9133 66.417 21.9133 67.7336C20.4329 67.0558 19.7257 66.0386 19.8348 64.7669C20.1281 61.3525 20.9629 58.044 22.693 54.9611C22.7951 54.7792 22.9388 54.6159 23.0667 54.4465C23.14 54.3495 23.2207 54.2571 23.5119 53.9013C24.1379 55.119 24.7913 56.0513 25.1053 57.0693C25.8012 59.3241 26.4163 61.6066 26.8936 63.9069C27.2767 65.7536 26.4917 67.0582 24.8443 67.6632ZM50.7904 57.9042C50.4237 57.9188 50.0796 57.9442 49.7356 57.9444C43.0004 57.9468 36.2655 57.936 29.5303 57.9607C28.8004 57.9633 28.4656 57.7988 28.2302 57.1307C27.5507 55.2016 26.8479 53.2626 25.0236 51.887C24.8704 51.7714 24.8469 51.462 24.8467 51.2424C24.8321 43.7168 24.8274 36.191 24.8232 28.6654C24.8232 28.5785 24.8475 28.4917 24.8709 28.3326H50.7901L50.7904 57.9042ZM59.9545 8.23579C63.1301 8.04848 65.9799 9.91617 66.7135 12.7633H54.1376C54.3579 10.4701 57.0418 8.40757 59.9545 8.23579ZM53.8498 15.5623H66.9382V36.1357C64.9633 36.1357 63.0479 36.0884 61.1385 36.1625C60.5075 36.187 59.8016 36.4089 59.2849 36.7388C57.4831 37.8897 55.7493 39.1275 53.8498 40.4278V15.5623ZM62.0985 57.8896H59.0185C59.0185 56.521 58.9773 55.2061 59.0339 53.8947C59.0678 53.1097 59.7747 52.5835 60.5847 52.5967C61.3971 52.6099 62.0565 53.1454 62.0858 53.9429C62.1327 55.2284 62.0985 56.5163 62.0985 57.8896ZM67.4656 57.8703H65.0335C65.0335 56.5387 65.0648 55.2228 65.0262 53.9086C64.9693 51.9747 63.5239 50.433 61.4438 50.0207C59.5114 49.6376 57.4152 50.5275 56.582 52.1976C56.2717 52.8193 56.1415 53.5481 56.0977 54.2366C56.0215 55.4318 56.0765 56.634 56.0765 57.8891H53.7713V57.0015C53.7713 52.8565 53.7796 48.7112 53.7606 44.5661C53.7582 44.0533 53.8921 43.7058 54.3751 43.3841C56.4664 41.9908 58.523 40.5551 60.6359 39.1049C62.8177 40.6029 64.9688 42.0689 67.0981 43.5603C67.2928 43.6966 67.4496 43.9964 67.4507 44.2211C67.471 48.7455 67.4656 53.2701 67.4656 57.8703ZM69.061 41.5317C67.7938 40.7126 66.5661 39.8438 65.3239 38.9929C65.3388 38.9228 65.3534 38.8529 65.3683 38.7827H67.0825C69.9759 38.7827 72.8697 38.7658 75.7626 38.8006C76.2096 38.806 76.7145 38.967 77.0872 39.1962C78.3468 39.9713 79.5587 40.8093 80.9566 41.7343C80.5388 41.7755 80.3094 41.8176 80.08 41.8178C76.7638 41.8221 73.4479 41.8291 70.132 41.8087C69.7708 41.8063 69.3476 41.7169 69.061 41.5317ZM84.04 57.8729H70.465V44.5322H84.04V57.8729Z" fill="#DF1F19"/>
<path d="M97.6025 67.3836C98.8577 67.3806 99.4556 66.9337 99.4498 66.0285C99.4441 65.146 98.9094 64.7326 97.6691 64.7328C95.2931 64.733 92.9145 64.706 90.5427 64.8046C89.4728 64.8491 88.8087 64.6446 88.1471 63.7967C86.7338 61.985 84.6519 62.0163 83.0818 63.725C82.854 63.9727 82.6008 64.2274 82.4738 64.5194C82.1833 65.1865 81.6463 65.3867 80.9015 65.4569C73.5056 66.1539 66.261 67.518 59.1725 69.5499C52.8947 71.3494 46.8701 73.6804 41.1255 76.5953C40.1774 77.0763 39.9118 77.7457 40.3486 78.4785C40.7862 79.2124 41.5469 79.3734 42.5069 78.9197C43.1982 78.5929 43.8759 78.2425 44.5661 77.9135C54.4685 73.191 65.0199 70.2714 76.0478 68.6844C77.5715 68.4651 79.1059 68.3068 80.7196 68.11C80.4193 69.1539 80.0078 70.0505 79.9303 70.9701C79.7862 72.6794 78.8204 73.4117 77.0616 74.0188C68.6174 76.9339 61.3692 81.4566 55.535 87.7457C54.4664 88.8975 54.5627 89.4447 55.8662 90.3614H56.8429C57.0676 90.1558 57.3129 89.9654 57.5138 89.7421C60.8535 86.0293 64.8654 83.013 69.3202 80.462C72.3751 78.7124 75.5885 77.2476 79.0498 76.1305C79.4407 78.9729 81.1416 80.7879 84.1595 81.6324C84.1595 83.0076 84.1115 84.36 84.1882 85.7067C84.2117 86.1199 84.4601 86.6566 84.8085 86.895C85.7881 87.5657 87.0464 86.879 87.078 85.6841C87.1138 84.3348 87.0864 82.9843 87.0864 81.6567C91.0852 80.4803 92.3694 77.7999 91.914 73.4265C92.5152 73.3672 93.1196 73.282 93.7274 73.2526C95.1898 73.182 96.6628 73.2049 98.1114 73.0434C98.5759 72.9917 99.2442 72.5375 99.3394 72.1666C99.4519 71.729 99.1474 71.1148 98.822 70.7091C98.6411 70.4837 98.0469 70.4503 97.6438 70.4623C95.536 70.5258 93.4301 70.6317 91.2741 70.7249C90.9388 69.6474 90.6043 68.572 90.235 67.3853C92.7885 67.3853 95.1955 67.3893 97.6025 67.3836ZM87.0877 78.7098C87.0877 77.5838 87.0937 76.5155 87.0843 75.4469C87.0812 75.0961 87.0984 74.7318 87.0021 74.3979C86.8056 73.7155 86.2753 73.3548 85.4865 73.4166C84.7028 73.4781 84.2138 73.8993 84.182 74.6104C84.1334 75.6964 84.1613 76.7852 84.1572 77.8726C84.1561 78.1272 84.1572 78.3818 84.1572 78.7959C82.7979 78.1415 82.0181 77.2645 82.0716 76.1115C82.2402 72.4653 83.1794 68.9751 85.088 65.7301C85.2036 65.5336 85.4084 65.3802 85.6994 65.0717C86.1422 65.804 86.5903 66.4101 86.8941 67.0704C88.1378 69.7735 88.8522 72.6022 89.1737 75.5091C89.329 76.9118 88.5858 78.0481 87.0877 78.7098Z" fill="#DF1F19"/>
<path d="M12.0156 73.3957C11.4159 71.203 10.7403 69.0148 9.25653 67.1424C7.65219 65.118 5.45418 65.1187 3.80992 67.1163C3.48242 67.5142 3.1544 67.9369 2.95921 68.3943C2.33031 69.8686 1.6688 71.3402 1.19856 72.8582C0.693614 74.489 0.391169 76.171 0.000260953 77.8307V79.9485C0.438401 81.2526 0.95535 82.5414 2.19984 83.3959C3.04115 83.9736 4.00694 84.4033 5.0685 84.9819C5.0685 86.0498 5.11651 87.3127 5.05205 88.5709C5.00691 89.4538 5.3391 90.044 6.25087 90.3612H6.83698C7.72396 90.0195 8.05484 89.4221 8.01388 88.5502C7.95464 87.2941 7.99874 86.0338 7.99874 84.8052C11.8896 83.4827 13.3848 81.3484 12.9062 77.7147C12.7149 76.263 12.4042 74.8153 12.0156 73.3957ZM7.99691 81.8661C7.99691 80.5479 8.05954 79.2661 7.96168 77.9947C7.92907 77.5702 7.58904 76.9981 7.20101 76.8096C6.80618 76.6176 6.07421 76.6647 5.68617 76.8868C5.34093 77.0845 5.12121 77.658 5.0959 78.078C5.02074 79.323 5.06902 80.5742 5.06902 81.9329C3.7024 81.3533 2.92137 80.4363 2.98478 79.2793C3.1865 75.5858 4.08366 72.029 6.10526 68.7621C6.19555 68.6162 6.36308 68.5091 6.61203 68.2722C7.02617 68.9355 7.46692 69.5092 7.76232 70.1385C9.03968 72.8587 9.7466 75.7164 10.0978 78.6442C10.2709 80.0878 9.47078 81.2891 7.99691 81.8661Z" fill="#DF1F19"/>
<path d="M34.538 80.298C31.0036 82.5123 27.6373 84.9115 24.6752 87.7443C23.5108 88.8578 23.5988 89.4745 25.0027 90.361H25.784C26.5356 89.7148 27.2467 89.0239 28.0465 88.4309C30.758 86.4204 33.4981 84.4411 36.2336 82.4572C37.0361 81.875 37.2224 81.2178 36.7347 80.5568C36.2101 79.8459 35.4369 79.7346 34.538 80.298Z" fill="#DF1F19"/>
<path d="M76.1376 30.1064C76.0642 29.308 75.3949 28.7609 74.6065 28.7983C73.8357 28.835 73.2616 29.3671 73.2371 30.1436C73.2065 31.1112 73.2068 32.081 73.2363 33.0488C73.26 33.8239 73.8331 34.3593 74.6005 34.3976C75.3957 34.4374 76.0624 33.8988 76.1378 33.0985C76.1845 32.6031 76.1464 32.1014 76.1464 31.6026C76.1464 31.1037 76.183 30.602 76.1376 30.1064Z" fill="#DF1F19"/>
<path d="M88.0796 33.1284C88.1231 33.8894 88.6244 34.3289 89.4318 34.3833C90.2053 34.4353 90.8378 34.0501 90.9015 33.3632C91.009 32.2007 91.0103 31.0195 90.9106 29.8563C90.8519 29.1704 90.2275 28.7729 89.4556 28.8134C88.651 28.8557 88.1336 29.2845 88.0816 30.0481C88.048 30.5451 88.0754 31.0453 88.0743 31.5442C88.0736 32.0725 88.0493 32.6017 88.0796 33.1284Z" fill="#DF1F19"/>
<path d="M83.4484 30.0238C83.3863 29.2638 82.8584 28.8388 82.0523 28.8136C81.2854 28.7896 80.6792 29.1838 80.6246 29.8824C80.5357 31.018 80.5375 32.1671 80.6215 33.3032C80.6732 34.0016 81.2653 34.4009 82.0367 34.3852C82.849 34.3685 83.3751 33.9447 83.4455 33.1891C83.4943 32.665 83.4549 32.1344 83.4557 31.6068C83.4565 31.079 83.4915 30.5486 83.4484 30.0238Z" fill="#DF1F19"/>
<path d="M30.6891 41.3317C31.5273 41.2983 32.0414 40.7935 32.0599 39.92C32.0829 38.8359 32.0654 37.7514 32.0654 36.6668C32.0654 35.553 32.0826 34.4391 32.0599 33.3256C32.0422 32.4549 31.5245 31.9475 30.6884 31.9148C29.8108 31.8805 29.1667 32.3979 29.1532 33.2823C29.1187 35.5093 29.1187 37.7372 29.1537 39.9643C29.1675 40.8462 29.8152 41.3665 30.6891 41.3317Z" fill="#DF1F19"/>
<path d="M37.904 41.3317C38.743 41.3016 39.2638 40.7956 39.2823 39.9264C39.3056 38.8423 39.2878 37.7575 39.2881 36.6731C39.2881 35.5594 39.305 34.4454 39.2829 33.3319C39.2656 32.4617 38.7497 31.9511 37.917 31.9151C37.0415 31.8772 36.3886 32.3979 36.3753 33.2759C36.3414 35.5029 36.3419 37.7311 36.3748 39.9581C36.3878 40.8396 37.0308 41.3627 37.904 41.3317Z" fill="#DF1F19"/>
<path d="M45.0904 41.3331C45.9656 41.3192 46.4917 40.7959 46.5079 39.8711C46.5267 38.7867 46.5123 37.7019 46.5123 36.6174C46.5123 35.5328 46.5274 34.448 46.5076 33.3639C46.4909 32.4483 45.9515 31.921 45.0776 31.913C44.2063 31.905 43.604 32.4349 43.5933 33.3314C43.5669 35.5295 43.5664 37.7283 43.5943 39.9264C43.6056 40.8142 44.2224 41.3467 45.0904 41.3331Z" fill="#DF1F19"/>
<path d="M32.0615 46.4293C32.0453 45.5003 31.5219 44.9831 30.6424 44.9711C29.7706 44.9593 29.1618 45.4847 29.1498 46.3811C29.1203 48.5789 29.1206 50.7777 29.1498 52.9755C29.1618 53.8744 29.7669 54.4001 30.6377 54.3905C31.5166 54.3808 32.0438 53.862 32.0615 52.9358C32.0816 51.8808 32.0662 50.8255 32.0662 49.7703C32.0662 48.6566 32.0811 47.5428 32.0615 46.4293Z" fill="#DF1F19"/>
<path d="M39.2852 46.4526C39.2703 45.5168 38.7633 44.9965 37.8904 44.972C36.9844 44.9466 36.3782 45.4956 36.3683 46.4455C36.3456 48.6142 36.344 50.7836 36.3701 52.9522C36.3808 53.8528 36.9726 54.39 37.8341 54.3919C38.7114 54.3938 39.2654 53.8681 39.2836 52.9593C39.3056 51.8752 39.2889 50.7904 39.2889 49.7061C39.2889 48.6217 39.3024 47.5367 39.2852 46.4526Z" fill="#DF1F19"/>
<path d="M46.5068 46.4065C46.4896 45.4956 45.9395 44.9706 45.0614 44.9701C44.1945 44.9694 43.6027 45.5038 43.592 46.4034C43.5667 48.5723 43.5685 50.7417 43.5902 52.9106C43.5996 53.862 44.2008 54.4128 45.1063 54.3902C45.9787 54.3684 46.4925 53.8455 46.5081 52.9139C46.5259 51.859 46.5123 50.8033 46.5121 49.7482C46.5121 48.6342 46.528 47.52 46.5068 46.4065Z" fill="#DF1F19"/>
<path d="M62.3918 30.5255C63.3308 30.5102 63.9114 30.0723 63.9278 29.2558C63.9664 27.3483 64.0048 25.4359 63.8942 23.5327C63.7979 21.8763 62.1418 20.6352 60.3175 20.668C58.4434 20.7016 56.9063 22.0325 56.8288 23.7303C56.7887 24.6097 56.8218 25.4919 56.8218 26.3729H56.8145C56.8145 27.2834 56.7952 28.194 56.82 29.104C56.845 30.0326 57.3695 30.51 58.3943 30.5262C59.7265 30.5472 61.0594 30.5472 62.3918 30.5255ZM59.7802 23.9727C59.7904 23.7541 60.1852 23.5503 60.4026 23.3395C60.6082 23.5623 60.9809 23.7788 60.9916 24.009C61.05 25.2606 61.0195 26.5158 61.0195 27.8446H59.751C59.751 26.5285 59.7205 25.2488 59.7802 23.9727Z" fill="#DF1F19"/>
<path d="M17.2412 48.2008C16.4727 48.2144 15.8665 48.7493 15.8239 49.5089C15.7895 50.1242 15.8169 50.7424 15.8164 51.3592C15.8159 51.9761 15.7921 52.5938 15.8219 53.2097C15.8597 53.9944 16.4147 54.5098 17.1997 54.5406C18.0269 54.5731 18.6942 54.0577 18.7234 53.2476C18.7688 51.9858 18.7709 50.7203 18.7187 49.459C18.6876 48.7076 18.0058 48.1871 17.2412 48.2008Z" fill="#DF1F19"/>
<path d="M10.1735 48.2085C9.40971 48.177 8.79465 48.7248 8.74324 49.4882C8.70175 50.1021 8.73489 50.7203 8.73489 51.3363C8.73489 51.982 8.70697 52.6287 8.7422 53.2727C8.78343 54.0222 9.24949 54.4658 10.0806 54.5357C10.8791 54.603 11.5581 54.1335 11.5999 53.356C11.6706 52.0394 11.669 50.7156 11.6015 49.3987C11.5636 48.6617 10.9968 48.2426 10.1735 48.2085Z" fill="#DF1F19"/>
<path d="M74.5186 51.8321C75.2735 51.7627 75.7631 51.342 75.8166 50.6172C75.8445 50.2369 75.8215 49.8536 75.8215 49.4717H75.8145C75.8145 49.0309 75.8534 48.5869 75.8056 48.1506C75.7266 47.4277 75.2013 47.0367 74.4435 46.9992C73.7222 46.9637 73.0985 47.3084 73.0223 47.965C72.9117 48.9189 72.9036 49.8995 73.0181 50.8525C73.1016 51.5486 73.7527 51.9025 74.5186 51.8321Z" fill="#DF1F19"/>
<path d="M78.6918 50.7198C78.7823 51.4401 79.3246 51.8211 80.0824 51.8378C80.7997 51.8535 81.4088 51.5022 81.4735 50.8375C81.5667 49.8807 81.5703 48.9022 81.4563 47.9483C81.3772 47.2882 80.7416 46.9606 80.0245 46.9992C79.3144 47.0374 78.7935 47.4026 78.6967 48.0817C78.6393 48.4857 78.6863 48.9018 78.6863 49.3124H78.6808C78.6808 49.7821 78.6336 50.2562 78.6918 50.7198Z" fill="#DF1F19"/>
<path d="M60.5239 43.7735C59.7205 43.79 59.1612 44.335 59.1657 45.097C59.1701 45.8549 59.7426 46.3994 60.543 46.4067C61.384 46.4145 61.9727 45.8391 61.9464 45.0353C61.9216 44.2762 61.336 43.7568 60.5239 43.7735Z" fill="#DF1F19"/>
</svg>
