<svg width="100" height="92" viewBox="0 0 100 92" fill="none" xmlns="http://www.w3.org/2000/svg">
<path d="M98.1246 40.2971C94.442 36.6612 90.7978 32.9858 87.0477 29.4192C84.8381 27.3178 82.1702 26.2059 79.0023 26.3466C76.6315 26.452 74.2521 26.3695 71.8766 26.3639C71.6408 26.3634 71.4053 26.3157 71.0837 26.2806C71.77 24.9195 72.4179 23.6639 73.0382 22.3953C73.5515 21.3455 73.3144 20.4255 72.45 19.9718C71.5519 19.5002 70.616 19.8633 70.0588 20.9394C69.2745 22.454 68.4849 23.9679 67.7627 25.5115C67.4632 26.1515 67.0973 26.3963 66.3659 26.3853C63.4703 26.3409 60.5739 26.3685 57.6775 26.3649C57.3642 26.3644 57.0507 26.334 56.756 26.3183V3.29133C57.1655 3.29133 57.4884 3.29133 57.8113 3.29133C62.7576 3.29133 67.704 3.29056 72.65 3.29185C74.3017 3.29236 74.6903 3.59591 75.0169 5.20799C76.1263 10.6851 77.2215 16.165 78.3319 21.6421C78.561 22.7723 79.3132 23.3188 80.3245 23.141C81.2901 22.9712 81.822 22.1206 81.5995 21.0053C80.4883 15.4306 79.3907 9.85275 78.2302 4.2878C77.6211 1.36437 75.8545 0.00456706 72.866 0.00250559C67.1387 -0.00161736 61.4114 0.00018643 55.6842 0.00199022C53.8737 0.00250559 53.3434 0.51942 53.3431 2.28404C53.3415 10.6103 53.3421 18.9364 53.3428 27.2627C53.3428 29.168 53.8371 29.6568 55.7676 29.6571C63.5125 29.6581 71.2577 29.7035 79.0018 29.629C81.2711 29.6071 83.1836 30.2845 84.7538 31.7959C88.4127 35.3174 92.0131 38.8987 95.6137 42.4787C96.6005 43.4599 96.7658 44.7087 96.6101 46.1051C95.9917 46.1051 95.4389 46.0633 94.8948 46.1143C93.9568 46.2025 93.3332 46.9134 93.3553 47.7921C93.3778 48.6832 94.015 49.3158 94.9848 49.3686C95.5237 49.398 96.0655 49.3738 96.6002 49.3738V59.2006H93.2505C91.7718 51.8996 85.4855 48.8739 80.541 49.4619C74.4731 50.1834 70.1752 54.8189 70.0046 60.7155C69.845 66.2269 73.9326 71.1942 79.5613 72.243C82.345 72.7617 85.0095 72.309 87.4648 70.8946C90.6932 69.0346 92.5376 66.199 93.2351 62.5564C94.7532 62.5564 96.2165 62.5165 97.6762 62.5703C98.6655 62.6069 99.4465 62.3353 100 61.5081V44.1485C99.626 42.7454 99.2016 41.3608 98.1246 40.2971ZM81.673 69.149C77.1133 69.1575 73.3668 65.4615 73.3499 60.9376C73.3329 56.4246 77.0536 52.7105 81.6253 52.6768C86.2028 52.6428 90.0283 56.4119 90.0119 60.9397C89.9954 65.4425 86.2391 69.1405 81.673 69.149Z" fill="#DF1F19"/>
<path d="M97.659 88.1379C89.2093 88.1681 80.7596 88.1549 72.3099 88.1562C72.0178 88.1562 71.7209 88.1415 71.434 88.1848C70.6275 88.3062 70.1488 88.7968 70.0492 89.5815C69.9496 90.3648 70.2785 90.9853 71.0396 91.2677C71.4212 91.4092 71.8636 91.4378 72.2783 91.4383C80.7604 91.4476 89.2427 91.434 97.7247 91.46C98.7336 91.4631 99.4848 91.167 99.9997 90.312V89.1547C99.4191 88.3647 98.6428 88.1346 97.659 88.1379Z" fill="#DF1F19"/>
<path d="M65.5865 57.7318C65.3517 57.6236 65.1023 57.5457 64.8592 57.4555C60.9365 56.0004 57.0212 54.5249 53.0841 53.1089C52.3399 52.8412 51.5089 52.6894 50.7175 52.6881C35.554 52.6639 20.3903 52.6629 5.22655 52.6904C4.42003 52.692 4.07155 52.4353 3.87565 51.6994C3.18182 49.0924 3.19721 46.4975 3.84044 43.8849C4.03894 43.0786 4.41351 42.7809 5.30454 42.7827C19.8498 42.8139 34.3954 42.8049 48.9406 42.8049H50.0158C50.0158 44.4567 50.0062 45.9651 50.019 47.4731C50.0289 48.6497 50.634 49.3454 51.633 49.371C52.6814 49.3978 53.3308 48.6907 53.3382 47.4716C53.3499 45.5428 53.3444 43.614 53.3408 41.6853C53.3376 40.0402 52.8003 39.5197 51.1009 39.5194C35.3842 39.5184 19.6672 39.5277 3.95052 39.5004C2.78612 39.4983 1.91726 39.8879 1.5466 40.9169C0.985535 42.4743 0.400208 44.0655 0.175624 45.6897C-0.219811 48.5502 0.0180759 51.3969 1.24272 54.0912C1.83118 55.3863 2.69717 56.0019 4.26013 55.9952C17.8617 55.9378 31.4645 56.061 45.0645 55.904C49.3439 55.8546 53.3595 56.3916 57.2628 58.1315C59.567 59.1586 61.9929 59.9218 64.3751 60.7735C65.3214 61.1118 66.2339 60.7016 66.5547 59.8757C66.8855 59.0238 66.4963 58.1516 65.5865 57.7318Z" fill="#DF1F19"/>
<path d="M7.81435 36.7112C8.58279 37.2178 9.472 37.033 10.1236 36.2169C10.3445 35.9402 10.5292 35.6351 10.7413 35.3511C14.8675 29.8212 20.3809 26.694 27.3425 26.4211C35.4074 26.1049 41.7472 29.3901 46.3693 35.9206C47.1348 37.0024 48.0444 37.2693 48.9148 36.6785C49.786 36.0868 49.8737 35.1442 49.1151 34.0609C44.0916 26.888 37.1271 23.2923 29.6066 23.0699C23.0381 23.0928 18.223 24.6116 13.8993 27.6221C11.2924 29.4375 9.13447 31.6925 7.41005 34.3433C6.82107 35.2486 7.00001 36.1742 7.81435 36.7112Z" fill="#DF1F19"/>
<path d="M49.3029 61.1227C49.9811 60.3109 49.7315 59.282 48.9451 58.7566C48.1393 58.2186 47.2326 58.4195 46.5719 59.2918C46.3776 59.5485 46.2062 59.8224 46.0205 60.0855C41.1076 67.0386 32.3318 70.4565 23.9328 68.6764C18.2702 67.4764 13.815 64.4862 10.4903 59.8136C10.182 59.3802 9.80561 58.9071 9.34601 58.6857C8.65296 58.352 7.92834 58.5324 7.43118 59.1769C6.84637 59.9347 7.04513 60.6586 7.55534 61.3886C12.5718 68.5659 19.5379 72.1626 27.6263 72.4525C34.3468 72.3739 39.7901 70.5784 44.341 66.643C46.2018 65.034 47.7162 63.0215 49.3029 61.1227Z" fill="#DF1F19"/>
<path d="M24.7132 88.15C20.9425 88.1621 17.1718 88.1557 13.401 88.1562C9.56538 88.1567 5.72945 88.1493 1.89378 88.1614C0.776341 88.165 0.0798953 88.7785 0.0407691 89.7193C0.000860423 90.6823 0.739301 91.3845 1.85779 91.4419C2.05238 91.452 2.24775 91.445 2.44285 91.445C9.72423 91.445 17.0059 91.4471 24.2872 91.4401C24.7049 91.4396 25.1433 91.4337 25.5356 91.3134C26.5532 91.0013 26.9796 89.8688 26.4561 88.9754C26.0672 88.3116 25.4462 88.1474 24.7132 88.15Z" fill="#DF1F19"/>
<path d="M51.3164 88.158C48.6816 88.15 46.0469 88.1557 43.4118 88.1554C40.7445 88.1554 38.0771 88.15 35.4098 88.1575C34.1027 88.1611 33.4162 88.7053 33.3862 89.7278C33.3549 90.7939 34.0847 91.4391 35.3902 91.4412C40.6923 91.4497 45.9944 91.4489 51.2965 91.4412C52.5864 91.4394 53.3569 90.7794 53.3345 89.7461C53.3126 88.737 52.5974 88.1619 51.3164 88.158Z" fill="#DF1F19"/>
<path d="M65.1005 88.1737C64.5181 88.1366 63.9312 88.1668 63.3464 88.1665C62.7616 88.1665 62.1747 88.1366 61.5922 88.1732C60.702 88.2291 60.0564 88.8813 60.0131 89.7103C59.9726 90.4836 60.5209 91.2987 61.3473 91.3608C62.6692 91.4602 64.0102 91.4677 65.3314 91.3659C66.2109 91.2982 66.7157 90.4857 66.6397 89.6217C66.5683 88.8074 65.9796 88.2294 65.1005 88.1737Z" fill="#DF1F19"/>
<path d="M26.7579 47.7122C26.741 48.6466 27.4489 49.3643 28.3947 49.3712C29.315 49.3779 30.0855 48.6252 30.0745 47.7303C30.0636 46.8441 29.2612 46.0814 28.3624 46.1022C27.4781 46.1228 26.7741 46.8292 26.7579 47.7122Z" fill="#DF1F19"/>
<path d="M81.6976 55.97C78.9452 55.9442 76.679 58.1933 76.692 60.9379C76.7051 63.6521 78.9079 65.8326 81.6496 65.8452C84.4103 65.8579 86.7005 63.6018 86.6804 60.8897C86.6606 58.2111 84.4166 55.9955 81.6976 55.97ZM81.703 62.5353C80.7585 62.5507 80.0394 61.8524 80.0381 60.9186C80.0368 59.9963 80.7734 59.2676 81.6944 59.2799C82.5636 59.2918 83.301 60.0035 83.3336 60.8624C83.3677 61.7594 82.6262 62.5203 81.703 62.5353Z" fill="#DF1F19"/>
</svg>
