<svg width="100" height="92" viewBox="0 0 100 92" fill="none" xmlns="http://www.w3.org/2000/svg">
<path d="M99.8617 23.9916C99.2841 19.9674 97.2898 16.5374 94.4383 13.5138C88.5104 7.22842 80.8586 3.27921 72.5534 0.254227C72.213 0.13033 71.6169 0.153203 71.3727 0.349532C71.0031 0.646169 70.5727 1.20513 70.6529 1.56205C70.7557 2.02047 71.25 2.54727 71.7289 2.77076C74.7628 4.18771 77.918 5.40047 80.8831 6.9244C85.7362 9.41853 90.126 12.4812 93.4331 16.6572C96.0938 20.0174 97.5237 23.7 96.9268 27.9335C96.4221 31.5131 95.1104 34.8526 93.4833 38.0975C90.0138 45.0164 85.3997 51.3018 80.499 57.4228C80.4307 57.5079 80.3292 57.5708 80.094 57.7711C80.094 57.3299 80.094 57.0482 80.094 56.7666C80.0924 54.5972 80.1188 52.4276 80.0818 50.2587C80.0435 48.0119 78.1956 46.2545 75.7438 46.1041C74.9339 46.0546 74.1164 46.0603 73.3047 46.0903C71.4919 46.1572 70.1367 46.9483 69.3268 48.4155C69.0575 48.9035 68.7536 49.015 68.2109 49.0243C66.6948 49.0505 65.8206 49.8756 65.781 51.2673C65.7615 51.9501 65.7586 52.6351 65.7917 53.3173C65.8885 55.2999 67.5036 56.8891 69.6852 57.1745C71.7391 57.4433 73.8826 56.2779 74.4456 54.3923C74.7383 53.4126 74.6859 52.3395 74.7266 51.3066C74.774 50.1019 73.9844 49.3831 72.8219 48.862C73.5911 48.7557 74.2984 48.7493 75.0055 48.7569C76.5878 48.7738 77.1609 49.3037 77.163 50.7674C77.168 54.0659 77.1872 57.3649 77.1398 60.6629C77.1328 61.1461 76.9135 61.712 76.5878 62.0939C68.5992 71.4579 59.9338 80.2779 50.8146 88.7305C49.6086 89.8482 49.6044 90.4029 50.7812 91.4634H51.9531C60.8013 83.3958 69.1138 74.8856 77.119 65.8714V70.715C76.2711 70.715 75.4659 70.6974 74.662 70.7193C73.556 70.7493 73.0385 71.2046 73.0357 72.1996C73.0229 76.3309 73.0234 80.4621 73.0359 84.5931C73.0388 85.5402 73.5628 86.0749 74.5648 86.0851C77.2982 86.1132 80.0323 86.1135 82.7654 86.0815C83.6156 86.0715 84.2018 85.6245 84.225 84.8097C84.2654 83.3844 84.2685 81.9565 84.219 80.5319C84.1927 79.773 83.6703 79.3349 82.8268 79.3182C81.9807 79.3015 81.4896 79.7318 81.3682 80.4793C81.3065 80.8583 81.3302 81.2496 81.3266 81.6355C81.3208 82.2138 81.325 82.7923 81.325 83.362H76.0271V73.4474H81.3284C81.3284 74.3287 81.3052 75.1543 81.3344 75.9785C81.368 76.9246 81.999 77.5334 82.8534 77.5003C83.6784 77.4683 84.2299 76.8886 84.2471 75.9668C84.2698 74.7486 84.2695 73.5296 84.2487 72.3114C84.2289 71.1475 83.7497 70.7345 82.444 70.7157C81.6784 70.7048 80.9122 70.7138 80.0938 70.7138C80.0938 68.0972 80.0646 65.6317 80.1185 63.1678C80.1292 62.6808 80.3536 62.1342 80.6581 61.7261C84.1531 57.0392 87.8096 52.4486 91.1664 47.6814C94.3885 43.1053 97.0633 38.2407 98.7234 32.9796C99.2779 31.2227 99.5815 29.3995 100 27.6068V24.2178C99.9523 24.1427 99.8732 24.0712 99.8617 23.9916ZM71.1039 54.2205C70.6997 54.4548 69.926 54.4945 69.5016 54.2975C68.3227 53.75 68.7703 52.689 68.7344 51.7343H71.7883C71.7547 52.6282 72.132 53.6251 71.1042 54.2205H71.1039Z" fill="#DF1F19"/>
<path d="M51.1589 29.7569C52.3799 29.354 53.5984 28.9404 54.7943 28.4798C55.5792 28.1774 55.9076 27.4491 55.6065 26.7889C55.2852 26.0841 54.6664 25.8379 53.8617 25.9916C53.6096 26.0398 53.3685 26.1374 53.1237 26.2156C49.2328 27.4586 45.3703 28.7817 41.4464 29.9306C28.3578 33.763 15.0359 36.8109 1.66953 39.7082C1.06719 39.8388 0.554427 40.3134 0 40.6279V41.5197C0.554427 42.3357 1.28802 42.5242 2.32578 42.2867C6.73516 41.2771 11.1732 40.3713 15.5797 39.3515C27.575 36.5755 39.5083 33.6013 51.1586 29.7569H51.1589Z" fill="#DF1F19"/>
<path d="M23.6255 31.1136C25.6745 31.15 27.7255 31.1488 29.7745 31.1107C30.6651 31.0943 31.2674 30.6463 31.2724 29.7771C31.2898 26.568 31.294 23.3588 31.2695 20.1497C31.263 19.3114 30.7224 18.8735 29.7779 18.8306C29.268 18.8073 28.7557 18.8266 28.1961 18.8266C28.1729 18.4601 28.1424 18.2004 28.1422 17.941C28.1393 13.3649 28.1378 8.78857 28.1417 4.21249C28.1427 2.96923 28.5349 2.68975 29.9919 2.92301C28.974 3.94492 29.2234 5.17817 29.3654 6.3316C29.5773 8.05472 31.3406 9.30155 33.2156 9.22244C35.0794 9.14358 36.6013 7.82479 36.7576 6.11859C36.8089 5.55796 36.8096 4.98923 36.7766 4.42693C36.7094 3.29279 36.0464 2.6359 34.8404 2.40479C34.5781 2.35451 34.2177 2.26826 34.1078 2.09195C33.106 0.482959 31.5336 0.0822007 29.6393 0.122705C26.7503 0.184416 25.2125 1.56015 25.2109 4.23107C25.2083 8.74782 25.2102 13.2646 25.2102 17.7813V18.8232C24.6477 18.8232 24.1987 18.8135 23.7508 18.8252C22.6016 18.8549 22.0799 19.3131 22.0755 20.3584C22.0628 23.4486 22.0615 26.5392 22.0776 29.6294C22.0826 30.5644 22.6109 31.0955 23.6255 31.1136ZM34.0208 5.11026C33.7984 5.62991 33.6828 6.05593 33.432 6.39974C33.3469 6.51649 32.7667 6.52483 32.6799 6.41165C32.4174 6.06975 32.2862 5.64397 32.0383 5.11026H34.0208ZM25.074 21.5525H28.2966V28.409H25.074V21.5525Z" fill="#DF1F19"/>
<path d="M50.0633 2.87798C50.3799 3.02927 50.6974 3.17914 51.013 3.33258C54.8419 5.19509 58.4828 7.31705 61.7417 9.94533C63.5768 11.4254 65.2818 13.0173 66.2758 15.1209C67.1719 17.0172 66.8721 18.7527 65.276 20.199C64.431 20.9648 63.449 21.6326 62.4359 22.208C61.1703 22.9268 59.8026 23.4946 58.4917 24.1487C57.6737 24.5568 57.4138 25.2635 57.7839 25.9437C58.1388 26.5963 58.894 26.8818 59.6789 26.5561C62.1995 25.5101 64.6638 24.361 66.7479 22.6607C68.5404 21.1983 69.6505 19.4027 69.7151 17.2452C69.6469 14.879 68.6951 12.8762 67.0779 11.2451C65.2753 9.42687 63.3917 7.6013 61.2328 6.16934C58.1143 4.10074 54.7328 2.35856 51.4289 0.529182C50.2838 -0.104836 49.4474 0.0750528 48.9865 0.853696C48.5185 1.64425 48.8716 2.30805 50.0633 2.87798Z" fill="#DF1F19"/>
<path d="M74.1747 7.8317C73.8812 7.58224 73.4677 7.45072 72.9318 7.17267C72.5034 7.51767 71.9711 7.78334 71.7138 8.19291C71.3505 8.77094 71.6534 9.32442 72.1779 9.77664C73.6896 11.0797 75.1956 12.3885 76.6872 13.7108C77.4677 14.4025 78.2641 14.5216 78.9219 13.9937C79.6185 13.4349 79.6273 12.6227 78.8224 11.8898C77.3044 10.5081 75.7432 9.16526 74.1742 7.83146L74.1747 7.8317Z" fill="#DF1F19"/>
<path d="M10.5333 72.218C10.0984 72.0512 9.38307 72.0452 9.00859 72.2713C7.11693 73.4145 5.2849 74.6416 3.45703 75.8703C2.70573 76.3754 2.59271 77.1236 3.07708 77.7428C3.54609 78.3425 4.40547 78.4957 5.14714 78.0237C7.00911 76.8388 8.85651 75.6332 10.675 74.3935C11.0049 74.1686 11.1706 73.7424 11.4969 73.2918C11.1539 72.8861 10.9276 72.3693 10.5333 72.218Z" fill="#DF1F19"/>
<path d="M61.1276 2.64472C62.9214 3.70975 64.718 4.77074 66.5143 5.83196C67.4284 6.37187 68.2318 6.30944 68.7526 5.6616C69.2836 5.00114 69.0789 4.18866 68.1542 3.62636C66.3734 2.54393 64.5677 1.49534 62.7633 0.44579C62.4974 0.291157 62.1815 0.208242 61.6562 0C61.2747 0.329756 60.7237 0.624249 60.4781 1.06194C60.1211 1.69834 60.4859 2.26374 61.1276 2.64472Z" fill="#DF1F19"/>
<path d="M79.8937 25.1732C80.6055 25.6678 81.4443 25.5115 82.0818 24.7412C83.0708 23.5459 83.5872 22.1975 83.7432 20.6622C83.493 19.6877 83.2961 18.6982 82.9734 17.7442C82.7599 17.1125 82.1245 16.7375 81.443 16.9493C80.9719 17.0956 80.5206 17.5431 80.2766 17.9612C80.1177 18.2335 80.2969 18.7077 80.4104 19.0689C80.8768 20.5538 80.7289 21.9259 79.706 23.2073C79.1013 23.9647 79.2112 24.6988 79.8937 25.1732Z" fill="#DF1F19"/>
<path d="M43.7896 50.1255C43.3159 49.9797 42.5904 50.0114 42.1898 50.2587C40.3651 51.3852 38.6057 52.6018 36.8445 53.8122C36.0521 54.3568 35.9164 55.1283 36.426 55.7483C36.9393 56.3728 37.7732 56.4752 38.5794 55.9463C40.343 54.7888 42.0992 53.6208 43.8219 52.4136C44.1971 52.1505 44.418 51.704 44.8039 51.2251C44.4133 50.7762 44.1773 50.2451 43.7896 50.1255Z" fill="#DF1F19"/>
<path d="M55.7862 43.7687C55.4234 43.3348 55.199 42.813 54.8049 42.6634C54.3724 42.499 53.6526 42.5037 53.2849 42.7351C51.4122 43.9145 49.6003 45.1763 47.7943 46.4415C47.0784 46.943 46.9872 47.7498 47.4841 48.3333C47.9852 48.9218 48.8208 49.0359 49.5703 48.538C51.3586 47.3502 53.1346 46.146 54.8805 44.9071C55.2341 44.6562 55.4331 44.2237 55.7859 43.7682L55.7862 43.7687Z" fill="#DF1F19"/>
<path d="M69.1729 32.8677C69.3023 33.252 69.8911 33.5072 70.2315 33.7823C70.6771 33.6432 70.9648 33.6213 71.1518 33.4843C73.0474 32.0974 74.9497 30.7164 76.7971 29.277C77.3852 28.8189 77.3602 28.1429 76.8904 27.5866C76.387 26.9907 75.6435 26.8244 74.9961 27.2809C73.0992 28.6185 71.2284 29.9923 69.4349 31.4421C69.1148 31.7009 69.0302 32.4431 69.1732 32.8674L69.1729 32.8677Z" fill="#DF1F19"/>
<path d="M20.3289 64.8428C18.3146 66.0963 16.3281 67.3929 14.4156 68.771C14.0911 69.0048 13.9982 69.7748 14.1411 70.2016C14.2685 70.5813 14.8706 70.8287 15.1823 71.0717C15.632 70.9592 15.8872 70.9549 16.0589 70.8434C18.0453 69.5528 20.0443 68.2757 21.982 66.9254C22.5904 66.5016 22.6044 65.8204 22.1367 65.2369C21.6724 64.6574 20.9599 64.4501 20.3289 64.8428Z" fill="#DF1F19"/>
<path d="M31.3852 57.5036C29.3786 58.7664 27.3997 60.0718 25.4964 61.4594C25.1807 61.6896 25.112 62.469 25.2667 62.8914C25.4057 63.2707 26.0094 63.5078 26.3344 63.7525C26.7745 63.6245 27.0227 63.6069 27.1958 63.4937C29.1505 62.2135 31.1167 60.946 33.0273 59.6127C33.6792 59.1576 33.699 58.4652 33.206 57.8562C32.7339 57.2727 32.0023 57.1152 31.3852 57.5036Z" fill="#DF1F19"/>
<path d="M64.3031 35.084C62.3615 36.3785 60.4396 37.7034 58.5979 39.112C58.2727 39.3608 58.1797 40.123 58.326 40.549C58.4575 40.9321 59.0646 41.179 59.4141 41.4492C59.8581 41.3045 60.1391 41.2743 60.3336 41.1399C62.251 39.8149 64.1802 38.5016 66.0474 37.1192C66.6862 36.6463 66.6495 35.9389 66.1378 35.3573C65.6443 34.7964 64.9169 34.6746 64.3031 35.084Z" fill="#DF1F19"/>
</svg>
