<svg width="117" height="120" viewBox="0 0 117 120" fill="none" xmlns="http://www.w3.org/2000/svg">
<path d="M92.589 48.6009C89.923 32.2115 75.6579 19.6652 59.0681 19.5502C44.6824 19.4507 34.1427 26.2125 27.3214 38.8236C26.4324 40.4673 26.6143 41.5109 27.7397 42.0404C28.8219 42.5496 29.6342 42.0611 30.4621 40.4037C36.3825 28.5538 49.2132 21.6035 62.1518 23.238C79.9378 25.4848 92.4209 42.6695 89.1668 60.3296C87.9083 67.1594 84.7663 72.9298 79.951 77.8739C77.2301 80.6676 74.8951 83.7213 74.0428 87.669C73.9867 87.9292 73.4744 88.2708 73.1732 88.2718C63.4476 88.3034 53.722 88.2915 43.9963 88.3121C43.3347 88.3137 43.1496 88.0316 43.0087 87.4623C42.4564 85.23 41.403 83.2297 39.9482 81.4636C38.7827 80.0489 37.563 78.673 36.293 77.3515C32.9149 73.8366 30.3569 69.8285 28.7922 65.2007C27.0176 59.9523 26.6478 54.5983 27.5866 49.1454C27.8374 47.6887 27.3621 46.7797 26.2586 46.5846C25.1755 46.3933 24.3554 47.0127 24.1515 48.2546C22.3491 59.2286 24.7878 69.1005 31.9113 77.7145C33.6016 79.7586 35.4913 81.638 37.1863 83.6787C39.0401 85.911 39.971 88.4982 39.9391 91.4529C39.9031 94.7718 40.0083 98.0919 40.0509 101.412C40.0866 104.187 41.1105 106.561 43.2677 108.278C44.2838 109.087 44.5453 109.904 44.54 111.122C44.5215 115.434 47.262 118.782 51.4878 119.795C51.6738 119.839 51.8482 119.93 52.0279 120H65.3884C66.1972 119.726 67.0511 119.542 67.8064 119.162C71.239 117.436 72.9271 114.621 72.9183 110.772C72.9167 110.078 72.7185 109.387 73.5245 108.805C76.137 106.918 77.3945 104.297 77.3723 101.059C77.3491 97.6611 77.3974 94.2623 77.335 90.8651C77.2887 88.3444 77.9779 86.0617 79.4459 84.0604C80.5966 82.4913 81.8677 80.9989 83.1891 79.5682C91.3284 70.757 94.5132 60.4304 92.589 48.6009ZM64.505 116.436C60.6431 116.556 56.7725 116.553 52.9106 116.436C49.9334 116.346 47.7505 113.582 48.1554 110.601H69.1876C69.9457 113.232 67.5527 116.341 64.505 116.436ZM73.7634 97.7037C72.5554 97.7037 71.3216 97.6974 70.0879 97.7052C68.6634 97.7143 67.9254 98.2989 67.9091 99.4134C67.8922 100.564 68.6763 101.205 70.1421 101.217C71.3439 101.227 72.546 101.219 73.7365 101.219C73.9898 104.24 71.5198 107.008 68.3688 107.053C61.9264 107.143 55.4811 107.144 49.0387 107.052C45.893 107.007 43.4017 104.2 43.6914 101.22H44.9433C50.1372 101.22 55.3312 101.22 60.5251 101.219C60.8376 101.219 61.1526 101.237 61.4617 101.203C62.4794 101.09 63.1529 100.376 63.1517 99.4406C63.1501 98.4417 62.4493 97.7275 61.3386 97.7162C58.6053 97.6883 55.8713 97.7046 53.1377 97.704C50.0167 97.7033 46.8957 97.704 43.6729 97.704V91.9126H73.7634V97.7037ZM56.5981 13.1439C56.5843 9.47988 56.5824 5.81559 56.6 2.15162C56.6065 0.778527 57.2867 -0.00900319 58.3695 7.76763e-05C59.447 0.00915855 60.1017 0.797002 60.1168 2.17792C60.1371 4.04858 60.1218 5.91986 60.1221 7.79084C60.1221 9.58384 60.1362 11.3772 60.1177 13.1698C60.1036 14.5498 59.4586 15.3586 58.4017 15.39C57.3058 15.4222 56.6034 14.5799 56.5981 13.1439ZM15.3863 58.3578C15.3863 59.3871 14.5991 60.1092 13.3315 60.117C9.55105 60.1402 5.77059 60.142 1.99013 60.1142C0.725383 60.1048 -0.0330262 59.358 0.00110531 58.3036C0.0339843 57.29 0.762959 56.6384 1.987 56.6215C3.93531 56.5946 5.88426 56.6143 7.83288 56.614C9.66472 56.614 11.4965 56.5974 13.3281 56.6193C14.5981 56.6346 15.3863 57.327 15.3863 58.3578ZM116.713 58.4057C116.684 59.4491 115.925 60.111 114.62 60.1186C110.918 60.1395 107.215 60.1374 103.513 60.1211C102.147 60.1151 101.336 59.435 101.325 58.3728C101.315 57.3076 102.127 56.6296 103.487 56.6174C105.318 56.6011 107.15 56.6133 108.982 56.6133C110.853 56.6133 112.724 56.5986 114.594 56.618C115.955 56.6321 116.743 57.3188 116.713 58.4057ZM28.702 89.8396C28.3397 90.4728 28.1606 91.011 27.8033 91.3746C25.1269 94.0982 22.4246 96.7965 19.71 99.4819C18.874 100.309 17.8309 100.335 17.111 99.6313C16.3914 98.9277 16.3955 97.8543 17.2072 97.0339C19.9198 94.2914 22.625 91.5393 25.4203 88.8824C25.8537 88.4703 26.7956 88.3093 27.4031 88.4531C27.8972 88.5699 28.242 89.3167 28.702 89.8396ZM17.2726 19.7475C16.4093 18.8598 16.3689 17.7926 17.1314 17.069C17.8647 16.3729 18.8818 16.4145 19.7298 17.2544C22.4437 19.9414 25.1476 22.6387 27.823 25.3639C28.1787 25.7262 28.3481 26.2717 28.7029 26.9105C28.2326 27.4252 27.8747 28.163 27.3774 28.2732C26.7687 28.4082 25.8568 28.2259 25.4022 27.8176C23.6937 26.2839 22.1177 24.6027 20.4922 22.9762C19.4179 21.9013 18.3322 20.8372 17.2726 19.7475ZM88.7196 27.9313C88.0182 27.1916 88.0608 26.1871 88.9063 25.3332C91.5939 22.6199 94.294 19.9188 97.0142 17.2381C97.3521 16.9052 97.8397 16.7239 98.4512 16.3563C98.9848 16.7859 99.6045 17.0875 99.9164 17.5828C100.378 18.3153 100.123 19.0812 99.5071 19.6968C97.8256 21.3771 96.1453 23.0589 94.4644 24.7401C93.4448 25.7597 92.4381 26.7927 91.4013 27.7947C90.4954 28.6703 89.4536 28.7053 88.7196 27.9313ZM99.5635 97.1046C99.8688 97.4143 100.012 97.8837 100.342 98.4802C99.9273 98.9922 99.6248 99.6134 99.1282 99.9209C98.3967 100.374 97.6336 100.125 97.0158 99.5045C95.1736 97.6542 93.3255 95.8105 91.4799 93.9639C90.5984 93.0821 89.6985 92.2172 88.8411 91.3126C88.042 90.469 88.043 89.4194 88.7885 88.7177C89.4972 88.0504 90.5133 88.0551 91.3027 88.8345C94.0755 91.5719 96.8282 94.3296 99.5635 97.1046Z" fill="#215384"/>
<path d="M72.899 47.5721C73.9314 48.3487 73.9934 49.6206 73.0377 50.8735C72.0432 52.177 71.0211 53.4584 70.0298 54.7641C69.2375 55.8075 69.2754 56.7829 70.0977 57.4587C70.9604 58.1676 71.953 57.9813 72.8151 56.9003C73.8616 55.588 74.8899 54.2609 75.9038 52.9235C77.9677 50.2012 77.6157 46.7532 75.0903 44.7962C72.5411 42.8206 69.1301 43.3194 67.0177 46.003C65.1345 48.3953 63.2786 50.8096 61.4101 53.2135C59.5717 55.5789 57.7324 57.9437 55.8016 60.4265C55.2164 59.7852 54.7683 59.298 54.3239 58.8073C52.5939 56.8975 50.9089 54.9445 49.1243 53.087C47.0054 50.8819 43.6652 50.7736 41.3915 52.7382C39.1351 54.6877 38.6932 58.171 40.6585 60.4272C44.4533 64.7835 48.3302 69.0721 52.2823 73.2863C54.3559 75.4973 58.2077 75.41 60.1551 73.0978C62.7178 70.0548 65.086 66.8476 67.5238 63.7C68.0627 63.0039 68.1657 62.1322 67.4993 61.5795C67.0112 61.1746 66.197 61.0331 65.5272 61.0303C65.1826 61.0287 64.7788 61.5426 64.4986 61.8992C62.3279 64.6613 60.1892 67.4485 58.0224 70.2138C56.9661 71.5619 55.5987 71.7341 54.529 70.5664C50.8369 66.5358 47.1654 62.4857 43.5384 58.3965C42.376 57.0857 43.1225 55.0359 44.8059 54.9605C45.4986 54.9292 46.3979 55.3923 46.9002 55.9193C49.3238 58.4622 51.6391 61.1082 54.0033 63.7079C55.5605 65.4201 56.4307 65.3803 57.8291 63.5776C61.7768 58.4885 65.7226 53.3976 69.6797 48.3158C70.6848 47.0247 71.8419 46.777 72.899 47.5721Z" fill="#DF1F19"/>
</svg>
