<svg width="100" height="92" viewBox="0 0 100 92" fill="none" xmlns="http://www.w3.org/2000/svg">
<path d="M98.0501 40.3176C97.7846 40.1628 97.5125 39.7584 97.5028 39.4605C97.4499 37.8186 97.4501 36.173 97.5025 34.5311C97.5119 34.2322 97.7793 33.8275 98.0434 33.6706C99.3031 32.921 99.9939 31.858 99.9952 30.3762C100.001 24.0973 100.003 17.8183 99.9926 11.5396C99.9903 10.1022 99.355 8.98799 98.0739 8.35541C97.561 8.10222 97.4558 7.79803 97.4684 7.28981C97.4968 6.14008 97.484 4.98877 97.4757 3.83825C97.459 1.52012 96.086 0.0977393 93.7848 0.035691C92.7765 0.00861067 91.7666 0.020179 90.7578 0.0314844C88.2077 0.0601422 86.8744 1.42862 86.8629 4.0236C86.8571 5.29612 86.8618 6.56863 86.8618 7.87217H13.1358C13.1358 6.43849 13.1543 5.06554 13.1313 3.69312C13.0966 1.60478 11.8288 0.190812 9.7892 0.0611939C8.49264 -0.0210989 7.18277 -0.0192585 5.88568 0.0598793C3.84874 0.183976 2.55061 1.62081 2.52504 3.6755C2.50939 4.92462 2.53704 6.17426 2.50861 7.42285C2.50261 7.68103 2.39904 8.09723 2.23077 8.16585C1.08238 8.6341 0.492539 9.57981 0 10.6315V31.3427C0.507409 32.3794 1.08786 33.3317 2.23755 33.7923C2.40373 33.8588 2.50496 34.2803 2.50887 34.5395C2.53287 36.1793 2.53809 37.8199 2.50391 39.4592C2.49843 39.7242 2.33173 40.1244 2.12642 40.2235C1.01873 40.7585 0.405405 41.674 0 42.7832V46.7283C0.482364 47.3961 1.03204 47.9527 1.94433 47.6143C2.83914 47.2828 2.93958 46.5222 2.93697 45.6793C2.92862 42.9447 2.94114 42.9444 5.66289 42.9444H27.4082C27.0325 43.3554 26.8094 43.617 26.5684 43.8604C20.4724 50.0197 14.3684 56.1712 8.28759 62.3455C7.76818 62.8729 7.26207 63.1632 6.51127 63.0985C5.76828 63.0346 5.01565 63.0859 4.26719 63.0843C2.96567 63.0812 2.93149 63.0499 2.93071 61.7766C2.92862 58.9502 2.91845 56.1241 2.93723 53.298C2.94271 52.4546 2.8394 51.6935 1.94485 51.3635C1.03438 51.0278 0.48106 51.5791 0.000521757 52.2511V63.2973C0.589846 64.0503 1.07143 64.9458 1.80371 65.5095C2.34738 65.9278 2.536 66.2577 2.53417 66.9037C2.51461 73.7742 2.51904 80.645 2.52348 87.5155C2.52504 90.0201 3.89465 91.4146 6.37822 91.4522C7.25686 91.4656 8.13602 91.4575 9.01466 91.4543C11.8348 91.4438 13.135 90.1342 13.1363 87.29C13.1394 80.6166 13.1373 73.9433 13.1373 67.2697V66.0997H86.8681C86.8681 67.5266 86.8446 68.8995 86.8764 70.2711C86.8968 71.1474 87.4754 71.7353 88.2479 71.77C89.0211 71.8047 89.6467 71.2579 89.7602 70.3986C89.8116 70.0103 89.7886 69.6115 89.7899 69.2174C89.7931 68.181 89.791 67.1448 89.791 66.1071H94.4383C94.4884 66.198 94.5165 66.2254 94.5165 66.2527C94.5275 73.3856 94.5338 80.5188 94.5515 87.6517C94.5531 88.2491 94.269 88.4883 93.7232 88.4915C92.812 88.4967 91.8973 88.4471 90.99 88.5086C90.0307 88.5738 89.7628 88.1684 89.7745 87.2408C89.8171 83.8881 89.7985 80.5346 89.7863 77.1816C89.7821 76.0195 89.2283 75.3491 88.329 75.3365C87.4279 75.3239 86.8686 75.9935 86.8657 77.1477C86.8569 80.6653 86.8491 84.1828 86.8676 87.7001C86.8796 89.9717 88.2515 91.3717 90.5097 91.4464C91.4528 91.4774 92.3974 91.4572 93.3413 91.4538C96.1564 91.4443 97.4759 90.121 97.4767 87.3018C97.4783 80.4641 97.4772 73.6262 97.4775 66.7885C97.4775 66.3419 97.4008 65.9309 97.9771 65.6664C99.4004 65.0126 100.001 63.8034 99.9999 62.2511C99.9963 56.0708 99.9968 49.8907 99.9999 43.7103C100.001 42.1935 99.3613 41.0811 98.0507 40.3174L98.0501 40.3176ZM96.0779 10.8902C96.7557 10.876 97.081 11.1166 97.0786 11.8646C97.0604 17.939 97.0622 24.0137 97.0773 30.0881C97.0789 30.7525 96.8433 31.0601 96.1773 31.0593C88.4399 31.0493 80.7022 31.0456 72.9648 31.0367C72.9093 31.0367 72.854 30.9825 72.4843 30.7895C72.8534 30.5382 73.1318 30.4072 73.3361 30.2014C79.5027 23.9845 85.6548 17.7528 91.8417 11.5564C92.2041 11.1936 92.825 10.9819 93.3502 10.9223C94.2491 10.8203 95.1679 10.9091 96.0779 10.8902ZM94.4899 34.0749V39.928H89.8481V34.0749H94.4899ZM89.8304 3.70469C89.8432 3.45623 90.2809 3.04634 90.5454 3.02689C91.6111 2.94801 92.6899 2.94039 93.7542 3.02741C94.0357 3.05055 94.4933 3.49357 94.5095 3.76542C94.5883 5.10025 94.5452 6.44217 94.5452 7.85824H89.797C89.797 6.44033 89.7602 5.06975 89.8306 3.70469H89.8304ZM43.6006 10.8789C49.8176 10.9057 56.0349 10.8941 62.2521 10.8941H63.49C63.1154 11.3059 62.9116 11.5472 62.6904 11.7707C56.5694 17.9555 50.4406 24.1325 44.3345 30.3323C43.8098 30.865 43.2831 31.0777 42.5428 31.0745C36.3258 31.048 30.1085 31.0595 23.8913 31.0595H22.6526C23.0264 30.6504 23.2318 30.4096 23.4535 30.1856C29.5747 24.0008 35.7033 17.8238 41.8094 11.6237C42.3338 11.0913 42.8589 10.876 43.6004 10.8791L43.6006 10.8789ZM5.48497 3.65815C5.49332 3.43467 5.84681 3.04897 6.05682 3.03767C7.2219 2.97431 8.39403 2.96616 9.55859 3.03294C9.78529 3.04608 10.1625 3.46649 10.1735 3.71257C10.2337 5.0779 10.2024 6.44743 10.2024 7.89321H5.4581C5.4581 6.45505 5.43175 5.05502 5.48471 3.65815H5.48497ZM3.82474 10.8931C6.91354 10.902 10.0026 10.8989 13.0914 10.9044C13.1783 10.9044 13.2651 10.9546 13.2388 10.9467C9.81164 14.398 6.36178 17.8725 2.92993 21.3285C2.92993 19.6151 2.92993 17.7586 2.92993 15.9019C2.92993 14.5555 2.95106 13.2086 2.92132 11.863C2.90671 11.1965 3.15898 10.8912 3.82448 10.8931H3.82474ZM10.1591 39.9101H5.5301V34.0973H10.1591V39.9101ZM4.16362 31.0722C3.26698 31.0779 2.84488 30.84 2.91193 29.8407C2.99958 28.5329 2.61687 27.0769 3.0708 25.944C3.51012 24.8476 4.74851 24.0746 5.64463 23.1684C9.48398 19.2859 13.3197 15.3992 17.1812 11.5393C17.4935 11.2272 17.991 10.9241 18.4042 10.9217C24.8458 10.8834 31.2877 10.8949 37.7295 10.8976C37.8506 10.8976 37.9714 10.9278 38.2933 10.9706C37.9599 11.3245 37.7658 11.5393 37.5623 11.7447C31.4205 17.949 25.2721 24.1462 19.1461 30.3662C18.6439 30.8763 18.1449 31.0787 17.4376 31.074C13.0131 31.0443 8.58812 31.0435 4.16336 31.0719L4.16362 31.0722ZM13.2281 39.9075V34.0807C13.6259 34.0602 14.0334 34.021 14.4412 34.0208C28.2717 34.0176 42.1019 34.0181 55.9321 34.0174C56.2897 34.0174 56.6503 34.0316 57.0048 33.9937C57.9437 33.8935 58.4691 33.3135 58.4321 32.4543C58.3971 31.639 57.8709 31.1003 56.9547 31.0772C55.4262 31.0385 53.8962 31.0611 52.3667 31.0598C50.9172 31.0585 49.4678 31.0595 47.8026 31.0595C48.1884 30.6402 48.3966 30.3988 48.6202 30.173C54.7399 23.99 60.8676 17.8154 66.9699 11.615C67.4994 11.0769 68.0306 10.8773 68.7665 10.8805C74.8518 10.9049 80.9373 10.8944 87.0225 10.8944H88.2568C87.856 11.3319 87.6468 11.5759 87.4214 11.8036C81.3015 17.986 75.1742 24.1611 69.0689 30.3586C68.569 30.8658 68.0794 31.1095 67.3648 31.0748C66.1961 31.018 65.0224 31.0517 63.8511 31.0624C62.6794 31.0732 62.0158 31.5833 61.98 32.4748C61.943 33.3995 62.6458 34.01 63.8417 34.0126C69.1461 34.0239 74.4503 34.0181 79.7547 34.0184C81.7397 34.0184 83.7248 34.0184 85.7098 34.0184H86.805V39.9075H13.2281ZM10.2077 67.1324C10.2077 73.8029 10.2084 80.4731 10.2069 87.1435C10.2066 88.4486 10.1654 88.4899 8.91135 88.4952C8.03297 88.4989 7.15433 88.497 6.27595 88.4918C5.7315 88.4886 5.44558 88.2522 5.44688 87.6541C5.4641 80.5243 5.46958 73.3946 5.47975 66.2646C5.47975 66.2362 5.50375 66.2078 5.56323 66.0768H10.2074C10.2074 66.4447 10.2074 66.7885 10.2074 67.1324H10.2077ZM31.7372 63.0625C25.2316 63.0925 18.7261 63.0835 12.2203 63.0804C12.1314 63.0804 12.0424 63.0454 11.7959 62.9939C12.0938 62.6784 12.2892 62.4625 12.4937 62.2559C18.6575 56.03 24.8179 49.8005 30.9994 43.5925C31.3101 43.2804 31.8053 42.9744 32.2161 42.972C38.6891 42.9339 45.1622 42.9457 51.6354 42.9481C51.7312 42.9481 51.8269 42.9733 52.0766 43.0086C51.8512 43.2762 51.6954 43.4897 51.5118 43.6753C45.2809 49.9729 39.0509 56.2714 32.8026 62.5514C32.5362 62.8193 32.0969 63.0607 31.7369 63.0622L31.7372 63.0625ZM56.4619 63.1004C49.8917 63.0743 43.3215 63.0848 36.5 63.0848C36.8647 62.6857 37.0687 62.446 37.2894 62.223C43.4297 56.0187 49.5771 49.8215 55.7038 43.6035C56.1784 43.1219 56.6479 42.9276 57.3197 42.9302C63.6306 42.9547 69.9418 42.9447 76.2527 42.9447H77.3265C76.9657 43.3427 76.7471 43.6033 76.5089 43.8438C70.3918 50.0253 64.2669 56.1985 58.1647 62.3952C57.6638 62.904 57.1687 63.1032 56.4619 63.1004ZM96.2848 63.0825C93.0754 63.083 89.8664 63.0825 86.8141 63.0825C90.2149 59.6477 93.6588 56.1696 97.0679 52.7265C97.0679 55.7795 97.0632 58.9918 97.0724 62.2041C97.0739 62.7638 96.8663 63.0822 96.2848 63.0822V63.0825ZM94.4276 50.8419C90.4458 54.5225 86.7306 58.4983 82.9275 62.3742C82.4345 62.8766 81.9526 63.1061 81.2336 63.1025C75.1147 63.0714 68.9953 63.0848 62.8762 63.0848H61.6688C62.0137 62.7047 62.1971 62.4865 62.3969 62.2845C68.587 56.0308 74.773 49.7726 80.9866 43.5428C81.309 43.2197 81.8678 42.9741 82.3192 42.9699C86.8431 42.9281 91.3677 42.9691 95.8916 42.9252C96.8691 42.9158 96.9865 43.3151 97.1063 44.1917C97.4869 46.9768 96.4825 48.9423 94.4273 50.8419H94.4276Z" fill="#DF1F19"/>
</svg>
