<svg width="100" height="91" viewBox="0 0 100 91" fill="none" xmlns="http://www.w3.org/2000/svg">
<path d="M97.8876 29.5956C93.3407 30.6734 88.7982 31.7698 84.2449 32.8198C83.3666 33.0223 82.8681 33.4716 82.5244 34.2823C80.9969 37.8848 79.3974 41.4579 77.8826 45.0653C77.6106 45.7129 77.2389 45.9465 76.5883 46.0212C74.0416 46.3133 71.5012 46.6565 68.9538 46.9422C68.0838 47.0398 67.4899 47.3722 67.0507 48.1659C65.0532 51.776 63.0019 55.3573 60.9673 58.9473C60.8173 59.2118 60.6461 59.4647 60.4239 59.82C58.5204 56.4761 56.6901 53.2602 54.864 50.0523C57.1216 48.4564 57.2978 47.657 55.9679 45.3067C55.5955 44.6483 55.2264 43.9882 54.8406 43.302C55.0549 43.1705 55.2032 43.0774 55.3534 42.9873C56.8699 42.0767 57.173 40.959 56.3167 39.4119C56.0454 38.9221 55.7625 38.4386 55.4857 37.9518C53.7394 34.8792 51.993 31.8066 50.2522 28.7435C51.8308 27.4488 52.2219 26.2348 51.4402 24.8041C50.2816 22.6836 49.0708 20.5908 47.8605 18.4984C47.3983 17.6997 46.6757 17.4739 45.9845 17.8423C45.2738 18.2209 45.0834 18.9843 45.5456 19.8147C46.4916 21.5144 47.4641 23.1997 48.424 24.8918C48.6654 25.3173 48.9 25.7463 49.1674 26.227C44.357 28.8866 39.638 31.4957 34.8436 34.1463C32.1481 29.4106 29.5009 24.7595 26.8023 20.0184C31.6197 17.3556 36.3567 14.737 41.132 12.0972C41.7524 13.1764 42.2904 14.1569 42.8733 15.1106C43.3182 15.8386 44.0379 16.0357 44.7043 15.6755C45.3626 15.3197 45.5798 14.5899 45.2014 13.8464C44.8677 13.1908 44.4515 12.5751 44.1288 11.9148C43.3397 10.2993 42.2698 9.15573 40.1855 9.60033C39.8748 8.03976 39.5762 6.57584 39.2933 5.10886C39.0634 3.91698 38.7642 2.76683 37.9342 1.80503C37.1025 0.841576 35.985 0.396743 34.8273 0H33.0369C29.2237 2.03652 25.3445 3.96366 21.6185 6.14515C18.7994 7.79577 18.5124 11.7038 20.8648 14.0102C22.2345 15.3532 23.6943 16.6069 25.1347 17.9201C23.9007 19.2532 23.9631 20.6193 24.8721 22.058C25.4215 22.9276 25.8951 23.8437 26.4433 24.8107C25.648 25.2652 24.8773 25.6947 24.1174 26.1424C22.6244 27.0216 22.1713 28.2758 22.9143 29.8017C23.2082 30.4056 22.8449 30.6857 22.5758 31.0268C20.8141 33.2602 19.9877 35.7559 20.3159 38.5927C20.5383 40.5154 21.3791 42.1634 22.5162 43.7162C25.0775 47.2133 24.2408 51.705 20.6091 54.1374C19.7225 54.7312 18.8099 55.2877 17.9079 55.8589C15.1766 57.5888 4.11174 59.3111 1.38804 61.0529C0.89865 61.3657 0.461404 61.7575 0 62.113V63.1717C0.893627 64.0439 1.39904 64.1743 2.24076 63.6432C6.1822 61.1559 18.4789 58.7076 22.3651 56.1388C25.7994 53.8684 27.4364 49.6994 26.3555 45.7746C25.9456 44.2864 25.0881 42.8753 24.2305 41.558C22.4213 38.7794 22.5311 34.9655 24.6243 32.9353C26.2168 34.494 27.026 34.5871 29.0321 33.4466C29.598 33.1248 30.1671 32.8083 30.7895 32.4584C31.2205 33.2095 31.6297 33.919 32.0354 34.6305C33.2142 36.6976 34.1164 37.0647 36.4801 36.3919C37.1003 37.473 37.7244 38.5701 38.3576 39.6623C38.8819 40.5668 39.5975 40.8666 40.3216 40.4991C41.0695 40.1193 41.2193 39.3046 40.6947 38.3671C40.0769 37.2627 39.4447 36.1661 38.785 35.0062C41.8261 33.3255 44.8258 31.6673 47.8724 29.9834C49.9257 33.5909 51.9342 37.1199 53.9776 40.7101C50.9355 42.3918 47.9361 44.0502 44.8964 45.7306C44.3989 44.8656 43.9587 44.0677 43.4861 43.2888C43.0132 42.5097 42.2868 42.2799 41.6029 42.6552C40.909 43.0359 40.7179 43.765 41.1456 44.5601C41.606 45.4163 42.0911 46.26 42.5841 47.0985C43.4423 48.5582 44.6015 48.8734 46.1335 48.0858C46.3083 47.9957 46.4947 47.9272 46.7054 47.8357C47.1393 48.595 47.5918 49.2892 47.9475 50.0287C48.9665 52.1459 50.7303 52.4033 52.3501 51.3894C52.3853 51.3675 52.4582 51.4042 52.5587 51.4215C54.3106 54.4959 55.9849 57.6477 57.8796 60.6656C58.7687 62.0819 58.8631 63.2042 57.8461 64.5173C57.4988 64.9656 57.2177 65.277 56.6181 65.3652C55.0571 65.5946 53.5114 65.922 51.9533 66.1719C51.131 66.3039 50.6255 66.6889 50.3677 67.4977C49.8321 69.1771 49.2542 70.8449 48.6309 72.4943C48.5154 72.7998 48.1355 73.1572 47.8229 73.2183C44.9296 73.7821 42.0308 74.3269 39.1189 74.7866C38.0296 74.9585 37.4443 75.4191 37.1578 76.4853C36.2433 79.8898 35.2246 83.2672 34.3092 86.6717C34.0994 87.452 33.8143 87.7287 32.947 87.724C25.3693 87.6821 9.46274 87.7094 1.88508 87.6856C1.06345 87.683 0.43294 87.8822 0.000239261 88.5819V89.4642C0.434376 90.1618 1.06441 90.3605 1.88604 90.36C25.3088 90.3433 57.0603 90.3466 80.4831 90.3461C80.6919 90.3461 80.9048 90.3638 81.1086 90.3313C81.8506 90.2127 82.3039 89.7952 82.3103 89.0335C82.3165 88.2721 81.8726 87.8414 81.1306 87.7181C80.8689 87.6747 80.5948 87.7004 80.3264 87.7002C76.3879 87.6995 72.4491 87.6997 68.5105 87.6997H67.4806C68.8748 85.9296 70.1325 84.3004 71.4344 82.7064C71.6959 82.3863 72.0913 82.1043 72.4835 81.9662C76.9146 80.4054 81.3851 78.9497 85.7856 77.3104C88.4248 76.3271 91.0722 75.7805 93.8921 75.9955C95.0058 76.0803 96.1319 76.0094 97.2566 76.0094V87.6997H96.2292C93.0068 87.6997 89.7841 87.6969 86.5617 87.7014C85.4973 87.703 84.8888 88.1691 84.8599 88.9784C84.8295 89.8254 85.4614 90.3433 86.5615 90.3447C90.4704 90.3492 94.3791 90.3499 98.288 90.3447C99.5394 90.343 99.9982 89.8826 99.9982 88.6271C100.001 69.4833 100.001 50.3394 99.9982 31.1958C99.9982 29.7352 99.3497 29.2489 97.8876 29.5956ZM22.8451 12.2328C21.5076 10.9652 21.7496 9.05483 23.3709 8.13995C26.444 6.40588 29.5397 4.71023 32.6372 3.01859C33.0173 2.81115 33.4658 2.72557 33.666 2.65721C35.1093 2.63623 36.1646 3.41345 36.4306 4.61876C36.8607 6.56688 37.2443 8.52537 37.6062 10.4869C37.644 10.6918 37.4678 11.0574 37.2826 11.1616C34.2085 12.8943 31.1215 14.6055 28.0182 16.2867C27.8201 16.394 27.3764 16.3157 27.1956 16.158C25.7231 14.8744 24.2621 13.5755 22.8451 12.2328ZM27.0061 31.549C26.4151 30.5384 25.8563 29.5824 25.2545 28.5537C26.1077 28.0681 26.8975 27.6183 27.7584 27.1284C28.3339 28.1331 28.886 29.0968 29.4787 30.1315C28.6616 30.5999 27.8718 31.0527 27.0061 31.549ZM50.6188 49.2822C50.0888 48.3515 49.5853 47.4675 49.0296 46.4915C50.178 45.8539 51.2764 45.2438 52.469 44.5816C53.0041 45.5191 53.5179 46.4194 54.0618 47.3722C52.8921 48.0212 51.7897 48.6325 50.6188 49.2822ZM97.313 32.4469C97.313 35.1616 97.3187 37.7422 97.302 40.3226C97.3006 40.5298 97.1465 40.7377 97.0544 40.9411C97.0317 40.9911 96.9746 41.0267 96.9313 41.0668C96.1137 41.8275 95.2956 42.588 94.4778 43.3485C93.2558 42.8904 92.0297 42.4418 90.8158 41.9633C90.6481 41.8973 90.4771 41.7061 90.4147 41.5349C89.6593 39.4678 88.9231 37.394 88.1851 35.3207C88.1184 35.1328 88.0739 34.9374 87.9983 34.6729C91.0966 33.9322 94.1485 33.2033 97.313 32.4469ZM50.4167 79.5933C49.6219 82.0812 48.8959 84.5904 48.1044 87.0795C48.025 87.3294 47.672 87.67 47.4426 87.6726C43.9293 87.7103 40.4158 87.699 36.7832 87.699C37.7447 84.3268 38.6597 81.0815 39.6145 77.8476C39.682 77.619 40.0199 77.358 40.2716 77.3092C42.2856 76.9181 44.3049 76.5452 46.3339 76.2416C46.7322 76.1819 47.2522 76.3455 47.5914 76.5806C48.4419 77.1701 49.2064 77.879 50.0352 78.5011C50.4373 78.8028 50.5856 79.0645 50.4167 79.5933ZM70.498 70.9422C70.9149 73.6119 71.294 76.2875 71.6846 78.9613C71.7011 79.0749 71.6868 79.1932 71.6868 79.4205C70.0263 79.6286 69.3585 81.0348 68.4495 82.1628C67.0962 83.8422 65.7794 85.5505 64.421 87.2259C64.2428 87.4456 63.9118 87.6771 63.6499 87.6788C59.3874 87.7068 55.1248 87.6986 50.7466 87.6986C51.606 84.8676 52.4257 82.1722 53.2423 79.4759C53.637 78.1727 53.5509 77.9136 52.4793 77.0589C51.8304 76.5414 51.185 76.0193 50.5406 75.4964C50.4973 75.4613 50.4734 75.4028 50.4782 75.4094C51.1721 73.408 51.8684 71.45 52.5233 69.4786C52.6974 68.9543 52.9156 68.6679 53.5341 68.5851C54.949 68.3963 56.3406 68.038 57.7561 67.8567C58.7823 67.7254 59.4676 67.2805 59.8656 66.3489C59.9998 66.0345 60.2119 65.7525 60.4674 65.3228C61.3433 66.8584 62.1525 68.2772 62.962 69.6959C63.1519 70.0285 63.3262 70.3711 63.5374 70.69C64.002 71.3918 64.7286 71.594 65.3828 71.2249C66.0255 70.8623 66.2375 70.1247 65.8502 69.3819C65.4149 68.5469 64.9276 67.7381 64.4615 66.9187C63.7331 65.6382 62.9914 64.365 62.2867 63.0717C62.1652 62.8487 62.0779 62.477 62.1831 62.2849C63.3707 60.1177 64.599 57.9723 65.8583 55.7463C67.7262 57.7071 69.5754 59.5748 71.3301 61.5251C72.096 62.3761 72.9112 62.7601 74.0579 62.642C74.9011 62.5552 75.7607 62.625 76.8065 62.625C76.0487 63.4513 75.4005 64.1592 74.7513 64.8661C73.5506 66.1735 72.379 67.5085 71.1361 68.7756C70.5049 69.4194 70.3664 70.0999 70.498 70.9422ZM97.2429 73.3623C94.9079 73.3623 92.616 73.3328 90.3257 73.3795C89.5976 73.3944 88.8415 73.5181 88.1531 73.7506C83.8706 75.1954 79.6041 76.6862 75.3314 78.1583C75.0309 78.2618 74.7219 78.3406 74.3268 78.4572C74.0503 76.5895 73.9206 74.7635 73.4819 73.0125C73.0222 71.1773 73.5446 69.8932 74.8848 68.6056C76.7397 66.8235 78.3828 64.8284 80.1521 62.9569C80.398 62.6967 80.8405 62.4954 81.2007 62.4812C83.5852 62.3869 85.974 62.3874 88.3571 62.2731C89.0381 62.2405 89.7741 62.0522 90.3663 61.7259C92.6511 60.4678 94.8878 59.1253 97.2429 57.7557V73.3623ZM96.7191 54.9952C94.2193 56.4259 91.7398 57.8912 89.2398 59.3212C88.9223 59.5027 88.526 59.6312 88.1622 59.6413C83.5699 59.7672 78.9769 59.8565 74.3846 59.9852C73.7922 60.0017 73.3944 59.8252 72.9983 59.3999C71.1046 57.3665 69.1798 55.3615 67.2363 53.3151C67.8257 52.2689 68.4062 51.3406 68.8789 50.3618C69.1757 49.747 69.6079 49.5257 70.2502 49.4509C72.7665 49.1584 75.2747 48.7947 77.7941 48.5377C78.8953 48.4253 79.5512 47.9972 79.9861 46.9505C81.4753 43.3652 83.0564 39.8169 84.6056 36.2556C84.7427 35.9407 84.9017 35.6352 85.1598 35.0979C85.3794 35.576 85.5236 35.8382 85.6234 36.1161C86.4276 38.3575 87.2406 40.596 88.0117 42.8485C88.2612 43.5771 88.6846 44.0349 89.4275 44.2956C90.8856 44.8074 92.344 45.3315 93.7583 45.9481C94.7809 46.3942 95.5975 46.3185 96.2866 45.4314C96.5361 45.1103 96.7619 44.7714 96.9985 44.4404L97.285 44.6509C97.2946 44.843 97.3123 45.0349 97.3123 45.227C97.314 48.1379 97.2998 51.0488 97.3264 53.9594C97.3309 54.4697 97.1542 54.746 96.7191 54.9952Z" fill="#DF1F19"/>
<path d="M42.1356 19.2714C42.1593 17.9819 41.0774 17.3398 40.1022 17.8652C37.4957 19.27 34.9084 20.7098 32.3296 22.1636C31.5896 22.5809 31.4095 23.322 31.791 23.9679C32.1711 24.611 32.9061 24.8406 33.6454 24.4394C36.2479 23.0273 38.841 21.5971 41.4101 20.1273C41.7749 19.9187 41.9878 19.4527 42.1356 19.2714Z" fill="#DF1F19"/>
<path d="M37.9901 27.2034C39.195 26.5733 40.3974 25.9326 41.5508 25.2178C41.9321 24.9814 42.1588 24.5023 42.3222 24.2998C42.2906 23.038 41.2635 22.4423 40.3122 22.9255C39.0739 23.5545 37.8619 24.2367 36.66 24.9316C35.9166 25.3614 35.7118 26.0745 36.0706 26.7216C36.4471 27.4007 37.1979 27.6178 37.9901 27.2034Z" fill="#DF1F19"/>
</svg>
