<svg width="88" height="120" viewBox="0 0 88 120" fill="none" xmlns="http://www.w3.org/2000/svg">
<path d="M85.2454 37.4134C83.5244 35.289 81.7848 33.179 80.0267 31.0846C79.062 29.9357 78.5401 28.6271 78.4025 27.1488C78.153 24.4675 77.8985 21.7864 77.6537 19.1044C77.2005 14.1368 73.695 10.5586 68.7704 10.0608C66.3215 9.81316 63.8736 9.53642 61.4187 9.36768C59.3118 9.22273 57.4989 8.55028 55.9039 7.12023C54.1311 5.53083 52.2454 4.06571 50.3949 2.56428C46.1404 -0.887514 41.3928 -0.849947 37.167 2.64974C35.2112 4.26982 33.2425 5.87425 31.2929 7.50185C30.1216 8.47984 28.825 9.09501 27.2766 9.22868C24.3958 9.47725 21.521 9.79281 18.6437 10.0799C14.1521 10.5282 10.5367 14.149 10.0897 18.6583C9.83927 21.1828 9.54527 23.7052 9.37696 26.2353C9.2334 28.3901 8.50091 30.2149 7.04719 31.835C5.4048 33.6651 3.87806 35.6002 2.33596 37.5177C-0.793378 41.409 -0.775826 46.2148 2.372 50.0882C4.09652 52.2102 5.83922 54.3173 7.58975 56.418C8.51532 57.529 9.0933 58.7622 9.22526 60.221C9.47475 62.9806 9.75214 65.7384 10.0549 68.4927C10.6448 73.8582 14.2321 77.2389 19.6325 77.5967C21.0941 77.6935 22.5487 77.8907 24.1125 78.0529C23.8852 78.6067 23.7266 79.0014 23.5624 79.394C19.542 88.9971 15.5253 98.6021 11.4936 108.2C11.0683 109.213 10.9636 110.165 11.7352 111.042C12.5072 111.921 13.4654 111.95 14.5245 111.647C17.788 110.711 21.0675 109.83 24.3234 108.869C25.0669 108.649 25.438 108.78 25.805 109.466C27.3133 112.288 28.846 115.097 30.4404 117.87C30.8896 118.651 31.5804 119.293 32.1602 119.999H33.5679C34.1844 119.287 35.0313 118.672 35.382 117.847C39.667 107.768 43.8667 97.6519 48.1363 87.5658C48.4479 86.8295 49.0409 86.1464 49.6568 85.6164C51.6687 83.8849 53.7518 82.2353 55.8079 80.5548C56.201 80.2336 56.5853 79.9002 56.9921 79.5978C59.168 77.9806 59.7121 78.1171 60.7179 80.5185C64.3017 89.0748 67.8855 97.6313 71.4675 106.188C71.6414 106.605 71.7969 107.028 72.0269 107.618C69.2856 106.854 66.7033 106.136 64.1215 105.417C61.468 104.677 60.1669 105.226 58.8254 107.654C57.5472 109.967 56.2684 112.28 54.8711 114.808C54.5282 114.026 54.2668 113.45 54.0226 112.867C52.4407 109.092 50.856 105.319 49.2876 101.539C48.9127 100.635 48.3877 99.9789 47.3016 100.061C45.9984 100.159 45.3787 101.366 45.9579 102.781C47.0945 105.559 48.2676 108.322 49.4258 111.091C50.3586 113.32 51.2293 115.578 52.2558 117.764C52.6463 118.595 53.3948 119.26 53.98 120H55.3876C55.9772 119.353 56.7034 118.784 57.1322 118.044C58.7549 115.242 60.3064 112.398 61.8253 109.538C62.2102 108.814 62.5744 108.641 63.3761 108.88C66.6672 109.859 69.9815 110.761 73.2873 111.691C74.3053 111.978 75.2381 111.871 75.9584 111.023C76.6379 110.224 76.6636 109.326 76.2539 108.39C76.1602 108.176 76.0775 107.957 75.9869 107.741C72.0348 98.3203 68.0817 88.9001 64.1325 79.4782C63.9472 79.0359 63.7943 78.5801 63.5896 78.0328C65.2919 77.8697 66.8434 77.7063 68.3977 77.5745C73.4449 77.1466 77.0385 73.722 77.624 68.7184C77.8462 66.8194 78.0903 64.9128 78.133 63.0054C78.2051 59.7818 79.1541 57.005 81.4817 54.6708C82.8549 53.2936 84.0077 51.6945 85.2382 50.1778C88.4691 46.1963 88.4754 41.3996 85.2464 37.414L85.2454 37.4134ZM32.8156 114.839C31.3512 112.188 30.0383 109.799 28.7131 107.417C27.5264 105.284 26.1065 104.695 23.7392 105.355C21.1179 106.086 18.5007 106.831 15.7143 107.617C15.8381 107.204 15.8951 106.923 16.0036 106.663C19.81 97.5734 23.6335 88.4903 27.4114 79.3884C27.764 78.5384 28.1705 78.2698 28.966 78.6937C29.6838 79.0759 30.4335 79.4294 31.0739 79.92C32.4364 80.9637 33.7487 82.0741 35.0608 83.182C37.6927 85.4044 40.2484 87.7668 44.2676 87.5001C40.417 96.6921 36.6655 105.648 32.8156 114.839ZM82.4085 48.0008C81.1275 49.5767 79.9324 51.24 78.5147 52.6835C75.8016 55.4459 74.7253 58.7575 74.6031 62.5358C74.5351 64.6367 74.284 66.7405 73.9768 68.8223C73.5703 71.5782 71.6583 73.5063 68.8898 73.8873C66.1055 74.2705 63.3003 74.5285 60.4966 74.7398C58.0684 74.9226 55.9606 75.7503 54.1054 77.325C52.021 79.0944 49.8862 80.8044 47.7756 82.5431C46.6152 83.4992 45.2931 83.9944 43.6959 83.9606C42.2619 83.9916 40.963 83.424 39.8096 82.4773C38.1487 81.1143 36.3969 79.8448 34.8548 78.3581C32.1681 75.7679 28.9792 74.6734 25.3173 74.531C23.0966 74.4446 20.8728 74.1982 18.6734 73.8695C15.8306 73.4443 13.8854 71.2357 13.609 68.3731C13.3278 65.4601 13.0206 62.5492 12.7395 59.6362C12.5499 57.6712 11.8017 55.9462 10.5548 54.4291C8.79397 52.2869 7.02714 50.1499 5.26344 48.0101C3.01047 45.2768 2.98978 42.3482 5.223 39.6092C6.80272 37.672 8.35265 35.7075 10.007 33.8355C11.7913 31.8162 12.6931 29.4961 12.8924 26.8345C13.0846 24.2665 13.3695 21.7057 13.6146 19.1417C13.902 16.1335 16.1647 13.8873 19.179 13.5959C22.0958 13.3141 25.0102 13.007 27.927 12.7299C29.98 12.5349 31.7578 11.7256 33.334 10.4224C35.4717 8.65516 37.609 6.88762 39.7617 5.13856C42.35 3.03543 45.3076 3.0251 47.8975 5.11978C49.8718 6.71638 51.8596 8.30015 53.7662 9.97501C55.7873 11.7501 58.0988 12.6798 60.7687 12.8758C63.3395 13.0646 65.9031 13.3545 68.4701 13.5962C71.3314 13.8657 73.5578 15.8161 73.9568 18.6665C74.362 21.5623 74.5934 24.4837 74.8516 27.3983C75.0397 29.5193 75.7126 31.4299 77.0714 33.0819C78.8329 35.2236 80.6 37.3605 82.364 39.5003C84.6734 42.3018 84.6938 45.1892 82.4085 48.0008ZM71.6377 43.8148C71.6145 60.2154 57.4319 73.053 41.1019 71.4552C28.9096 70.2621 18.711 60.9486 16.4879 48.9772C14.2098 36.7106 20.3215 24.4152 31.4421 18.8931C31.6866 18.7717 31.9317 18.6499 32.1828 18.5422C33.3626 18.0363 34.3016 18.314 34.7718 19.3023C35.2266 20.2584 34.8498 21.2132 33.6826 21.7658C30.7131 23.1711 28.0514 25.0081 25.9075 27.4932C19.6476 34.749 17.8002 43.035 21.0966 52.0367C24.3858 61.0181 31.0525 66.4259 40.57 67.7298C56.0471 69.8501 69.1396 57.3666 68.0278 41.8166C67.0897 28.6985 55.1272 18.5027 42.0096 19.6392C41.5814 19.6764 41.1517 19.7155 40.7226 19.7202C39.5526 19.7334 38.7728 19.0669 38.7345 18.0422C38.6982 17.0642 39.3733 16.337 40.4694 16.1968C43.762 15.7747 47.0264 15.9735 50.2489 16.7365C62.7982 19.7077 71.6562 30.9331 71.6377 43.8148Z" fill="#215384"/>
<path d="M52.7947 35.6829C48.4016 40.0701 44.0101 44.4589 39.6157 48.8448C38.1106 50.3472 37.4392 50.3406 35.9093 48.8173C34.4428 47.3572 32.99 45.883 31.51 44.4366C30.5615 43.5097 29.509 43.4489 28.7047 44.2197C27.8895 45.0011 27.9349 46.1491 28.8849 47.108C31.331 49.5764 33.7864 52.0362 36.271 54.4658C36.6638 54.8499 37.2267 55.0606 37.8385 55.4282C38.4732 54.9795 39.0948 54.6577 39.5687 54.1872C44.9174 48.878 50.2433 43.546 55.5749 38.2199C55.7407 38.0543 55.9124 37.8934 56.0641 37.7156C56.7863 36.8691 56.7966 35.7925 56.0974 35.0743C55.3636 34.3208 54.3415 34.2976 53.4654 35.0289C53.2263 35.2283 53.0157 35.4622 52.7947 35.6829Z" fill="#DF1F19"/>
</svg>
