<svg width="2872" height="19" viewBox="0 0 2872 19" fill="none" xmlns="http://www.w3.org/2000/svg">
<path d="M13.3897 0H25.5621L12.1724 19H0L13.3897 0Z" fill="#F0F0F0"/>
<path d="M558.715 0H570.888L557.498 19H545.325L558.715 0Z" fill="#F0F0F0"/>
<path d="M286.052 0H298.225L284.835 19H272.663L286.052 0Z" fill="#F0F0F0"/>
<path d="M831.378 0H843.55L830.161 19H817.988L831.378 0Z" fill="#F0F0F0"/>
<path d="M1172.21 0H1184.38L1170.99 19H1158.82L1172.21 0Z" fill="#F0F0F0"/>
<path d="M149.721 0H161.893L148.504 19H136.331L149.721 0Z" fill="#F0F0F0"/>
<path d="M695.046 0H707.219L693.829 19H681.657L695.046 0Z" fill="#F0F0F0"/>
<path d="M422.384 0H434.556L421.167 19H408.994L422.384 0Z" fill="#F0F0F0"/>
<path d="M967.709 0H979.882L966.492 19H954.32L967.709 0Z" fill="#F0F0F0"/>
<path d="M1308.54 0H1320.71L1307.32 19H1295.15L1308.54 0Z" fill="#F0F0F0"/>
<path d="M81.5554 0H93.7278L80.3381 19H68.1657L81.5554 0Z" fill="#F0F0F0"/>
<path d="M626.881 0H639.053L625.664 19H613.491L626.881 0Z" fill="#F0F0F0"/>
<path d="M354.218 0H366.391L353.001 19H340.828L354.218 0Z" fill="#F0F0F0"/>
<path d="M899.544 0H911.716L898.326 19H886.154L899.544 0Z" fill="#F0F0F0"/>
<path d="M1240.37 0H1252.54L1239.15 19H1226.98L1240.37 0Z" fill="#F0F0F0"/>
<path d="M217.887 0H230.059L216.669 19H204.497L217.887 0Z" fill="#F0F0F0"/>
<path d="M763.212 0H775.385L761.995 19H749.822L763.212 0Z" fill="#F0F0F0"/>
<path d="M1104.04 0H1116.21L1102.82 19H1090.65L1104.04 0Z" fill="#F0F0F0"/>
<path d="M490.549 0H502.722L489.332 19H477.16L490.549 0Z" fill="#F0F0F0"/>
<path d="M1035.87 0H1048.05L1034.66 19H1022.49L1035.87 0Z" fill="#F0F0F0"/>
<path d="M1376.7 0H1388.88L1375.49 19H1363.31L1376.7 0Z" fill="#F0F0F0"/>
<path d="M47.4725 0H59.645L46.2553 19H34.0828L47.4725 0Z" fill="#F0F0F0"/>
<path d="M592.798 0H604.97L591.581 19H579.408L592.798 0Z" fill="#F0F0F0"/>
<path d="M320.135 0H332.308L318.918 19H306.746L320.135 0Z" fill="#F0F0F0"/>
<path d="M865.461 0H877.633L864.243 19H852.071L865.461 0Z" fill="#F0F0F0"/>
<path d="M1206.29 0H1218.46L1205.07 19H1192.9L1206.29 0Z" fill="#F0F0F0"/>
<path d="M183.804 0H195.976L182.587 19H170.414L183.804 0Z" fill="#F0F0F0"/>
<path d="M729.129 0H741.302L727.912 19H715.74L729.129 0Z" fill="#F0F0F0"/>
<path d="M456.467 0H468.639L455.249 19H443.077L456.467 0Z" fill="#F0F0F0"/>
<path d="M1001.79 0H1013.96L1000.57 19H988.402L1001.79 0Z" fill="#F0F0F0"/>
<path d="M1342.62 0H1354.79L1341.4 19H1329.23L1342.62 0Z" fill="#F0F0F0"/>
<path d="M115.638 0H127.811L114.421 19H102.249L115.638 0Z" fill="#F0F0F0"/>
<path d="M660.964 0H673.136L659.746 19H647.574L660.964 0Z" fill="#F0F0F0"/>
<path d="M388.301 0H400.473L387.084 19H374.911L388.301 0Z" fill="#F0F0F0"/>
<path d="M933.626 0H945.799L932.409 19H920.237L933.626 0Z" fill="#F0F0F0"/>
<path d="M1274.45 0H1286.63L1273.24 19H1261.07L1274.45 0Z" fill="#F0F0F0"/>
<path d="M251.97 0H264.142L250.752 19H238.58L251.97 0Z" fill="#F0F0F0"/>
<path d="M797.295 0H809.467L796.078 19H783.905L797.295 0Z" fill="#F0F0F0"/>
<path d="M1138.12 0H1150.3L1136.91 19H1124.73L1138.12 0Z" fill="#F0F0F0"/>
<path d="M524.632 0H536.805L523.415 19H511.243L524.632 0Z" fill="#F0F0F0"/>
<path d="M1069.96 0H1082.13L1068.74 19H1056.57L1069.96 0Z" fill="#F0F0F0"/>
<path d="M1410.79 0H1422.96L1409.57 19H1397.4L1410.79 0Z" fill="#F0F0F0"/>
<path d="M30.4311 0H42.6035L29.2139 19H17.0414L30.4311 0Z" fill="#F0F0F0"/>
<path d="M575.757 0H587.929L574.539 19H562.367L575.757 0Z" fill="#F0F0F0"/>
<path d="M303.094 0H315.266L301.877 19H289.704L303.094 0Z" fill="#F0F0F0"/>
<path d="M848.419 0H860.592L847.202 19H835.03L848.419 0Z" fill="#F0F0F0"/>
<path d="M1189.25 0H1201.42L1188.03 19H1175.86L1189.25 0Z" fill="#F0F0F0"/>
<path d="M166.762 0H178.935L165.545 19H153.373L166.762 0Z" fill="#F0F0F0"/>
<path d="M712.088 0H724.26L710.871 19H698.698L712.088 0Z" fill="#F0F0F0"/>
<path d="M439.425 0H451.598L438.208 19H426.035L439.425 0Z" fill="#F0F0F0"/>
<path d="M984.751 0H996.923L983.533 19H971.361L984.751 0Z" fill="#F0F0F0"/>
<path d="M1325.58 0H1337.75L1324.36 19H1312.19L1325.58 0Z" fill="#F0F0F0"/>
<path d="M98.5968 0H110.769L97.3795 19H85.2071L98.5968 0Z" fill="#F0F0F0"/>
<path d="M643.922 0H656.095L642.705 19H630.533L643.922 0Z" fill="#F0F0F0"/>
<path d="M371.26 0H383.432L370.042 19H357.87L371.26 0Z" fill="#F0F0F0"/>
<path d="M916.585 0H928.757L915.368 19H903.195L916.585 0Z" fill="#F0F0F0"/>
<path d="M1257.41 0H1269.59L1256.2 19H1244.02L1257.41 0Z" fill="#F0F0F0"/>
<path d="M234.928 0H247.101L233.711 19H221.538L234.928 0Z" fill="#F0F0F0"/>
<path d="M780.254 0H792.426L779.036 19H766.864L780.254 0Z" fill="#F0F0F0"/>
<path d="M1121.08 0H1133.25L1119.86 19H1107.69L1121.08 0Z" fill="#F0F0F0"/>
<path d="M507.591 0H519.763L506.374 19H494.201L507.591 0Z" fill="#F0F0F0"/>
<path d="M1052.92 0H1065.09L1051.7 19H1039.53L1052.92 0Z" fill="#F0F0F0"/>
<path d="M1393.74 0H1405.92L1392.53 19H1380.35L1393.74 0Z" fill="#F0F0F0"/>
<path d="M64.5139 0H76.6864L63.2967 19H51.1243L64.5139 0Z" fill="#F0F0F0"/>
<path d="M609.839 0H622.012L608.622 19H596.45L609.839 0Z" fill="#F0F0F0"/>
<path d="M337.177 0H349.349L335.959 19H323.787L337.177 0Z" fill="#F0F0F0"/>
<path d="M882.502 0H894.675L881.285 19H869.112L882.502 0Z" fill="#F0F0F0"/>
<path d="M1223.33 0H1235.5L1222.11 19H1209.94L1223.33 0Z" fill="#F0F0F0"/>
<path d="M200.845 0H213.018L199.628 19H187.456L200.845 0Z" fill="#F0F0F0"/>
<path d="M746.171 0H758.343L744.953 19H732.781L746.171 0Z" fill="#F0F0F0"/>
<path d="M473.508 0H485.68L472.291 19H460.118L473.508 0Z" fill="#F0F0F0"/>
<path d="M1018.83 0H1031.01L1017.62 19H1005.44L1018.83 0Z" fill="#F0F0F0"/>
<path d="M1359.66 0H1371.83L1358.44 19H1346.27L1359.66 0Z" fill="#F0F0F0"/>
<path d="M132.68 0H144.852L131.462 19H119.29L132.68 0Z" fill="#F0F0F0"/>
<path d="M678.005 0H690.177L676.788 19H664.615L678.005 0Z" fill="#F0F0F0"/>
<path d="M405.342 0H417.515L404.125 19H391.953L405.342 0Z" fill="#F0F0F0"/>
<path d="M950.668 0H962.84L949.451 19H937.278L950.668 0Z" fill="#F0F0F0"/>
<path d="M1291.5 0H1303.67L1290.28 19H1278.11L1291.5 0Z" fill="#F0F0F0"/>
<path d="M269.011 0H281.183L267.794 19H255.621L269.011 0Z" fill="#F0F0F0"/>
<path d="M814.336 0H826.509L813.119 19H800.947L814.336 0Z" fill="#F0F0F0"/>
<path d="M1155.16 0H1167.34L1153.95 19H1141.78L1155.16 0Z" fill="#F0F0F0"/>
<path d="M541.674 0H553.846L540.456 19H528.284L541.674 0Z" fill="#F0F0F0"/>
<path d="M1087 0H1099.17L1085.78 19H1073.61L1087 0Z" fill="#F0F0F0"/>
<path d="M1427.83 0H1440L1426.61 19H1414.44L1427.83 0Z" fill="#F0F0F0"/>
<path d="M1445.39 0H1457.56L1444.17 19H1432L1445.39 0Z" fill="#F0F0F0"/>
<path d="M1990.72 0H2002.89L1989.5 19H1977.33L1990.72 0Z" fill="#F0F0F0"/>
<path d="M1718.05 0H1730.22L1716.84 19H1704.66L1718.05 0Z" fill="#F0F0F0"/>
<path d="M2263.38 0H2275.55L2262.16 19H2249.99L2263.38 0Z" fill="#F0F0F0"/>
<path d="M2604.21 0H2616.38L2602.99 19H2590.82L2604.21 0Z" fill="#F0F0F0"/>
<path d="M1581.72 0H1593.89L1580.5 19H1568.33L1581.72 0Z" fill="#F0F0F0"/>
<path d="M2127.05 0H2139.22L2125.83 19H2113.66L2127.05 0Z" fill="#F0F0F0"/>
<path d="M1854.38 0H1866.56L1853.17 19H1840.99L1854.38 0Z" fill="#F0F0F0"/>
<path d="M2399.71 0H2411.88L2398.49 19H2386.32L2399.71 0Z" fill="#F0F0F0"/>
<path d="M2740.54 0H2752.71L2739.32 19H2727.15L2740.54 0Z" fill="#F0F0F0"/>
<path d="M1513.56 0H1525.73L1512.34 19H1500.17L1513.56 0Z" fill="#F0F0F0"/>
<path d="M2058.88 0H2071.05L2057.66 19H2045.49L2058.88 0Z" fill="#F0F0F0"/>
<path d="M1786.22 0H1798.39L1785 19H1772.83L1786.22 0Z" fill="#F0F0F0"/>
<path d="M2331.54 0H2343.72L2330.33 19H2318.15L2331.54 0Z" fill="#F0F0F0"/>
<path d="M2672.37 0H2684.54L2671.15 19H2658.98L2672.37 0Z" fill="#F0F0F0"/>
<path d="M1649.89 0H1662.06L1648.67 19H1636.5L1649.89 0Z" fill="#F0F0F0"/>
<path d="M2195.21 0H2207.38L2193.99 19H2181.82L2195.21 0Z" fill="#F0F0F0"/>
<path d="M2536.04 0H2548.21L2534.82 19H2522.65L2536.04 0Z" fill="#F0F0F0"/>
<path d="M1922.55 0H1934.72L1921.33 19H1909.16L1922.55 0Z" fill="#F0F0F0"/>
<path d="M2467.87 0H2480.05L2466.66 19H2454.49L2467.87 0Z" fill="#F0F0F0"/>
<path d="M2808.7 0H2820.88L2807.49 19H2795.31L2808.7 0Z" fill="#F0F0F0"/>
<path d="M1479.47 0H1491.64L1478.26 19H1466.08L1479.47 0Z" fill="#F0F0F0"/>
<path d="M2024.8 0H2036.97L2023.58 19H2011.41L2024.8 0Z" fill="#F0F0F0"/>
<path d="M1752.14 0H1764.31L1750.92 19H1738.75L1752.14 0Z" fill="#F0F0F0"/>
<path d="M2297.46 0H2309.63L2296.24 19H2284.07L2297.46 0Z" fill="#F0F0F0"/>
<path d="M2638.29 0H2650.46L2637.07 19H2624.9L2638.29 0Z" fill="#F0F0F0"/>
<path d="M1615.8 0H1627.98L1614.59 19H1602.41L1615.8 0Z" fill="#F0F0F0"/>
<path d="M2161.13 0H2173.3L2159.91 19H2147.74L2161.13 0Z" fill="#F0F0F0"/>
<path d="M1888.47 0H1900.64L1887.25 19H1875.08L1888.47 0Z" fill="#F0F0F0"/>
<path d="M2433.79 0H2445.96L2432.57 19H2420.4L2433.79 0Z" fill="#F0F0F0"/>
<path d="M2774.62 0H2786.79L2773.4 19H2761.23L2774.62 0Z" fill="#F0F0F0"/>
<path d="M1547.64 0H1559.81L1546.42 19H1534.25L1547.64 0Z" fill="#F0F0F0"/>
<path d="M2092.96 0H2105.14L2091.75 19H2079.57L2092.96 0Z" fill="#F0F0F0"/>
<path d="M1820.3 0H1832.47L1819.08 19H1806.91L1820.3 0Z" fill="#F0F0F0"/>
<path d="M2365.63 0H2377.8L2364.41 19H2352.24L2365.63 0Z" fill="#F0F0F0"/>
<path d="M2706.45 0H2718.63L2705.24 19H2693.07L2706.45 0Z" fill="#F0F0F0"/>
<path d="M1683.97 0H1696.14L1682.75 19H1670.58L1683.97 0Z" fill="#F0F0F0"/>
<path d="M2229.29 0H2241.47L2228.08 19H2215.91L2229.29 0Z" fill="#F0F0F0"/>
<path d="M2570.12 0H2582.3L2568.91 19H2556.73L2570.12 0Z" fill="#F0F0F0"/>
<path d="M1956.63 0H1968.8L1955.42 19H1943.24L1956.63 0Z" fill="#F0F0F0"/>
<path d="M2501.96 0H2514.13L2500.74 19H2488.57L2501.96 0Z" fill="#F0F0F0"/>
<path d="M2842.79 0H2854.96L2841.57 19H2829.4L2842.79 0Z" fill="#F0F0F0"/>
<path d="M1462.43 0H1474.6L1461.21 19H1449.04L1462.43 0Z" fill="#F0F0F0"/>
<path d="M2007.76 0H2019.93L2006.54 19H1994.37L2007.76 0Z" fill="#F0F0F0"/>
<path d="M1735.09 0H1747.27L1733.88 19H1721.7L1735.09 0Z" fill="#F0F0F0"/>
<path d="M2280.42 0H2292.59L2279.2 19H2267.03L2280.42 0Z" fill="#F0F0F0"/>
<path d="M2621.25 0H2633.42L2620.03 19H2607.86L2621.25 0Z" fill="#F0F0F0"/>
<path d="M1598.76 0H1610.93L1597.55 19H1585.37L1598.76 0Z" fill="#F0F0F0"/>
<path d="M2144.09 0H2156.26L2142.87 19H2130.7L2144.09 0Z" fill="#F0F0F0"/>
<path d="M1871.43 0H1883.6L1870.21 19H1858.04L1871.43 0Z" fill="#F0F0F0"/>
<path d="M2416.75 0H2428.92L2415.53 19H2403.36L2416.75 0Z" fill="#F0F0F0"/>
<path d="M2757.58 0H2769.75L2756.36 19H2744.19L2757.58 0Z" fill="#F0F0F0"/>
<path d="M1530.6 0H1542.77L1529.38 19H1517.21L1530.6 0Z" fill="#F0F0F0"/>
<path d="M2075.92 0H2088.09L2074.7 19H2062.53L2075.92 0Z" fill="#F0F0F0"/>
<path d="M1803.26 0H1815.43L1802.04 19H1789.87L1803.26 0Z" fill="#F0F0F0"/>
<path d="M2348.58 0H2360.76L2347.37 19H2335.2L2348.58 0Z" fill="#F0F0F0"/>
<path d="M2689.41 0H2701.59L2688.2 19H2676.02L2689.41 0Z" fill="#F0F0F0"/>
<path d="M1666.93 0H1679.1L1665.71 19H1653.54L1666.93 0Z" fill="#F0F0F0"/>
<path d="M2212.25 0H2224.43L2211.04 19H2198.86L2212.25 0Z" fill="#F0F0F0"/>
<path d="M2553.08 0H2565.25L2551.86 19H2539.69L2553.08 0Z" fill="#F0F0F0"/>
<path d="M1939.59 0H1951.76L1938.37 19H1926.2L1939.59 0Z" fill="#F0F0F0"/>
<path d="M2484.92 0H2497.09L2483.7 19H2471.53L2484.92 0Z" fill="#F0F0F0"/>
<path d="M2825.74 0H2837.92L2824.53 19H2812.35L2825.74 0Z" fill="#F0F0F0"/>
<path d="M1496.51 0H1508.69L1495.3 19H1483.12L1496.51 0Z" fill="#F0F0F0"/>
<path d="M2041.84 0H2054.01L2040.62 19H2028.45L2041.84 0Z" fill="#F0F0F0"/>
<path d="M1769.18 0H1781.35L1767.96 19H1755.79L1769.18 0Z" fill="#F0F0F0"/>
<path d="M2314.5 0H2326.67L2313.28 19H2301.11L2314.5 0Z" fill="#F0F0F0"/>
<path d="M2655.33 0H2667.5L2654.11 19H2641.94L2655.33 0Z" fill="#F0F0F0"/>
<path d="M1632.85 0H1645.02L1631.63 19H1619.46L1632.85 0Z" fill="#F0F0F0"/>
<path d="M2178.17 0H2190.34L2176.95 19H2164.78L2178.17 0Z" fill="#F0F0F0"/>
<path d="M1905.51 0H1917.68L1904.29 19H1892.12L1905.51 0Z" fill="#F0F0F0"/>
<path d="M2450.83 0H2463.01L2449.62 19H2437.44L2450.83 0Z" fill="#F0F0F0"/>
<path d="M2791.66 0H2803.83L2790.44 19H2778.27L2791.66 0Z" fill="#F0F0F0"/>
<path d="M1564.68 0H1576.85L1563.46 19H1551.29L1564.68 0Z" fill="#F0F0F0"/>
<path d="M2110.01 0H2122.18L2108.79 19H2096.62L2110.01 0Z" fill="#F0F0F0"/>
<path d="M1837.34 0H1849.51L1836.13 19H1823.95L1837.34 0Z" fill="#F0F0F0"/>
<path d="M2382.67 0H2394.84L2381.45 19H2369.28L2382.67 0Z" fill="#F0F0F0"/>
<path d="M2723.5 0H2735.67L2722.28 19H2710.11L2723.5 0Z" fill="#F0F0F0"/>
<path d="M1701.01 0H1713.18L1699.79 19H1687.62L1701.01 0Z" fill="#F0F0F0"/>
<path d="M2246.34 0H2258.51L2245.12 19H2232.95L2246.34 0Z" fill="#F0F0F0"/>
<path d="M2587.16 0H2599.34L2585.95 19H2573.78L2587.16 0Z" fill="#F0F0F0"/>
<path d="M1973.67 0H1985.85L1972.46 19H1960.28L1973.67 0Z" fill="#F0F0F0"/>
<path d="M2519 0H2531.17L2517.78 19H2505.61L2519 0Z" fill="#F0F0F0"/>
<path d="M2859.83 0H2872L2858.61 19H2846.44L2859.83 0Z" fill="#F0F0F0"/>
</svg>
