<svg width="120" height="120" viewBox="0 0 120 120" fill="none" xmlns="http://www.w3.org/2000/svg">
<path d="M115.433 66.6525C114.033 66.7442 112.621 66.7041 111.218 66.644C110.878 66.6293 110.316 66.3592 110.256 66.11C109.283 62.0952 107.67 58.3561 105.436 54.7619C106.823 53.3947 108.197 52.0698 109.537 50.7129C111.312 48.9169 111.308 47.0977 109.528 45.2949C107.634 43.3774 105.729 41.4719 103.812 39.5782C102.015 37.8032 100.174 37.7979 98.3934 39.5616C97.036 40.9063 95.7054 42.2782 94.3366 43.6644C90.7594 41.4412 87.024 39.8186 83.0066 38.8511C82.76 38.7916 82.4886 38.2339 82.4773 37.8996C82.4226 36.261 82.4604 34.6196 82.4501 32.9792C82.4342 30.4865 81.1001 29.1352 78.6146 29.1183C76.1156 29.1014 73.616 29.1321 71.117 29.1071C69.8421 29.0942 68.6587 29.2 67.6198 30.1106C66.9591 30.6896 66.3925 30.3622 66.0648 29.5462C65.0225 26.9496 63.907 24.3823 62.8754 21.7816C62.7477 21.4595 62.814 20.8814 63.0316 20.6329C63.8526 19.6945 64.7875 18.8566 65.6536 17.9561C67.1024 16.4493 67.1256 14.7832 65.6849 13.3024C64.0782 11.651 62.4481 10.0215 60.7958 8.41616C59.3788 7.03958 57.663 7.05242 56.2194 8.42399C55.3136 9.28442 54.4231 10.1633 53.5708 11.0767C53.1498 11.528 52.8368 11.5174 52.2715 11.2682C49.7118 10.1399 47.1054 9.11728 44.5395 8.00269C44.2196 7.86372 43.848 7.41706 43.8271 7.09186C43.7438 5.80824 43.8249 4.51523 43.782 3.22755C43.716 1.24563 42.4852 0.0402599 40.5071 0.0189759C38.2034 -0.00606421 35.8988 -0.00669021 33.5951 0.0192889C31.6642 0.0411989 30.461 1.20118 30.3721 3.14116C30.3148 4.38847 30.3258 5.6411 30.3624 6.88966C30.3828 7.57826 30.1511 7.84619 29.4638 8.10504C26.9191 9.06345 24.4032 10.1089 21.9289 11.236C21.2484 11.5459 20.9092 11.4764 20.4481 10.9784C19.6528 10.1195 18.8117 9.30133 17.9698 8.48721C16.4505 7.0183 14.7437 7.0208 13.2219 8.51225C11.66 10.0431 10.1169 11.5931 8.58162 13.1506C6.98626 14.7685 6.97937 16.4578 8.58538 18.066C9.60107 19.0832 10.6712 20.0466 11.4118 20.7459C10.1795 24.0002 9.09526 26.9079 7.95656 29.7947C7.85608 30.0495 7.40818 30.3056 7.10989 30.3196C5.82408 30.3804 4.5317 30.3068 3.24558 30.3647C1.15912 30.4583 0.0310653 31.6477 0.0138503 33.7288C-0.00461676 35.9549 -0.00461676 38.1813 0.0138503 40.4077C0.0313783 42.5195 1.23706 43.7439 3.35545 43.7993C4.60432 43.8319 5.85789 43.7568 7.10175 43.8413C7.42508 43.8632 7.8661 44.2391 8.00539 44.5602C9.11967 47.1272 10.1401 49.7351 11.2734 52.2929C11.5298 52.8717 11.5025 53.1775 11.064 53.5891C10.182 54.4173 9.33345 55.2827 8.49429 56.1547C7.02006 57.6869 7.01881 59.3824 8.50713 60.9033C10.0368 62.4661 11.5871 64.0092 13.1436 65.5454C14.7778 67.1583 16.4304 67.1764 18.0446 65.5667C19.0631 64.551 20.018 63.4714 20.7542 62.6846C23.8341 63.8905 26.5673 64.9983 29.3308 66.0252C30.472 66.4493 30.5915 66.8046 29.9921 67.8462C29.5627 68.5928 29.1714 69.4782 29.1405 70.3158C29.0362 73.1241 29.0788 75.9389 29.1079 78.7506C29.132 81.0915 30.5086 82.4427 32.8514 82.47C34.5303 82.4894 36.2105 82.4452 37.8882 82.4994C38.2222 82.51 38.7803 82.7808 38.8397 83.0274C39.8107 87.0442 41.4285 90.7817 43.5883 94.2532C43.5125 94.3799 43.4843 94.4579 43.4314 94.5111C42.1381 95.8135 40.8364 97.1074 39.5484 98.4155C37.7893 100.202 37.7927 102.038 39.5687 103.834C41.3537 105.639 43.1557 107.427 44.9511 109.221C47.1824 111.452 48.81 111.457 51.0336 109.232C52.2922 107.973 53.5414 106.705 54.774 105.462C58.3325 107.689 61.9642 109.271 65.8755 110.175C66.4983 110.319 66.6758 110.636 66.662 111.239C66.6289 112.684 66.7237 114.133 66.6348 115.573C66.508 117.625 67.2352 119.125 69.1319 120H79.9104C81.8288 119.161 82.5853 117.688 82.4717 115.618C82.3778 113.909 82.4526 112.19 82.4526 110.781C86.5404 109.093 90.4489 107.479 94.6102 105.761C95.6716 106.828 97.0046 108.184 98.3546 109.523C100.199 111.352 101.999 111.348 103.855 109.508C105.769 107.611 107.679 105.709 109.57 103.79C111.298 102.037 111.302 100.195 109.579 98.4558C108.233 97.0974 106.854 95.7734 105.713 94.6538C107.426 90.5225 109.057 86.5869 110.762 82.4743C112.132 82.4743 113.812 82.3977 115.482 82.4938C117.58 82.6143 119.12 81.9053 119.978 79.9259V69.1458C119.082 67.1858 117.513 66.516 115.433 66.6525ZM23.1265 59.5693C21.2704 58.4387 20.0778 58.5968 18.5275 60.1295C17.6117 61.035 16.698 61.9424 15.7797 62.8454C15.7287 62.8958 15.647 62.9149 15.6977 62.8899C14.2094 61.4022 12.7517 59.9448 11.096 58.29C12.0603 57.3989 13.1151 56.4828 14.1023 55.4984C15.5193 54.0852 15.6639 52.7875 14.6072 51.0779C13.0547 48.5663 11.9608 45.8739 11.2681 43.0078C10.7955 41.0518 9.81203 40.3034 7.76312 40.2931C6.40345 40.2862 5.04346 40.2918 3.60428 40.2918V33.8612C4.85003 33.8612 6.12018 33.8638 7.39034 33.8606C9.90155 33.8544 10.5933 33.1557 11.3917 30.8229C12.2822 28.2207 13.3671 25.6685 14.5753 23.1961C15.5478 21.2057 15.5478 20.0689 13.9502 18.4888C13.01 17.5589 12.0265 16.6728 11.1279 15.8286C12.738 14.2183 14.1937 12.7619 15.7963 11.159C16.6865 12.0839 17.638 13.1052 18.6252 14.0909C20.05 15.5131 21.3173 15.6725 23.0382 14.6183C25.5879 13.0564 28.3107 11.9393 31.2207 11.2532C32.985 10.8372 33.801 9.82999 33.853 8.01834C33.8943 6.57728 33.8614 5.13403 33.8614 3.61035H40.2795C40.2795 4.97284 40.2726 6.36194 40.2811 7.75072C40.2939 9.85346 41.0307 10.7878 43.1003 11.2933C45.9254 11.9831 48.5781 13.072 51.0574 14.5995C52.8218 15.6865 54.0634 15.5135 55.5652 14.0395C56.4848 13.1372 57.3947 12.2251 58.3131 11.3217C58.3622 11.2735 58.4495 11.2638 58.4348 11.2695C59.9153 12.7553 61.3695 14.2151 63.0153 15.8671C62.1843 16.6284 61.2158 17.465 60.3047 18.3602C58.5137 20.1196 58.5134 21.1337 59.6392 23.3338C60.7689 25.542 61.8193 27.831 62.543 30.1951C63.1968 32.3313 63.9123 34.0553 66.6458 33.8713C66.6458 35.3978 66.6749 36.795 66.6182 38.1891C66.6085 38.4329 66.2827 38.7891 66.0282 38.8777C64.117 39.5431 62.1429 40.0477 60.2746 40.813C58.4079 41.5777 56.641 42.5865 54.6785 43.564C53.3417 42.219 51.9022 40.8014 50.5121 39.3375C50.3215 39.1369 50.3021 38.6987 50.3265 38.3797C50.9025 30.8649 45.8271 24.6255 38.3183 23.8934C36.5451 23.7206 34.6834 24.1138 32.904 24.4593C31.5434 24.7238 31.0291 25.6947 31.359 26.7489C31.6955 27.8241 32.5778 28.195 33.9369 27.7796C37.4131 26.7179 40.5963 27.2873 43.3823 29.6073C45.8115 31.6299 46.9211 34.3201 46.8153 37.4658C46.799 37.9465 46.4222 38.4996 46.0597 38.8705C43.6878 41.2985 41.2899 43.7023 38.8572 46.0692C38.4651 46.4508 37.8625 46.8223 37.3458 46.8389C30.0895 47.0683 25.1531 39.586 28.1583 32.9704C28.9223 31.2887 28.7911 30.3315 27.7301 29.8407C26.6136 29.3246 25.704 29.8874 24.9387 31.5688C20.7423 40.7854 28.1539 51.2431 38.2338 50.358C38.6666 50.3201 39.2469 50.4756 39.5556 50.7611C40.9303 52.0313 42.2308 53.3815 43.6011 54.7456C43.4477 55.0429 43.3256 55.3178 43.1707 55.5729C41.2348 58.7652 39.82 62.1765 38.9518 65.8039C38.7903 66.4781 38.5117 66.7007 37.8497 66.6813C36.5698 66.6437 35.2884 66.6703 33.9979 66.6703C33.9353 66.3598 33.8871 66.1745 33.8621 65.9864C33.6063 64.0833 32.9234 63.2733 31.0939 62.8476C28.2572 62.1875 25.6114 61.0829 23.1265 59.5693ZM116.408 78.959C114.532 78.959 112.71 78.9559 110.887 78.9596C108.424 78.9647 107.406 79.7575 106.836 82.1219C105.989 85.6372 104.641 88.9416 102.74 92.0224C101.44 94.1292 101.617 95.4467 103.397 97.2242C104.665 98.4906 105.947 99.7432 107.15 100.93C105.044 103.032 103.017 105.056 100.912 107.157C99.6602 105.894 98.3261 104.529 96.9708 103.185C95.4766 101.704 94.0327 101.52 92.2264 102.634C88.9774 104.636 85.5119 106.083 81.7837 106.923C79.886 107.351 78.9617 108.57 78.9442 110.532C78.927 112.474 78.9404 114.416 78.9404 116.42H70.163C70.163 114.476 70.1736 112.645 70.1601 110.815C70.1429 108.454 69.3279 107.421 67.0114 106.86C63.4594 105.998 60.1216 104.64 57.0132 102.705C55.0397 101.477 53.6334 101.666 51.9861 103.316C50.6934 104.611 49.426 105.93 48.2338 107.15C46.1264 105.044 44.1235 103.043 41.9854 100.906C43.0981 99.8039 44.3664 98.5588 45.6231 97.3024C47.5026 95.4232 47.6623 94.1515 46.2876 91.9044C44.4828 88.9541 43.1598 85.8081 42.3535 82.4415C41.6933 79.6846 40.7594 78.9606 37.9549 78.959C36.2399 78.9581 34.525 78.959 32.7121 78.959V70.1853C33.8179 70.1853 34.9682 70.1881 36.1182 70.1844C37.055 70.1815 37.9943 70.2107 38.9283 70.1553C40.5788 70.0573 41.761 69.1574 42.125 67.552C43.0142 63.6308 44.5489 59.9962 46.65 56.5751C47.5677 55.0811 47.3274 53.5668 46.0866 52.2995C44.6997 50.8825 43.2734 49.5044 41.9322 48.1766C44.0352 46.0683 46.0387 44.0598 48.1471 41.9461C49.3519 43.1583 50.6345 44.4566 51.926 45.7459C53.6519 47.469 55.0053 47.6511 57.0426 46.3972C60.089 44.522 63.3383 43.1539 66.8229 42.3257C69.4074 41.7113 70.1564 40.7147 70.1626 38.0401C70.167 36.2908 70.1636 34.5414 70.1636 32.7122H78.9395C78.9395 34.4653 78.9386 36.2062 78.9395 37.9475C78.9414 40.7764 79.6359 41.6747 82.4082 42.3526C85.807 43.184 88.9915 44.5142 91.9713 46.3493C94.0925 47.6555 95.4168 47.4865 97.1862 45.7296C98.4053 44.5192 99.6201 43.3045 100.84 42.0944C100.892 42.0421 100.972 42.0165 100.914 42.0493C102.946 44.0763 104.951 46.0761 107.083 48.2033C106.069 49.2189 104.896 50.3939 103.723 51.5677C101.499 53.7916 101.368 54.8389 102.98 57.5069C104.77 60.4682 106.027 63.6455 106.836 67.0058C107.403 69.3571 108.436 70.1643 110.888 70.1847C112.644 70.1994 114.401 70.2081 116.157 70.2257C116.226 70.2263 116.295 70.2895 116.408 70.3452L116.408 78.959Z" fill="#215384"/>
<path d="M72.9534 97.0903C87.9377 97.0928 98.4664 85.4156 96.9696 72.1964C95.1267 55.9219 77.5558 46.9638 63.2979 55.0298C53.588 60.523 49.3819 72.72 53.65 83.008C54.1511 84.2156 55 84.6932 56.0097 84.3361C56.98 83.9931 57.3516 82.9902 56.9437 81.8077C56.8677 81.5864 56.7744 81.3714 56.699 81.1501C54.3392 74.2381 55.3499 67.841 60.0647 62.278C64.7525 56.7467 70.9035 54.6389 78.0315 55.874C85.7698 57.2146 91.9181 63.463 93.2449 71.0145C94.6494 79.007 91.1613 86.7916 84.3388 90.8913C77.5955 94.9437 69.0406 94.4122 62.8137 89.5448C62.2303 89.0887 61.7132 88.5463 61.1195 88.1053C60.1329 87.3725 58.7876 87.735 58.4123 88.8245C58.0874 89.7673 58.5109 90.459 59.2039 91.0897C63.5493 95.0436 68.6515 97.0455 72.9534 97.0903Z" fill="#DF1F19"/>
<path d="M78.644 74.563C78.6529 76.8146 76.8316 78.6409 74.5739 78.6441C72.3329 78.6472 70.5238 76.8471 70.5086 74.5987C70.4932 72.3336 72.2896 70.5181 74.5557 70.5085C76.8206 70.4989 78.6352 72.2985 78.644 74.563Z" fill="#DF1F19"/>
</svg>
