<svg width="175" height="98" viewBox="0 0 175 98" fill="none" xmlns="http://www.w3.org/2000/svg">
<path d="M42.5471 66.4804H39.1064L49.479 40.2971H53.1361L63.3493 66.4804H59.344L50.9719 45.1749L42.5471 66.4804Z" fill="#DF1F19"/>
<path fill-rule="evenodd" clip-rule="evenodd" d="M120.802 0L142.271 28.9958H89.0106L110.481 0H120.802Z" fill="#DF1F19"/>
<path d="M154.198 66.4804H150.757L161.13 40.2971H164.787L175 66.4804H170.995L162.623 45.1749L154.198 66.4804Z" fill="#DF1F19"/>
<path fill-rule="evenodd" clip-rule="evenodd" d="M69.8665 28.914L91.3734 0H38.0209L59.5278 28.914H69.8665Z" fill="#215384"/>
<path fill-rule="evenodd" clip-rule="evenodd" d="M0 72.5904L20.6298 97.7654H171.089V72.5904H0Z" fill="#215384"/>
<path d="M15.1116 66.293L5.23567 40.1835H8.95488L17.0423 61.5651L24.8723 40.1835H28.1071L18.6151 66.293H15.1116Z" fill="#215384"/>
<path d="M35.3265 40.1835H31.6148V66.293H35.3265V40.1835Z" fill="#215384"/>
<path d="M78.8584 66.293H75.4118L85.8025 40.1835H89.4656L99.6964 66.293H95.6842L87.2977 45.0475L78.8584 66.293Z" fill="#215384"/>
<path d="M103.461 66.293V40.1835H110.442C112.925 40.1835 114.706 40.4305 115.786 40.9244C116.866 41.4184 117.695 42.177 118.272 43.2003C118.85 44.2235 119.138 45.4995 119.138 47.0286C119.138 48.8162 118.756 50.3803 117.993 51.7211C117.23 53.0619 116.005 54.0967 114.317 54.8259C112.63 55.5553 110.77 55.9197 108.739 55.9197H107.137V66.293H103.461ZM107.137 53.1149H108.583C110.952 53.1149 112.653 52.5561 113.685 51.4389C114.716 50.3216 115.232 48.9397 115.232 47.293C115.232 46.3993 115.068 45.6437 114.739 45.0262C114.41 44.4088 113.883 43.909 113.157 43.5266C112.432 43.1443 111.156 42.9533 109.331 42.9533H107.137V53.1149Z" fill="#215384"/>
<path d="M123.469 66.293V40.1835H130.45C132.932 40.1835 134.714 40.4305 135.794 40.9244C136.873 41.4184 137.702 42.177 138.279 43.2003C138.857 44.2235 139.145 45.4995 139.145 47.0286C139.145 48.8162 138.764 50.3803 138.001 51.7211C137.237 53.0619 136.012 54.0967 134.325 54.8259C132.637 55.5553 130.778 55.9197 128.746 55.9197H127.145V66.293H123.469ZM127.145 53.1149H128.59C130.96 53.1149 132.66 52.5561 133.692 51.4389C134.724 50.3216 135.24 48.9397 135.24 47.293C135.24 46.3993 135.075 45.6437 134.746 45.0262C134.417 44.4088 133.89 43.909 133.165 43.5266C132.439 43.1443 131.164 42.9533 129.339 42.9533H127.145V53.1149Z" fill="#215384"/>
<path d="M147.17 40.1835H143.458V66.293H147.17V40.1835Z" fill="#215384"/>
<path d="M21.5088 90.7586V78.3751H22.7464C23.7344 78.3751 24.4878 78.6875 25.007 79.3122C25.5262 79.9369 25.7858 80.768 25.7858 81.8059C25.7858 82.9829 25.3872 83.8668 24.5902 84.4583C25.2076 84.9291 25.7326 86.1814 26.1646 88.2151L26.6952 90.7586H25.1419L24.6966 88.6223C24.3788 87.1259 24.1018 86.1737 23.8662 85.7664C23.6303 85.3592 23.3385 85.1764 22.9906 85.2189V90.7586H21.5088ZM22.9906 83.7343H23.0579C23.8886 83.7343 24.3041 83.1096 24.3041 81.8605C24.3041 80.5328 23.8662 79.8657 22.9906 79.8597V83.7343Z" fill="white"/>
<path d="M30.4753 90.9218C29.566 90.9218 28.8253 90.3558 28.2528 89.2245C27.6801 88.0929 27.394 86.5403 27.394 84.5669C27.394 82.7023 27.6646 81.1768 28.2064 79.9912C28.748 78.8052 29.5042 78.2123 30.4753 78.2123C31.4183 78.2123 32.169 78.8038 32.7277 79.9864C33.286 81.1693 33.5652 82.6961 33.5652 84.5669C33.5652 86.5584 33.2706 88.1154 32.6813 89.2378C32.092 90.3606 31.3565 90.9218 30.4753 90.9218ZM30.4585 79.6969C29.9702 79.6969 29.5955 80.1291 29.3345 80.9934C29.0736 81.8578 28.9431 83.0491 28.9431 84.5669C28.9431 86.139 29.0777 87.3439 29.3472 88.1813C29.6165 89.0183 29.9983 89.4372 30.4922 89.4372C30.9636 89.4372 31.3355 89.0094 31.6078 88.154C31.8801 87.2988 32.0161 86.1031 32.0161 84.5669C32.0161 83.0069 31.8785 81.805 31.6037 80.9617C31.3286 80.1184 30.9468 79.6969 30.4585 79.6969Z" fill="white"/>
<path d="M34.0031 90.7586L36.1754 78.3028H37.7159L39.8714 90.7586H38.4401L38.0274 88.0157H35.889L35.4344 90.7586H34.0031ZM36.1078 86.5314H37.7664L36.9583 81.3444H36.9161L36.1078 86.5314Z" fill="white"/>
<path d="M40.9408 90.7586V78.3751H42.574C45.2065 78.3751 46.5227 80.4331 46.5227 84.5488C46.5227 86.6068 46.1958 88.1561 45.5417 89.1972C44.8878 90.2384 43.9689 90.7586 42.7845 90.7586H40.9408ZM42.4225 89.274H42.6413C43.517 89.274 44.1358 88.9136 44.4977 88.1925C44.8597 87.4711 45.041 86.2808 45.041 84.6212C45.041 82.8892 44.8696 81.6626 44.5273 80.9415C44.1849 80.2204 43.5675 79.8597 42.675 79.8597H42.4225V89.274Z" fill="white"/>
<path d="M58.335 88.55V90.2247C57.7794 90.6892 57.1929 90.9218 56.5754 90.9218C55.5875 90.9218 54.8241 90.3787 54.2853 89.2921C53.7465 88.2059 53.477 86.6551 53.477 84.6393C53.477 82.6237 53.7479 81.0486 54.2894 79.914C54.831 78.7794 55.6043 78.2123 56.6091 78.2123C57.0916 78.2123 57.6221 78.4265 58.2004 78.8551V80.4663C57.7063 79.9532 57.2124 79.6969 56.7183 79.6969C56.1235 79.6969 55.6926 80.0718 55.4261 80.8217C55.1596 81.5716 55.0261 82.8201 55.0261 84.5669C55.0261 86.2956 55.161 87.5397 55.4302 88.2987C55.6998 89.0575 56.1459 89.4372 56.7691 89.4372C57.1956 89.4372 57.7176 89.1414 58.335 88.55Z" fill="white"/>
<path d="M62.3511 90.9218C61.4418 90.9218 60.7007 90.3558 60.1283 89.2245C59.5558 88.0929 59.2694 86.5403 59.2694 84.5669C59.2694 82.7023 59.5404 81.1768 60.0819 79.9912C60.6238 78.8052 61.38 78.2123 62.3511 78.2123C63.2941 78.2123 64.0447 78.8038 64.6031 79.9864C65.1618 81.1693 65.441 82.6961 65.441 84.5669C65.441 86.5584 65.1463 88.1154 64.5568 89.2378C63.9675 90.3606 63.2323 90.9218 62.3511 90.9218ZM62.3342 79.6969C61.8459 79.6969 61.4713 80.1291 61.2103 80.9934C60.9493 81.8578 60.8188 83.0491 60.8188 84.5669C60.8188 86.139 60.9534 87.3439 61.2227 88.1813C61.4922 89.0183 61.8738 89.4372 62.3679 89.4372C62.8394 89.4372 63.2113 89.0094 63.4833 88.154C63.7556 87.2988 63.8916 86.1031 63.8916 84.5669C63.8916 83.0069 63.7542 81.805 63.4792 80.9617C63.2041 80.1184 62.8226 79.6969 62.3342 79.6969Z" fill="white"/>
<path d="M67.0406 90.7586V78.3751H68.2445L70.7957 86.0319L70.8293 86.0153V78.3751H72.1933V90.7586H70.9893L68.4382 83.0482L68.4046 83.0461V90.7586H67.0406Z" fill="white"/>
<path d="M75.1568 90.7586V79.8597H73.3887V78.3751H78.4068V79.8597H76.6386V90.7586H75.1568Z" fill="white"/>
<path d="M79.6276 90.7586V78.3751H80.8652C81.8531 78.3751 82.6066 78.6875 83.1258 79.3122C83.645 79.9369 83.9046 80.768 83.9046 81.8059C83.9046 82.9829 83.5059 83.8668 82.7089 84.4583C83.3263 84.9291 83.8511 86.1814 84.2834 88.2151L84.8139 90.7586H83.2607L82.8154 88.6223C82.4973 87.1259 82.2206 86.1737 81.985 85.7664C81.7491 85.3592 81.4572 85.1764 81.1093 85.2189V90.7586H79.6276ZM81.1093 83.7343H81.1766C82.0073 83.7343 82.4228 83.1096 82.4228 81.8605C82.4228 80.5328 81.985 79.8657 81.1093 79.8597V83.7343Z" fill="white"/>
<path d="M85.0244 90.7586L87.1964 78.3028H88.7373L90.8925 90.7586H89.4612L89.0487 88.0157H86.9101L86.4557 90.7586H85.0244ZM87.1291 86.5314H88.7878L87.9794 81.3444H87.9375L87.1291 86.5314Z" fill="white"/>
<path d="M96.424 88.55V90.2247C95.8684 90.6892 95.2818 90.9218 94.6644 90.9218C93.6764 90.9218 92.9133 90.3787 92.3743 89.2921C91.8355 88.2059 91.5662 86.6551 91.5662 84.6393C91.5662 82.6237 91.8368 81.0486 92.3787 79.914C92.9202 78.7794 93.6933 78.2123 94.6981 78.2123C95.1809 78.2123 95.7114 78.4265 96.2894 78.8551V80.4663C95.7955 79.9532 95.3014 79.6969 94.8076 79.6969C94.2125 79.6969 93.7818 80.0718 93.5153 80.8217C93.2485 81.5716 93.1153 82.8201 93.1153 84.5669C93.1153 86.2956 93.2499 87.5397 93.5195 88.2987C93.7887 89.0575 94.2351 89.4372 94.8581 89.4372C95.2846 89.4372 95.8066 89.1414 96.424 88.55Z" fill="white"/>
<path d="M98.6973 90.7586V79.8597H96.9291V78.3751H101.947V79.8597H100.179V90.7586H98.6973Z" fill="white"/>
<path d="M104.599 78.3751H103.118V90.7586H104.599V78.3751Z" fill="white"/>
<path d="M106.586 90.7586V78.3751H107.79L110.341 86.0319L110.375 86.0153V78.3751H111.739V90.7586H110.535L107.984 83.0482L107.95 83.0461V90.7586H106.586Z" fill="white"/>
<path d="M119.173 84.1053V90.1885C118.477 90.6774 117.798 90.9218 117.136 90.9218C115.968 90.9218 115.045 90.3635 114.366 89.247C113.687 88.1305 113.347 86.5765 113.347 84.585C113.347 82.6237 113.675 81.0712 114.332 79.9277C114.989 78.7842 115.867 78.2123 116.967 78.2123C117.63 78.2123 118.365 78.508 119.173 79.0995V80.8012C118.348 79.9926 117.635 79.5883 117.035 79.5883C115.564 79.5883 114.829 81.2509 114.829 84.5761C114.829 87.8167 115.609 89.4372 117.169 89.4372C117.299 89.4372 117.472 89.4161 117.691 89.374V85.5899H116.673V84.1053H119.173Z" fill="white"/>
<path d="M131.103 88.55V90.2247C130.548 90.6892 129.961 90.9218 129.344 90.9218C128.356 90.9218 127.592 90.3787 127.054 89.2921C126.515 88.2059 126.245 86.6551 126.245 84.6393C126.245 82.6237 126.516 81.0486 127.058 79.914C127.6 78.7794 128.373 78.2123 129.377 78.2123C129.86 78.2123 130.39 78.4265 130.969 78.8551V80.4663C130.475 79.9532 129.981 79.6969 129.487 79.6969C128.892 79.6969 128.461 80.0718 128.194 80.8217C127.928 81.5716 127.795 82.8201 127.795 84.5669C127.795 86.2956 127.929 87.5397 128.199 88.2987C128.468 89.0575 128.914 89.4372 129.537 89.4372C129.964 89.4372 130.486 89.1414 131.103 88.55Z" fill="white"/>
<path d="M135.119 90.9218C134.21 90.9218 133.469 90.3558 132.897 89.2245C132.324 88.0929 132.038 86.5403 132.038 84.5669C132.038 82.7023 132.309 81.1768 132.85 79.9912C133.392 78.8052 134.148 78.2123 135.119 78.2123C136.062 78.2123 136.813 78.8038 137.372 79.9864C137.93 81.1693 138.209 82.6961 138.209 84.5669C138.209 86.5584 137.915 88.1154 137.325 89.2378C136.736 90.3606 136.001 90.9218 135.119 90.9218ZM135.103 79.6969C134.614 79.6969 134.24 80.1291 133.979 80.9934C133.718 81.8578 133.587 83.0491 133.587 84.5669C133.587 86.139 133.722 87.3439 133.991 88.1813C134.261 89.0183 134.642 89.4372 135.136 89.4372C135.608 89.4372 135.98 89.0094 136.252 88.154C136.524 87.2988 136.66 86.1031 136.66 84.5669C136.66 83.0069 136.522 81.805 136.247 80.9617C135.973 80.1184 135.591 79.6969 135.103 79.6969Z" fill="white"/>
<path d="M139.38 89.9079C139.38 89.6303 139.472 89.3933 139.657 89.1972C139.843 89.0011 140.064 88.903 140.323 88.903C140.581 88.903 140.801 89.0011 140.984 89.1972C141.166 89.3933 141.257 89.6303 141.257 89.9079C141.257 90.1856 141.166 90.4238 140.984 90.6231C140.801 90.8221 140.581 90.9218 140.323 90.9218C140.064 90.9218 139.843 90.8221 139.657 90.6231C139.472 90.4238 139.38 90.1856 139.38 89.9079Z" fill="white"/>
<path d="M146.873 90.7586V78.3751H148.355V89.274H151.2V90.7586H146.873Z" fill="white"/>
<path d="M151.84 89.9079C151.84 89.6303 151.933 89.3933 152.118 89.1972C152.303 89.0011 152.525 88.903 152.783 88.903C153.041 88.903 153.262 89.0011 153.444 89.1972C153.627 89.3933 153.718 89.6303 153.718 89.9079C153.718 90.1856 153.627 90.4238 153.444 90.6231C153.262 90.8221 153.041 90.9218 152.783 90.9218C152.525 90.9218 152.303 90.8221 152.118 90.6231C151.933 90.4238 151.84 90.1856 151.84 89.9079Z" fill="white"/>
<path d="M155.317 90.7586V78.3751H156.799V89.274H159.645V90.7586H155.317Z" fill="white"/>
<path d="M160.285 89.9079C160.285 89.6303 160.377 89.3933 160.563 89.1972C160.748 89.0011 160.969 88.903 161.228 88.903C161.486 88.903 161.706 89.0011 161.889 89.1972C162.071 89.3933 162.162 89.6303 162.162 89.9079C162.162 90.1856 162.071 90.4238 161.889 90.6231C161.706 90.8221 161.486 90.9218 161.228 90.9218C160.969 90.9218 160.748 90.8221 160.563 90.6231C160.377 90.4238 160.285 90.1856 160.285 89.9079Z" fill="white"/>
<path d="M168.157 88.55V90.2247C167.601 90.6892 167.015 90.9218 166.397 90.9218C165.409 90.9218 164.646 90.3787 164.107 89.2921C163.568 88.2059 163.299 86.6551 163.299 84.6393C163.299 82.6237 163.57 81.0486 164.111 79.914C164.653 78.7794 165.426 78.2123 166.431 78.2123C166.914 78.2123 167.444 78.4265 168.022 78.8551V80.4663C167.528 79.9532 167.034 79.6969 166.54 79.6969C165.945 79.6969 165.515 80.0718 165.248 80.8217C164.981 81.5716 164.848 82.8201 164.848 84.5669C164.848 86.2956 164.983 87.5397 165.252 88.2987C165.522 89.0575 165.968 89.4372 166.591 89.4372C167.017 89.4372 167.539 89.1414 168.157 88.55Z" fill="white"/>
</svg>
