<svg width="100" height="91" fill="none" xmlns="http://www.w3.org/2000/svg"><path d="M98.525 57.957c-.381-.026-.765-.005-1.243-.005 0-1.118.008-2.142-.002-3.166-.01-1.02-.483-1.519-1.425-1.534-.983-.017-1.49.503-1.5 1.563-.011 1.02-.003 2.04-.003 3.077h-7.319V56.81c0-4.265-.036-8.53.025-12.794.016-1.124-.394-1.858-1.412-2.495a194.045 194.045 0 01-6.934-4.578c-.849-.584-1.704-.857-2.776-.824-1.973.061-3.95.017-5.952.017v-9.61h24.368v8.605c0 4.381.004 8.764-.004 13.146-.001.66.124 1.232.893 1.51 1.124.408 2.038-.247 2.038-1.49.006-7.5-.012-14.999.023-22.498.005-.915-.322-1.54-1.08-2.122-4.259-3.282-8.487-6.597-12.727-9.899-1.06-.825-1.64-.82-2.717.017-3.354 2.61-6.706 5.223-10.06 7.832-.21.163-.434.312-.788.565 0-2.702.01-5.25-.003-7.797-.02-4.155-2.904-7.527-7.362-8.578-.55-.13-.734-.336-.715-.839.038-1.057-.02-2.118.021-3.175.03-.763-.2-1.376-.927-1.802h-1.172c-.645.437-.891 1.008-.856 1.743.051 1.056-.016 2.117.025 3.175.02.53-.161.759-.752.9-4.504 1.083-7.349 4.44-7.37 8.67-.014 2.91-.002 5.822-.005 8.733 0 .277-.032.554-.056.942-.42-.276-.733-.472-1.036-.68-3.567-2.464-7.136-4.925-10.695-7.399-.694-.481-1.386-.657-2.133-.149a425.58 425.58 0 00-4.185 2.895c-.56.39-.699.913-.45 1.498.38.889 1.404 1.122 2.331.513 1.096-.72 2.163-1.476 3.262-2.229l10.038 6.943H27.82c.538-.382.914-.643 1.28-.912.866-.634 1.028-1.303.484-1.966-.579-.707-1.348-.755-2.287-.114-1.454.993-2.874 2.027-4.35 2.99-.761.496-1.083 1.079-1.075 1.931.035 3.764.015 7.528.015 11.292v.51c-2.204-1.845-4.428-3.672-6.602-5.545-1.31-1.13-1.847-1.164-3.139.028-2.913 2.69-5.811 5.395-8.741 8.07-.593.541-.854 1.119-.85 1.88.025 4.411.013 8.822.013 13.233v.996C1.44 57.892.462 57.932 0 58.947v.706c.425.73 1.09.959 1.996.955 3.547-.012 7.095.038 10.643.058 1.585.009 3.17.002 4.83.002-.145.803-.259 1.469-.385 2.132-.732 3.83.507 5.97 4.39 7.664.226.1.409.488.42.748.045 1.116.005 2.235.024 3.352.017 1.006.523 1.516 1.458 1.524.96.008 1.45-.477 1.464-1.493a73.611 73.611 0 00-.007-3.352c-.016-.492.167-.699.692-.874 2.85-.949 4.476-3.11 4.347-5.85-.058-1.252-.322-2.496-.504-3.83h1.16c19.92-.026 39.841-.05 59.762-.078 2.734-.004 5.469-.001 8.202-.03.956-.01 1.5-.517 1.508-1.29.008-.772-.53-1.27-1.475-1.334zm-16.378-41.73l9.653 7.522H72.49l9.657-7.522zM13.75 36.61l6.222 5.16H7.552l6.197-5.16zm3.368 21.354c-3.609-.044-7.219-.018-10.829-.022-.222 0-.444-.035-.745-.06V44.538h16.343v2.144c0 1.498.011 2.997-.01 4.495-.003.272-.036.647-.226.798-1.7 1.346-2.412 3.183-3.042 5.033-.264.774-.645.967-1.491.957zm7.727 9.698c0-1.233.007-2.42-.002-3.608-.007-1.1-.557-1.716-1.487-1.691-.882.023-1.428.644-1.439 1.672-.012 1.19-.003 2.381-.003 3.698-1.48-.678-2.187-1.695-2.078-2.967.293-3.414 1.128-6.723 2.858-9.806.102-.182.246-.345.374-.514.073-.098.154-.19.445-.546.626 1.218 1.28 2.15 1.593 3.168.696 2.255 1.311 4.538 1.789 6.838.383 1.847-.402 3.151-2.05 3.756zm25.946-9.759c-.366.015-.71.04-1.054.04-6.736.003-13.47-.008-20.206.017-.73.002-1.064-.162-1.3-.83-.68-1.93-1.382-3.868-3.206-5.244-.154-.116-.177-.425-.177-.645-.015-7.525-.02-15.051-.024-22.577 0-.087.024-.173.048-.332h25.92v29.571zm9.165-49.668c3.175-.188 6.025 1.68 6.758 4.527H54.138c.22-2.293 2.904-4.355 5.817-4.527zm-6.105 7.326h13.088v20.574c-1.975 0-3.89-.048-5.8.026a3.919 3.919 0 00-1.853.577c-1.802 1.15-3.536 2.389-5.435 3.689V15.562zm8.248 42.328h-3.08c0-1.369-.04-2.684.016-3.995.034-.785.74-1.312 1.55-1.298.813.013 1.472.548 1.502 1.346.047 1.285.013 2.573.013 3.947zm5.368-.02h-2.432c0-1.331.03-2.647-.008-3.961-.057-1.934-1.502-3.476-3.582-3.888-1.933-.383-4.029.507-4.862 2.177-.31.621-.44 1.35-.484 2.039-.076 1.195-.021 2.397-.021 3.652H53.77V57c0-4.145.009-8.29-.01-12.435-.003-.513.131-.86.614-1.182 2.091-1.393 4.148-2.829 6.26-4.28 2.183 1.499 4.334 2.965 6.463 4.456a.92.92 0 01.353.661c.02 4.525.015 9.05.015 13.65zm1.595-16.338c-1.267-.82-2.495-1.688-3.737-2.54l.044-.21h1.715c2.893 0 5.787-.016 8.68.019.447.005.951.166 1.324.395 1.26.775 2.472 1.613 3.87 2.538-.418.041-.648.084-.877.084-3.316.004-6.632.011-9.948-.01-.361-.002-.784-.091-1.071-.276zm14.979 16.34H70.465v-13.34H84.04v13.34z" fill="#DF1F19"/><path d="M97.603 67.384c1.255-.003 1.853-.45 1.847-1.356-.006-.882-.54-1.295-1.78-1.295-2.377 0-4.755-.027-7.127.072-1.07.044-1.734-.16-2.396-1.008-1.413-1.812-3.495-1.78-5.065-.072-.228.248-.481.502-.608.794-.29.667-.828.868-1.573.938a119.32 119.32 0 00-21.728 4.093c-6.278 1.8-12.303 4.13-18.047 7.045-.949.481-1.214 1.15-.777 1.883.437.734 1.198.895 2.158.442.691-.327 1.369-.677 2.06-1.007 9.901-4.722 20.453-7.642 31.48-9.229 1.525-.219 3.059-.377 4.673-.574-.3 1.044-.712 1.94-.79 2.86-.144 1.71-1.11 2.442-2.868 3.049-8.445 2.915-15.693 7.438-21.527 13.727-1.069 1.151-.972 1.699.331 2.615h.977c.225-.205.47-.396.67-.619 3.34-3.713 7.352-6.729 11.807-9.28 3.055-1.75 6.269-3.214 9.73-4.332.39 2.843 2.092 4.658 5.11 5.502 0 1.376-.048 2.728.028 4.075.024.413.272.95.62 1.188.98.67 2.238-.016 2.27-1.21.036-1.35.008-2.7.008-4.028 4-1.177 5.283-3.857 4.828-8.23.601-.06 1.206-.145 1.813-.174 1.463-.071 2.936-.048 4.384-.21.465-.051 1.133-.506 1.228-.876.113-.438-.192-1.052-.517-1.458-.18-.225-.775-.259-1.178-.247-2.108.064-4.214.17-6.37.263l-1.039-3.34c2.553 0 4.96.004 7.368-.001zM87.088 78.71c0-1.126.006-2.194-.004-3.263-.003-.35.014-.715-.082-1.05-.196-.681-.727-1.042-1.515-.98-.784.061-1.273.482-1.305 1.193-.049 1.086-.02 2.175-.025 3.263v.923c-1.36-.655-2.139-1.532-2.085-2.684.168-3.647 1.107-7.137 3.016-10.382.116-.196.32-.35.611-.658.443.732.891 1.338 1.195 1.998 1.244 2.704 1.958 5.532 2.28 8.44.155 1.402-.588 2.538-2.086 3.2zm-75.072-5.314c-.6-2.193-1.276-4.381-2.76-6.254-1.604-2.024-3.802-2.023-5.446-.026-.328.398-.656.82-.85 1.278-.63 1.475-1.291 2.946-1.761 4.464C.694 74.49.39 76.171 0 77.831v2.117c.438 1.305.955 2.593 2.2 3.448.841.578 1.807 1.007 2.869 1.586 0 1.068.048 2.33-.017 3.589-.045.883.287 1.473 1.199 1.79h.586c.887-.342 1.218-.939 1.177-1.81-.06-1.257-.015-2.517-.015-3.746 3.89-1.322 5.386-3.457 4.907-7.09a32.495 32.495 0 00-.89-4.32zm-4.02 8.47c0-1.318.064-2.6-.034-3.871-.033-.425-.373-.997-.761-1.185-.395-.192-1.127-.145-1.515.077-.345.198-.565.771-.59 1.191-.075 1.245-.027 2.496-.027 3.855-1.367-.58-2.148-1.497-2.084-2.654.202-3.693 1.099-7.25 3.12-10.517.09-.146.258-.253.507-.49.414.663.855 1.237 1.15 1.866 1.278 2.72 1.985 5.578 2.336 8.506.173 1.444-.627 2.645-2.101 3.222zm26.542-1.568c-3.534 2.214-6.9 4.614-9.863 7.446-1.164 1.114-1.076 1.73.328 2.617h.781c.752-.646 1.463-1.337 2.263-1.93 2.711-2.01 5.451-3.99 8.187-5.974.802-.582.988-1.24.5-1.9-.524-.711-1.297-.822-2.196-.259zm41.6-50.192c-.074-.798-.743-1.345-1.532-1.308-.77.037-1.344.57-1.369 1.346-.03.967-.03 1.937 0 2.905.023.775.596 1.31 1.364 1.349.795.04 1.461-.5 1.537-1.3.046-.495.008-.997.008-1.495 0-.5.037-1.001-.008-1.497zm11.942 3.022c.043.761.544 1.2 1.352 1.255.773.052 1.406-.333 1.47-1.02a19.94 19.94 0 00.009-3.507c-.06-.686-.683-1.083-1.455-1.043-.805.043-1.322.472-1.374 1.235-.034.497-.007.997-.008 1.496 0 .528-.025 1.058.006 1.584zm-4.632-3.104c-.062-.76-.59-1.185-1.396-1.21-.767-.024-1.373.37-1.427 1.068a22.592 22.592 0 00-.004 3.421c.052.699.644 1.098 1.416 1.082.812-.017 1.338-.44 1.408-1.196.05-.524.01-1.055.01-1.582.002-.528.037-1.058-.007-1.583zM30.69 41.332c.837-.034 1.351-.538 1.37-1.412.023-1.084.005-2.169.005-3.253 0-1.114.018-2.228-.005-3.341-.018-.871-.536-1.378-1.372-1.411-.877-.034-1.521.483-1.535 1.367a214.158 214.158 0 000 6.682c.015.882.662 1.403 1.536 1.368zm7.214 0c.839-.03 1.36-.536 1.378-1.406.024-1.084.006-2.169.006-3.253 0-1.114.017-2.228-.005-3.341-.017-.87-.533-1.38-1.366-1.417-.876-.038-1.528.483-1.542 1.36a222.826 222.826 0 000 6.683c.013.882.656 1.405 1.529 1.374zm7.186.001c.876-.014 1.402-.537 1.418-1.462.019-1.084.004-2.17.004-3.254s.015-2.169-.004-3.253c-.017-.916-.556-1.443-1.43-1.451-.872-.008-1.474.522-1.485 1.418-.026 2.198-.027 4.397.001 6.595.012.888.628 1.42 1.496 1.407zM32.062 46.43c-.017-.93-.54-1.447-1.42-1.459-.871-.012-1.48.514-1.492 1.41a246.95 246.95 0 000 6.594c.012.9.617 1.425 1.488 1.416.879-.01 1.406-.529 1.424-1.455.02-1.055.004-2.11.004-3.166 0-1.113.015-2.227-.005-3.34zm7.223.023c-.015-.936-.522-1.457-1.395-1.481-.906-.025-1.512.524-1.522 1.474-.022 2.168-.024 4.338.002 6.506.01.9.603 1.438 1.464 1.44.877.002 1.431-.524 1.45-1.433.022-1.084.005-2.169.005-3.253s.013-2.17-.004-3.253zm7.222-.046c-.017-.911-.567-1.436-1.446-1.437-.867 0-1.458.534-1.469 1.433a300.318 300.318 0 00-.002 6.508c.01.951.61 1.502 1.516 1.48.873-.023 1.386-.545 1.402-1.477.018-1.055.004-2.11.004-3.166 0-1.114.016-2.228-.005-3.341zm15.885-15.881c.939-.016 1.52-.454 1.536-1.27.038-1.908.077-3.82-.034-5.723-.096-1.657-1.752-2.898-3.576-2.865-1.875.034-3.412 1.364-3.49 3.062-.04.88-.006 1.762-.006 2.643h-.008c0 .91-.019 1.821.006 2.731.025.929.55 1.406 1.574 1.422 1.333.021 2.665.021 3.998 0zm-2.612-6.553c.01-.219.405-.423.623-.633.205.222.578.439.589.669.058 1.252.028 2.507.028 3.836h-1.27c0-1.316-.03-2.596.03-3.872zM17.241 48.2c-.768.014-1.374.55-1.417 1.309-.034.615-.007 1.233-.008 1.85 0 .617-.024 1.235.006 1.85.038.785.593 1.3 1.378 1.332.827.032 1.494-.483 1.523-1.293a49.04 49.04 0 00-.004-3.789c-.031-.751-.713-1.272-1.478-1.258zm-7.067.009a1.35 1.35 0 00-1.43 1.28c-.042.613-.01 1.231-.01 1.847 0 .646-.027 1.293.008 1.937.041.75.507 1.193 1.339 1.263.798.067 1.477-.403 1.519-1.18.07-1.317.069-2.64.002-3.957-.038-.737-.605-1.156-1.428-1.19zm64.345 3.623c.754-.07 1.244-.49 1.298-1.215.028-.38.005-.763.005-1.145h-.008c0-.441.04-.885-.008-1.321-.08-.723-.605-1.114-1.362-1.152-.722-.035-1.346.31-1.422.966-.11.954-.118 1.934-.004 2.887.084.697.735 1.05 1.5.98zm4.173-1.112c.09.72.633 1.101 1.39 1.118.718.015 1.327-.336 1.392-1 .093-.957.096-1.936-.018-2.89-.079-.66-.714-.987-1.431-.949-.71.038-1.232.404-1.328 1.083-.058.404-.01.82-.01 1.23h-.006c0 .47-.047.944.01 1.408zm-18.168-6.947c-.803.017-1.363.562-1.358 1.324.004.758.577 1.302 1.377 1.31.841.008 1.43-.568 1.403-1.372-.024-.759-.61-1.278-1.422-1.261z" fill="#DF1F19"/></svg>