<svg width="100" height="92" fill="none" xmlns="http://www.w3.org/2000/svg"><path d="M98.125 40.297c-3.683-3.636-7.327-7.311-11.077-10.878-2.21-2.101-4.878-3.213-8.046-3.072-2.37.105-4.75.022-7.125.017-.236 0-.472-.048-.793-.083.686-1.361 1.334-2.617 1.954-3.886.514-1.05.276-1.97-.588-2.423-.898-.472-1.834-.109-2.391.967-.784 1.515-1.574 3.029-2.296 4.573-.3.64-.666.884-1.397.873-2.896-.044-5.792-.017-8.688-.02-.314 0-.627-.031-.922-.047V3.291H72.65c1.652.001 2.04.305 2.367 1.917 1.11 5.477 2.205 10.957 3.315 16.434.229 1.13.981 1.677 1.993 1.499.965-.17 1.497-1.02 1.275-2.136-1.112-5.574-2.21-11.152-3.37-16.717-.609-2.924-2.376-4.283-5.364-4.285C67.139-.002 61.411 0 55.684.002c-1.81 0-2.34.517-2.34 2.282-.002 8.326-.002 16.652-.001 24.979 0 1.905.494 2.394 2.425 2.394 7.745.001 15.49.046 23.234-.028 2.27-.022 4.182.655 5.752 2.167 3.659 3.521 7.26 7.103 10.86 10.683.986.98 1.152 2.23.996 3.626-.618 0-1.171-.042-1.715.01-.938.087-1.562.798-1.54 1.677.023.891.66 1.524 1.63 1.577.539.029 1.08.005 1.615.005V59.2h-3.35c-1.478-7.301-7.764-10.327-12.709-9.74-6.068.722-10.366 5.358-10.536 11.255-.16 5.51 3.928 10.478 9.556 11.527 2.784.519 5.448.066 7.904-1.348 3.228-1.86 5.073-4.696 5.77-8.339 1.518 0 2.981-.04 4.441.014.99.037 1.77-.235 2.324-1.062v-17.36c-.374-1.403-.798-2.787-1.875-3.85zM81.673 69.15c-4.56.008-8.306-3.688-8.323-8.211-.017-4.513 3.704-8.227 8.275-8.261 4.578-.034 8.403 3.735 8.387 8.263-.017 4.502-3.773 8.2-8.339 8.209zm15.986 18.988c-8.45.03-16.9.017-25.35.018-.291 0-.588-.015-.875.029-.806.121-1.285.612-1.385 1.397-.1.783.23 1.403.99 1.686.382.141.825.17 1.24.17 8.481.01 16.964-.004 25.446.022 1.009.003 1.76-.293 2.275-1.148v-1.157c-.58-.79-1.357-1.02-2.341-1.017zM65.587 57.732c-.235-.108-.485-.186-.728-.276-3.922-1.456-7.838-2.931-11.775-4.347a7.17 7.17 0 00-2.367-.42 13265.01 13265.01 0 00-45.49.001c-.807.002-1.155-.255-1.351-.99-.694-2.608-.679-5.203-.036-7.815.199-.806.574-1.104 1.465-1.102 14.545.03 29.09.022 43.636.022h1.075c0 1.652-.01 3.16.003 4.668.01 1.177.615 1.872 1.614 1.898 1.048.027 1.698-.68 1.705-1.9.012-1.928.006-3.857.003-5.786-.003-1.645-.54-2.165-2.24-2.166-15.717 0-31.434.009-47.15-.019-1.165-.002-2.034.388-2.404 1.417C.986 42.474.4 44.065.176 45.69c-.396 2.86-.158 5.707 1.067 8.401.588 1.295 1.454 1.91 3.017 1.904 13.602-.057 27.205.066 40.805-.091 4.279-.05 8.294.488 12.198 2.227 2.304 1.028 4.73 1.79 7.112 2.642.946.339 1.859-.071 2.18-.897.33-.852-.059-1.724-.969-2.144zM7.814 36.711c.769.507 1.658.322 2.31-.494.22-.277.405-.582.617-.866 4.127-5.53 9.64-8.657 16.602-8.93 8.064-.316 14.404 2.97 19.026 9.5.766 1.081 1.675 1.348 2.546.758.871-.592.959-1.535.2-2.618-5.023-7.173-11.988-10.769-19.508-10.991-6.569.023-11.384 1.542-15.708 4.552a24.172 24.172 0 00-6.489 6.721c-.589.906-.41 1.831.404 2.368z" fill="#DF1F19"/><path d="M49.303 61.123c.678-.812.428-1.841-.358-2.366-.806-.538-1.712-.337-2.373.535-.194.256-.366.53-.552.794-4.912 6.953-13.688 10.37-22.087 8.59-5.663-1.2-10.118-4.19-13.443-8.862-.308-.434-.684-.907-1.144-1.128-.693-.334-1.418-.154-1.915.49-.585.759-.386 1.483.124 2.213 5.017 7.177 11.983 10.774 20.071 11.063 6.72-.078 12.164-1.874 16.715-5.809 1.86-1.609 3.375-3.621 4.962-5.52zM24.713 88.15c-3.77.012-7.541.006-11.312.006-3.836 0-7.672-.007-11.507.005C.776 88.165.08 88.778.04 89.72c-.04.963.698 1.666 1.817 1.723.194.01.39.003.585.003 7.281 0 14.563.002 21.844-.005.418 0 .856-.006 1.249-.127a1.587 1.587 0 00.92-2.338c-.389-.663-1.01-.828-1.743-.825zm26.603.008c-2.634-.008-5.27-.002-7.904-.003-2.667 0-5.335-.005-8.002.002-1.307.004-1.994.548-2.024 1.57-.031 1.067.699 1.712 2.004 1.714 5.302.009 10.604.008 15.907 0 1.29-.002 2.06-.662 2.038-1.695-.022-1.009-.738-1.584-2.019-1.588zm13.784.016c-.582-.037-1.169-.007-1.754-.008-.584 0-1.171-.03-1.754.007-.89.056-1.536.708-1.579 1.537-.04.774.508 1.589 1.334 1.65 1.322.1 2.663.108 3.984.006.88-.068 1.385-.88 1.309-1.744-.072-.815-.66-1.393-1.54-1.448zM26.758 47.712c-.017.935.69 1.652 1.637 1.66.92.006 1.69-.747 1.68-1.642-.011-.886-.814-1.649-1.713-1.628a1.637 1.637 0 00-1.604 1.61zm54.94 8.258c-2.753-.026-5.019 2.223-5.006 4.968.013 2.714 2.216 4.895 4.958 4.907 2.76.013 5.05-2.243 5.03-4.955-.02-2.679-2.263-4.895-4.982-4.92zm.005 6.565c-.945.016-1.664-.683-1.665-1.616a1.624 1.624 0 011.656-1.64c.87.013 1.607.724 1.64 1.583.034.897-.708 1.658-1.631 1.673z" fill="#DF1F19"/></svg>