<svg width="100" height="92" fill="none" xmlns="http://www.w3.org/2000/svg"><path d="M99.862 23.992c-.578-4.025-2.572-7.455-5.424-10.478C88.51 7.228 80.858 3.279 72.553.254c-.34-.124-.936-.1-1.18.096-.37.296-.8.855-.72 1.212.103.458.597.985 1.076 1.209 3.034 1.417 6.189 2.63 9.154 4.153 4.853 2.495 9.243 5.557 12.55 9.733 2.66 3.36 4.09 7.043 3.494 11.276-.505 3.58-1.817 6.92-3.444 10.164-3.47 6.92-8.083 13.205-12.984 19.326-.068.085-.17.148-.405.348v-1.004c-.002-2.17.025-4.34-.012-6.508-.038-2.247-1.886-4.005-4.338-4.155a24.82 24.82 0 00-2.44-.014c-1.812.067-3.167.858-3.977 2.325-.27.489-.573.6-1.116.61-1.516.026-2.39.85-2.43 2.242-.02.683-.022 1.368.01 2.05.097 1.983 1.713 3.572 3.894 3.858 2.054.268 4.198-.897 4.76-2.783.293-.98.24-2.053.282-3.085.047-1.205-.743-1.924-1.905-2.445.77-.106 1.476-.113 2.183-.105 1.583.017 2.156.547 2.158 2.01.005 3.299.024 6.598-.023 9.896-.007.483-.227 1.049-.552 1.43-7.989 9.365-16.654 18.185-25.773 26.638-1.206 1.117-1.21 1.672-.034 2.732h1.172c8.848-8.067 17.16-16.577 25.166-25.592v4.844c-.848 0-1.653-.018-2.457.004-1.106.03-1.624.486-1.626 1.48a1969.38 1969.38 0 000 12.394c.003.947.527 1.482 1.529 1.492a373 373 0 008.2-.003c.85-.01 1.437-.457 1.46-1.272.04-1.426.044-2.853-.006-4.278-.026-.759-.549-1.197-1.392-1.214-.846-.016-1.337.414-1.459 1.161-.061.38-.038.77-.041 1.156-.006.579-.002 1.157-.002 1.727h-5.298v-9.915h5.301c0 .882-.023 1.707.006 2.531.034.947.665 1.555 1.52 1.522.824-.032 1.376-.611 1.393-1.533.023-1.218.022-2.437.002-3.656-.02-1.164-.5-1.577-1.805-1.595-.766-.011-1.532-.002-2.35-.002 0-2.617-.03-5.082.025-7.546.01-.487.235-1.034.54-1.442 3.494-4.687 7.15-9.277 10.507-14.045 3.222-4.576 5.897-9.44 7.557-14.701.555-1.757.859-3.58 1.277-5.373v-3.39c-.048-.074-.127-.146-.138-.225zM71.104 54.22c-.404.234-1.178.274-1.602.077-1.18-.548-.732-1.609-.768-2.564h3.054c-.033.894.344 1.891-.684 2.486zM51.159 29.757a78.871 78.871 0 003.635-1.277c.785-.303 1.114-1.03.813-1.691-.322-.705-.94-.951-1.745-.797-.252.048-.494.145-.738.224-3.891 1.243-7.754 2.566-11.678 3.715-13.088 3.832-26.41 6.88-39.776 9.777-.603.13-1.116.605-1.67.92v.892c.554.816 1.288 1.004 2.326.767 4.41-1.01 8.847-1.916 13.254-2.935 11.995-2.776 23.928-5.75 35.579-9.595zm-27.534 1.357c2.05.036 4.1.035 6.15-.003.89-.017 1.492-.465 1.497-1.334.018-3.209.022-6.418-.002-9.627-.007-.839-.548-1.276-1.492-1.32-.51-.023-1.022-.003-1.582-.003-.023-.367-.054-.627-.054-.886-.003-4.576-.004-9.152 0-13.729 0-1.243.393-1.522 1.85-1.289-1.018 1.022-.769 2.255-.627 3.409.212 1.723 1.976 2.97 3.85 2.89 1.864-.078 3.386-1.397 3.543-3.103.05-.561.052-1.13.019-1.692-.068-1.134-.73-1.791-1.937-2.022-.262-.05-.622-.137-.732-.313C33.106.483 31.534.082 29.639.122c-2.889.062-4.427 1.438-4.428 4.11-.003 4.516 0 9.033 0 13.55v1.041c-.563 0-1.012-.01-1.46.002-1.15.03-1.671.488-1.675 1.533-.013 3.09-.015 6.181.002 9.271.005.935.533 1.466 1.547 1.485zM34.022 5.11c-.223.52-.338.946-.589 1.29-.085.116-.665.125-.752.012-.263-.342-.394-.768-.642-1.302h1.983zm-8.947 16.442h3.223v6.857h-3.223v-6.857z" fill="#DF1F19"/><path d="M50.063 2.878c.317.151.634.301.95.455 3.829 1.862 7.47 3.984 10.729 6.612 1.835 1.48 3.54 3.072 4.534 5.176.896 1.896.596 3.632-1 5.078-.845.766-1.827 1.434-2.84 2.009-1.266.719-2.633 1.287-3.944 1.94-.818.409-1.078 1.116-.708 1.796.355.652 1.11.938 1.895.612 2.52-1.046 4.985-2.195 7.069-3.895 1.792-1.463 2.902-3.258 2.967-5.416-.068-2.366-1.02-4.369-2.637-6-1.803-1.818-3.686-3.644-5.845-5.076-3.119-2.068-6.5-3.81-9.804-5.64-1.145-.634-1.982-.454-2.443.325-.467.79-.114 1.454 1.077 2.024zm24.112 4.954c-.294-.25-.707-.381-1.243-.66-.429.346-.96.611-1.218 1.02-.364.579-.06 1.132.464 1.585a430.763 430.763 0 014.51 3.934c.78.691 1.576.81 2.234.283.697-.56.705-1.371-.1-2.104a182.304 182.304 0 00-4.648-4.059zM10.533 72.218c-.435-.167-1.15-.173-1.524.053-1.892 1.144-3.724 2.37-5.552 3.6-.751.504-.864 1.253-.38 1.872.47.6 1.328.753 2.07.28 1.862-1.184 3.71-2.39 5.528-3.63.33-.224.496-.65.822-1.101-.343-.406-.57-.923-.964-1.074zM61.128 2.645c1.793 1.065 3.59 2.126 5.386 3.187.914.54 1.718.477 2.239-.17.53-.66.326-1.473-.599-2.036-1.78-1.082-3.586-2.13-5.39-3.18C62.496.29 62.18.208 61.655 0c-.381.33-.932.624-1.178 1.062-.357.636.008 1.202.65 1.583zm18.766 22.528c.712.495 1.55.339 2.188-.432.989-1.195 1.505-2.543 1.661-4.079-.25-.974-.447-1.964-.77-2.918-.213-.631-.849-1.006-1.53-.795-.471.147-.922.594-1.166 1.012-.16.273.02.747.133 1.108.467 1.485.319 2.857-.704 4.138-.605.758-.495 1.492.188 1.966zM43.79 50.126c-.474-.146-1.2-.115-1.6.133-1.825 1.126-3.584 2.343-5.346 3.553-.792.545-.928 1.316-.418 1.936.513.625 1.347.727 2.153.198a207.925 207.925 0 005.243-3.532c.375-.264.596-.71.982-1.189-.39-.449-.627-.98-1.014-1.1zm11.996-6.357c-.363-.434-.587-.956-.981-1.106-.433-.164-1.152-.16-1.52.072-1.873 1.18-3.685 2.441-5.49 3.706-.717.502-.808 1.309-.31 1.892.5.589 1.336.703 2.085.205a208.65 208.65 0 005.31-3.63c.354-.252.553-.684.906-1.14zm13.387-10.901c.13.384.718.64 1.058.914.446-.139.734-.16.92-.298 1.896-1.387 3.799-2.768 5.646-4.207.588-.458.563-1.134.093-1.69-.503-.596-1.246-.763-1.894-.306-1.897 1.338-3.768 2.711-5.561 4.161-.32.259-.405 1.001-.262 1.425zM20.329 64.843c-2.014 1.253-4 2.55-5.913 3.928-.325.234-.418 1.004-.275 1.43.127.38.73.628 1.041.87.45-.112.705-.116.877-.228 1.986-1.29 3.985-2.567 5.923-3.918.608-.423.622-1.105.155-1.688-.465-.58-1.177-.787-1.808-.394zm11.056-7.339c-2.006 1.262-3.985 2.568-5.889 3.955-.315.23-.384 1.01-.23 1.432.14.38.743.617 1.068.861.44-.128.689-.145.862-.258 1.954-1.28 3.92-2.548 5.831-3.881.652-.455.672-1.148.179-1.757-.472-.583-1.204-.74-1.82-.352zm32.918-22.42c-1.941 1.294-3.863 2.62-5.705 4.028-.325.249-.418 1.011-.272 1.437.132.383.739.63 1.088.9.444-.145.725-.175.92-.31 1.917-1.324 3.846-2.637 5.713-4.02.64-.473.603-1.18.09-1.762-.493-.56-1.22-.682-1.834-.273z" fill="#DF1F19"/></svg>