<svg width="117" height="120" fill="none" xmlns="http://www.w3.org/2000/svg"><path d="M92.589 48.6c-2.666-16.389-16.931-28.935-33.52-29.05-14.387-.1-24.926 6.662-31.748 19.274-.889 1.643-.707 2.687.419 3.216 1.082.51 1.894.021 2.722-1.636 5.92-11.85 18.751-18.8 31.69-17.166C79.938 25.485 92.42 42.669 89.167 60.33c-1.259 6.83-4.4 12.6-9.216 17.544-2.72 2.794-5.056 5.847-5.908 9.795-.056.26-.569.602-.87.603-9.725.031-19.451.02-29.177.04-.661.002-.846-.28-.987-.85-.553-2.232-1.606-4.232-3.06-5.998a72.086 72.086 0 00-3.656-4.112c-3.378-3.515-5.936-7.523-7.5-12.151-1.775-5.249-2.145-10.603-1.206-16.056.25-1.456-.225-2.365-1.328-2.56-1.084-.192-1.904.428-2.108 1.67-1.802 10.974.637 20.845 7.76 29.46 1.69 2.044 3.58 3.923 5.275 5.964 1.854 2.232 2.785 4.82 2.753 7.774-.036 3.319.07 6.639.112 9.959.036 2.775 1.06 5.149 3.217 6.866 1.016.809 1.277 1.626 1.272 2.844-.018 4.312 2.722 7.66 6.948 8.673.186.044.36.135.54.205h13.36c.81-.274 1.663-.458 2.418-.838 3.433-1.726 5.121-4.541 5.112-8.39-.001-.694-.2-1.385.606-1.967 2.613-1.887 3.87-4.508 3.848-7.746-.023-3.398.025-6.797-.037-10.194-.046-2.52.643-4.803 2.11-6.805 1.152-1.569 2.423-3.061 3.744-4.492 8.14-8.811 11.324-19.138 9.4-30.967zm-28.084 67.836c-3.862.12-7.732.117-11.594 0-2.978-.09-5.16-2.854-4.756-5.835h21.033c.758 2.631-1.635 5.74-4.683 5.835zm9.258-18.732c-1.208 0-2.441-.007-3.675.001-1.425.01-2.163.594-2.179 1.708-.017 1.151.767 1.792 2.233 1.804 1.202.01 2.404.002 3.595.002.253 3.021-2.217 5.789-5.368 5.834a684.38 684.38 0 01-19.33-.001c-3.146-.045-5.637-2.852-5.348-5.832h1.252l15.582-.001c.313 0 .628.018.937-.016 1.017-.113 1.69-.827 1.69-1.762-.002-1-.703-1.713-1.813-1.725-2.734-.028-5.468-.011-8.201-.012h-9.465v-5.791h30.09v5.79zm-17.165-84.56c-.014-3.664-.016-7.328.002-10.992C56.606.779 57.287-.01 58.37 0c1.077.01 1.732.797 1.747 2.178.02 1.87.005 3.742.005 5.613 0 1.793.014 3.586-.004 5.379-.014 1.38-.66 2.189-1.716 2.22-1.096.032-1.799-.81-1.804-2.246zM15.386 58.358c0 1.03-.787 1.751-2.054 1.759a840.8 840.8 0 01-11.342-.003c-1.265-.01-2.023-.756-1.989-1.81.033-1.014.762-1.666 1.986-1.683 1.948-.026 3.897-.007 5.846-.007 1.832 0 3.663-.017 5.495.005 1.27.016 2.058.708 2.058 1.739zm101.327.048c-.029 1.043-.788 1.705-2.093 1.713-3.702.02-7.405.018-11.107.002-1.366-.006-2.177-.686-2.188-1.748-.01-1.065.802-1.743 2.162-1.756 1.831-.016 3.663-.004 5.495-.004 1.871 0 3.742-.014 5.612.005 1.361.014 2.149.7 2.119 1.788zM28.702 89.84c-.362.633-.541 1.171-.899 1.535a809.727 809.727 0 01-8.093 8.107c-.836.827-1.88.853-2.599.15-.72-.704-.716-1.778.096-2.598 2.713-2.743 5.418-5.495 8.213-8.152.434-.412 1.376-.573 1.983-.429.494.117.839.864 1.299 1.387zm-11.43-70.093c-.863-.887-.903-1.954-.14-2.678.733-.696 1.75-.654 2.598.185a806.766 806.766 0 018.093 8.11c.356.362.525.908.88 1.546-.47.515-.828 1.253-1.326 1.363-.608.135-1.52-.047-1.975-.455-1.708-1.534-3.284-3.215-4.91-4.842-1.074-1.075-2.16-2.139-3.22-3.229zm71.448 8.184c-.702-.74-.66-1.744.186-2.598a949.099 949.099 0 018.108-8.095c.338-.333.826-.514 1.437-.882.534.43 1.154.731 1.465 1.227.462.732.207 1.498-.409 2.114l-5.043 5.043c-1.02 1.02-2.026 2.053-3.063 3.055-.906.875-1.947.91-2.681.136zm10.844 69.174c.305.31.448.779.778 1.375-.415.512-.717 1.133-1.214 1.44-.731.454-1.494.205-2.112-.416-1.842-1.85-3.69-3.694-5.536-5.54-.882-.882-1.782-1.747-2.639-2.651-.799-.844-.798-1.894-.052-2.595.708-.668 1.724-.663 2.514.117a857.674 857.674 0 018.26 8.27z" fill="#215384"/><path d="M72.899 47.572c1.032.777 1.094 2.049.139 3.301-.995 1.304-2.017 2.585-3.008 3.891-.793 1.043-.755 2.019.068 2.695.862.709 1.855.522 2.717-.559a205.43 205.43 0 003.089-3.977c2.064-2.722 1.712-6.17-.814-8.127-2.549-1.975-5.96-1.477-8.072 1.207-1.883 2.392-3.74 4.807-5.608 7.21-1.838 2.366-3.678 4.73-5.608 7.213-.586-.64-1.034-1.128-1.478-1.619-1.73-1.91-3.415-3.863-5.2-5.72-2.119-2.205-5.459-2.313-7.733-.349-2.256 1.95-2.698 5.433-.733 7.69a472.52 472.52 0 0011.624 12.858c2.074 2.211 5.926 2.124 7.873-.188 2.563-3.043 4.931-6.25 7.369-9.398.539-.696.642-1.568-.025-2.12-.488-.405-1.302-.547-1.972-.55-.344-.001-.748.513-1.028.87-2.171 2.761-4.31 5.548-6.477 8.314-1.056 1.348-2.423 1.52-3.493.352a1004.88 1004.88 0 01-10.99-12.17c-1.163-1.31-.416-3.36 1.267-3.435.693-.032 1.592.431 2.094.958 2.424 2.543 4.74 5.19 7.103 7.789 1.557 1.712 2.428 1.672 3.826-.13 3.948-5.09 7.894-10.18 11.85-15.262 1.006-1.291 2.163-1.539 3.22-.744z" fill="#DF1F19"/></svg>