<svg width="100" height="91" fill="none" xmlns="http://www.w3.org/2000/svg"><path d="M97.888 29.596c-4.547 1.077-9.09 2.174-13.643 3.224-.878.202-1.377.652-1.72 1.462-1.528 3.603-3.128 7.176-4.642 10.783-.272.648-.644.882-1.295.956-2.546.292-5.087.636-7.634.921-.87.098-1.464.43-1.903 1.224-1.998 3.61-4.05 7.191-6.084 10.781-.15.265-.32.518-.543.873l-5.56-9.768c2.258-1.596 2.434-2.395 1.104-4.745-.373-.659-.742-1.319-1.127-2.005.214-.132.362-.225.512-.315 1.517-.91 1.82-2.028.964-3.575-.272-.49-.554-.973-.831-1.46l-5.234-9.208c1.579-1.295 1.97-2.51 1.188-3.94-1.158-2.12-2.37-4.213-3.58-6.306-.462-.798-1.184-1.024-1.876-.656-.71.379-.9 1.142-.438 1.973.946 1.7 1.918 3.385 2.878 5.077.241.425.476.854.743 1.335l-14.323 7.92-8.042-14.129 14.33-7.92c.62 1.078 1.158 2.059 1.741 3.013.445.728 1.165.925 1.831.564.659-.355.876-1.085.497-1.829-.333-.655-.75-1.27-1.072-1.931-.79-1.616-1.86-2.76-3.944-2.315-.31-1.56-.609-3.024-.892-4.491-.23-1.192-.529-2.342-1.359-3.304C37.103.842 35.985.397 34.827 0h-1.79c-3.813 2.037-7.692 3.964-11.418 6.145-2.82 1.65-3.107 5.559-.754 7.865 1.37 1.343 2.83 2.597 4.27 3.91-1.234 1.333-1.172 2.7-.263 4.138.55.87 1.023 1.786 1.571 2.753-.795.454-1.566.884-2.326 1.331-1.493.88-1.946 2.134-1.203 3.66.294.604-.07.884-.338 1.225-1.762 2.233-2.588 4.729-2.26 7.566.222 1.922 1.063 3.57 2.2 5.123 2.562 3.497 1.725 7.989-1.907 10.421-.887.594-1.8 1.15-2.701 1.722-2.731 1.73-13.796 3.452-16.52 5.194-.49.313-.927.705-1.388 1.06v1.059c.894.872 1.399 1.002 2.24.471 3.942-2.487 16.239-4.935 20.125-7.504 3.434-2.27 5.071-6.44 3.99-10.364-.41-1.489-1.267-2.9-2.125-4.217-1.809-2.779-1.699-6.593.394-8.623 1.593 1.559 2.402 1.652 4.408.512.566-.322 1.135-.639 1.758-.989.43.752.84 1.461 1.245 2.172 1.18 2.068 2.081 2.435 4.445 1.762.62 1.081 1.244 2.178 1.878 3.27.524.905 1.24 1.205 1.964.837.747-.38.897-1.194.373-2.132-.618-1.104-1.25-2.2-1.91-3.36l9.087-5.024 6.106 10.727-9.082 5.02c-.497-.864-.937-1.662-1.41-2.441-.473-.78-1.2-1.01-1.883-.634-.694.38-.885 1.11-.457 1.905.46.856.945 1.7 1.438 2.538.858 1.46 2.017 1.775 3.55.988.174-.09.36-.159.571-.25.434.759.887 1.453 1.242 2.193 1.02 2.117 2.783 2.374 4.403 1.36.035-.022.108.015.209.032 1.752 3.075 3.426 6.227 5.32 9.245.89 1.416.984 2.538-.033 3.851-.347.449-.628.76-1.228.848-1.56.23-3.107.557-4.665.807-.822.132-1.328.517-1.585 1.326a100.65 100.65 0 01-1.737 4.996c-.116.306-.495.663-.808.724-2.893.564-5.792 1.109-8.704 1.569-1.09.171-1.675.632-1.961 1.698-.915 3.405-1.933 6.782-2.849 10.187-.21.78-.495 1.057-1.362 1.052-7.578-.042-23.484-.015-31.062-.038-.822-.003-1.452.196-1.885.896v.882c.434.698 1.064.897 1.886.896 23.423-.017 55.174-.013 78.597-.014.209 0 .422.018.626-.015.742-.118 1.195-.536 1.201-1.297.007-.762-.437-1.193-1.18-1.316-.261-.043-.535-.018-.804-.018H67.48c1.395-1.77 2.652-3.4 3.954-4.994.262-.32.657-.602 1.05-.74 4.43-1.56 8.901-3.016 13.302-4.656 2.639-.983 5.286-1.53 8.106-1.314 1.114.084 2.24.013 3.365.013V87.7h-1.028c-3.222 0-6.445-.002-9.667.002-1.065.002-1.673.468-1.702 1.277-.03.847.601 1.365 1.701 1.367 3.91.004 7.818.005 11.727 0 1.251-.002 1.71-.462 1.71-1.718.003-19.144.003-38.288 0-57.431 0-1.46-.648-1.947-2.11-1.6zM22.845 12.233c-1.337-1.268-1.095-3.178.526-4.093a763.503 763.503 0 019.266-5.121c.38-.208.829-.293 1.029-.362 1.443-.02 2.499.756 2.765 1.962.43 1.948.813 3.906 1.175 5.868.038.205-.138.57-.323.675a631.193 631.193 0 01-9.265 5.125c-.198.107-.642.029-.822-.129a141.206 141.206 0 01-4.35-3.925zm4.161 19.316l-1.752-2.995 2.504-1.426 1.72 3.003-2.472 1.418zM50.62 49.282l-1.59-2.79 3.44-1.91 1.593 2.79-3.443 1.91zm46.694-16.835c0 2.715.006 5.295-.011 7.876-.001.207-.156.415-.248.618-.022.05-.08.086-.123.126l-2.453 2.282c-1.222-.459-2.448-.907-3.662-1.386a.8.8 0 01-.401-.428c-.756-2.067-1.492-4.141-2.23-6.214-.067-.188-.111-.384-.187-.648l9.315-2.226zM50.417 79.593c-.795 2.488-1.521 4.997-2.313 7.486-.079.25-.432.591-.661.594-3.514.037-7.027.026-10.66.026.962-3.372 1.877-6.617 2.831-9.851.068-.229.406-.49.658-.539a142.29 142.29 0 016.062-1.067c.398-.06.918.103 1.257.339.85.59 1.615 1.298 2.444 1.92.402.302.55.563.382 1.092zm20.081-8.65c.417 2.669.796 5.344 1.187 8.018.016.114.002.232.002.46-1.66.208-2.328 1.614-3.237 2.742-1.354 1.68-2.67 3.388-4.029 5.063-.178.22-.51.451-.771.453-4.263.028-8.525.02-12.903.02.859-2.831 1.679-5.527 2.495-8.223.395-1.303.309-1.562-.763-2.417a294.05 294.05 0 01-1.938-1.563.214.214 0 01-.063-.087c.694-2.001 1.39-3.959 2.045-5.93.174-.525.393-.811 1.011-.894 1.415-.189 2.807-.547 4.222-.728 1.026-.132 1.712-.576 2.11-1.508.134-.315.346-.597.601-1.026l2.495 4.373c.19.332.364.675.575.994.465.702 1.192.904 1.846.535.642-.363.855-1.1.467-1.843-.435-.835-.922-1.644-1.388-2.463-.729-1.28-1.47-2.554-2.175-3.847-.122-.223-.21-.595-.104-.787 1.188-2.167 2.416-4.313 3.675-6.539 1.868 1.961 3.717 3.829 5.472 5.78.766.85 1.581 1.234 2.728 1.116.843-.087 1.703-.017 2.748-.017l-2.055 2.241c-1.2 1.308-2.372 2.642-3.615 3.91-.631.643-.77 1.324-.638 2.166zm26.745 2.42c-2.335 0-4.627-.03-6.917.016a7.363 7.363 0 00-2.173.372c-4.282 1.444-8.549 2.935-12.822 4.407-.3.104-.61.183-1.004.3-.277-1.868-.406-3.695-.845-5.445-.46-1.836.063-3.12 1.403-4.407 1.855-1.782 3.498-3.778 5.267-5.65a1.68 1.68 0 011.049-.475c2.384-.094 4.773-.094 7.156-.208.681-.033 1.417-.22 2.01-.547 2.284-1.258 4.52-2.6 6.876-3.97v15.606zm-.524-18.368c-2.5 1.43-4.98 2.896-7.48 4.326-.317.182-.713.31-1.077.32-4.592.126-9.185.215-13.777.344-.593.017-.99-.16-1.387-.585-1.893-2.033-3.818-4.038-5.762-6.085.59-1.046 1.17-1.974 1.643-2.953.297-.615.729-.836 1.371-.911 2.516-.293 5.025-.656 7.544-.913 1.101-.113 1.757-.54 2.192-1.587 1.49-3.586 3.07-7.134 4.62-10.695.137-.315.296-.62.554-1.158.22.478.364.74.463 1.018.805 2.242 1.618 4.48 2.389 6.733.25.728.673 1.186 1.415 1.447 1.459.511 2.917 1.035 4.331 1.652 1.023.446 1.84.37 2.529-.517.25-.32.475-.66.712-.99l.286.21c.01.192.027.384.027.576.002 2.91-.012 5.822.014 8.732.005.51-.172.787-.607 1.036z" fill="#DF1F19"/><path d="M42.136 19.271c.023-1.29-1.059-1.931-2.034-1.406a467.213 467.213 0 00-7.772 4.299c-.74.417-.92 1.158-.539 1.804.38.643 1.115.873 1.854.471a394.48 394.48 0 007.765-4.312c.365-.208.578-.674.726-.856zm-4.146 7.932c1.205-.63 2.407-1.27 3.56-1.985.382-.237.609-.716.772-.918-.031-1.262-1.059-1.858-2.01-1.375a76.892 76.892 0 00-3.652 2.007c-.743.43-.948 1.143-.59 1.79.377.679 1.128.896 1.92.481z" fill="#DF1F19"/></svg>