<svg width="100" height="92" fill="none" xmlns="http://www.w3.org/2000/svg"><path d="M98.05 40.318c-.265-.155-.537-.56-.547-.857a76.94 76.94 0 010-4.93c.009-.299.276-.703.54-.86 1.26-.75 1.95-1.813 1.952-3.295.006-6.279.008-12.558-.002-18.836-.003-1.438-.638-2.552-1.92-3.185-.512-.253-.617-.557-.605-1.065.029-1.15.016-2.301.008-3.452-.017-2.318-1.39-3.74-3.691-3.802C92.777.009 91.767.02 90.758.03c-2.55.03-3.884 1.398-3.895 3.993-.006 1.272-.001 2.545-.001 3.848H13.136c0-1.434.018-2.806-.005-4.179C13.097 1.605 11.83.191 9.79.061A31.494 31.494 0 005.886.06C3.849.184 2.55 1.62 2.525 3.675c-.016 1.25.012 2.5-.016 3.748-.006.258-.11.674-.278.743C1.082 8.634.493 9.58 0 10.632v20.71c.507 1.037 1.088 1.99 2.238 2.45.166.067.267.488.27.747.025 1.64.03 3.28-.004 4.92-.006.265-.172.665-.378.764-1.107.535-1.72 1.451-2.126 2.56v3.945c.482.668 1.032 1.225 1.944.886.895-.331.996-1.092.993-1.935-.008-2.734.004-2.735 2.726-2.735h21.745c-.376.411-.599.673-.84.916-6.096 6.16-12.2 12.311-18.28 18.486-.52.527-1.026.817-1.777.753-.743-.064-1.495-.013-2.244-.015-1.301-.003-1.336-.034-1.336-1.307-.002-2.827-.013-5.653.006-8.479.006-.843-.098-1.605-.992-1.934-.91-.336-1.464.215-1.944.887v11.046c.589.753 1.07 1.649 1.803 2.213.543.418.732.748.73 1.394-.02 6.87-.015 13.741-.01 20.612.001 2.504 1.37 3.899 3.854 3.936.879.014 1.758.005 2.637.002 2.82-.01 4.12-1.32 4.121-4.164.003-6.673.001-13.347.001-20.02V66.1h73.731c0 1.427-.023 2.8.008 4.171.02.876.6 1.464 1.372 1.499.773.035 1.399-.512 1.512-1.371.052-.389.029-.787.03-1.182.003-1.036.001-2.072.001-3.11h4.647c.05.091.078.118.078.146.011 7.133.018 14.266.035 21.399.002.597-.282.836-.828.84-.911.005-1.826-.045-2.733.017-.96.065-1.227-.34-1.215-1.268.042-3.353.023-6.706.011-10.06-.004-1.162-.558-1.832-1.457-1.844-.901-.013-1.46.656-1.463 1.81-.01 3.518-.017 7.036.002 10.553.012 2.272 1.383 3.672 3.642 3.746.943.031 1.887.011 2.831.008 2.815-.01 4.135-1.333 4.136-4.152.001-6.838 0-13.676 0-20.514 0-.446-.076-.857.5-1.122 1.423-.653 2.024-1.863 2.023-3.415-.004-6.18-.003-12.36 0-18.54.001-1.517-.639-2.63-1.95-3.394zM96.078 10.89c.678-.014 1.003.227 1 .975a3324.29 3324.29 0 000 18.223c0 .665-.235.972-.9.971-7.738-.01-15.476-.013-23.213-.022-.056 0-.111-.054-.48-.247.368-.252.647-.383.851-.589 6.167-6.216 12.319-12.448 18.506-18.645.362-.362.983-.574 1.508-.634.9-.102 1.818-.013 2.728-.032zM94.49 34.075v5.853h-4.642v-5.853h4.642zm-4.66-30.37c.013-.249.45-.659.715-.678a20.719 20.719 0 013.21 0c.28.024.738.467.755.738.078 1.335.035 2.677.035 4.093h-4.748c0-1.418-.037-2.788.034-4.153zM43.6 10.879c6.218.027 12.435.015 18.652.015h1.238c-.375.412-.578.653-.8.877-6.12 6.184-12.25 12.361-18.355 18.561-.525.533-1.052.746-1.792.742-6.217-.026-12.434-.015-18.652-.015h-1.238c.373-.409.579-.65.8-.873C29.575 24 35.703 17.824 41.81 11.624c.525-.533 1.05-.748 1.791-.745zM5.486 3.659c.008-.224.362-.61.572-.621a31.433 31.433 0 013.502-.005c.226.013.604.433.615.68.06 1.365.028 2.734.028 4.18H5.458c0-1.438-.026-2.838.027-4.235zm-1.66 7.234c3.089.009 6.178.006 9.266.011.087 0 .174.05.148.043L2.929 21.328v-5.426c0-1.346.022-2.693-.008-4.039-.014-.666.238-.972.903-.97zM10.16 39.91H5.53v-5.813h4.63v5.813zm-5.995-8.838c-.897.006-1.32-.232-1.252-1.231.088-1.308-.295-2.764.159-3.897.44-1.096 1.678-1.87 2.574-2.776C9.484 19.286 13.32 15.4 17.18 11.54c.313-.312.81-.615 1.223-.617 6.442-.039 12.884-.027 19.326-.024.12 0 .241.03.563.073-.333.354-.527.568-.73.774-6.143 6.204-12.29 12.401-18.417 18.621-.502.51-1.001.713-1.708.708-4.425-.03-8.85-.03-13.275-.002zm9.064 8.835v-5.826c.398-.02.805-.06 1.213-.06 13.83-.003 27.66-.003 41.491-.004.358 0 .718.015 1.073-.023.939-.1 1.464-.68 1.427-1.54-.035-.815-.561-1.354-1.477-1.377-1.529-.039-3.059-.016-4.588-.017-1.45-.002-2.9 0-4.564 0 .385-.42.594-.661.817-.887 6.12-6.183 12.248-12.358 18.35-18.558.53-.538 1.06-.738 1.796-.735 6.086.025 12.171.014 18.256.014h1.235c-.401.438-.61.682-.836.91-6.12 6.182-12.247 12.357-18.352 18.555-.5.507-.99.75-1.704.716-1.169-.057-2.343-.023-3.514-.013-1.172.011-1.835.521-1.871 1.413-.037.925.666 1.535 1.862 1.538 5.304.01 10.608.005 15.913.005h7.05v5.89H13.228zm-3.02 27.225l-.001 20.011c0 1.306-.042 1.347-1.296 1.352-.878.004-1.757.002-2.635-.003-.545-.003-.83-.24-.83-.838.018-7.13.024-14.26.034-21.39 0-.028.024-.056.083-.187h4.644v1.055zm21.53-4.07c-6.506.03-13.012.022-19.518.018-.089 0-.178-.035-.424-.086.298-.316.493-.532.698-.738C18.657 56.03 24.818 49.8 30.999 43.593c.311-.313.806-.619 1.217-.621 6.473-.038 12.946-.026 19.42-.024.095 0 .19.025.44.06-.225.268-.38.482-.564.667-6.231 6.298-12.461 12.596-18.71 18.876-.266.268-.705.51-1.065.511zm24.724.038c-6.57-.026-13.14-.015-19.962-.015.365-.4.569-.639.79-.862 6.14-6.204 12.287-12.401 18.414-18.62.474-.481.944-.675 1.616-.673 6.31.025 12.622.015 18.933.015h1.073c-.36.398-.579.658-.817.899-6.117 6.181-12.242 12.355-18.344 18.551-.501.509-.996.708-1.703.705zm39.823-.017h-9.47l10.253-10.356c0 3.053-.005 6.265.004 9.477.002.56-.206.878-.787.878zm-1.857-12.241c-3.982 3.68-7.697 7.656-11.5 11.532-.493.503-.975.732-1.694.728-6.12-.03-12.239-.017-18.358-.017H61.67c.345-.38.528-.599.728-.8 6.19-6.254 12.376-12.512 18.59-18.742.322-.323.88-.569 1.332-.573 4.524-.042 9.049 0 13.573-.045.977-.01 1.095.39 1.214 1.267.38 2.785-.623 4.75-2.679 6.65z" fill="#DF1F19"/></svg>