<svg width="88" height="120" fill="none" xmlns="http://www.w3.org/2000/svg"><path d="M85.245 37.413a470.135 470.135 0 00-5.218-6.328c-.965-1.15-1.487-2.458-1.624-3.936-.25-2.681-.505-5.363-.75-8.045-.453-4.967-3.958-8.545-8.883-9.043-2.448-.248-4.896-.525-7.351-.693-2.107-.145-3.92-.818-5.515-2.248-1.773-1.59-3.659-3.054-5.51-4.556-4.254-3.452-9-3.414-13.226.086-1.956 1.62-3.925 3.224-5.874 4.852-1.171.978-2.468 1.593-4.016 1.727-2.881.248-5.756.564-8.633.85-4.492.45-8.107 4.07-8.554 8.58-.25 2.524-.545 5.046-.713 7.576-.144 2.155-.876 3.98-2.33 5.6-1.642 1.83-3.169 3.765-4.711 5.683-3.13 3.891-3.112 8.697.036 12.57a667.213 667.213 0 005.218 6.33c.925 1.111 1.503 2.344 1.635 3.803.25 2.76.527 5.517.83 8.272.59 5.365 4.177 8.746 9.578 9.104 1.461.097 2.916.294 4.48.456-.228.554-.386.948-.55 1.341-4.021 9.603-8.038 19.208-12.07 28.806-.425 1.013-.53 1.965.242 2.842.772.879 1.73.908 2.79.605 3.263-.936 6.542-1.817 9.798-2.778.744-.22 1.115-.089 1.482.597a309.986 309.986 0 004.635 8.404c.45.781 1.14 1.423 1.72 2.129h1.408c.616-.712 1.463-1.327 1.814-2.152 4.285-10.079 8.485-20.195 12.754-30.281.312-.737.905-1.42 1.52-1.95 2.013-1.731 4.096-3.38 6.152-5.061.393-.321.777-.655 1.184-.957 2.176-1.617 2.72-1.48 3.726.92l10.75 25.67c.173.417.329.84.559 1.43l-7.906-2.201c-2.653-.74-3.954-.191-5.296 2.237l-3.954 7.154c-.343-.782-.604-1.358-.848-1.941-1.582-3.775-3.167-7.548-4.735-11.328-.375-.904-.9-1.56-1.986-1.478-1.304.098-1.923 1.305-1.344 2.72 1.136 2.778 2.31 5.541 3.468 8.31.933 2.229 1.803 4.487 2.83 6.673.39.831 1.139 1.496 1.724 2.236h1.408c.59-.647 1.315-1.216 1.744-1.956a264.599 264.599 0 004.693-8.506c.385-.724.75-.897 1.551-.658 3.291.979 6.605 1.881 9.911 2.811 1.018.287 1.951.18 2.671-.668.68-.799.706-1.697.296-2.633-.094-.214-.177-.433-.267-.649-3.952-9.42-7.905-18.84-11.855-28.263-.185-.442-.338-.898-.542-1.445 1.702-.163 3.253-.327 4.808-.459 5.047-.427 8.64-3.852 9.226-8.856.222-1.899.466-3.805.509-5.713.072-3.223 1.021-6 3.349-8.334 1.373-1.377 2.526-2.977 3.756-4.493 3.231-3.982 3.237-8.778.008-12.764zm-52.43 77.426c-1.464-2.651-2.777-5.04-4.102-7.422-1.187-2.133-2.607-2.722-4.974-2.062-2.621.731-5.238 1.476-8.025 2.262.124-.413.181-.694.29-.954 3.806-9.09 7.63-18.173 11.407-27.275.353-.85.76-1.118 1.555-.694.718.382 1.467.735 2.108 1.226 1.362 1.044 2.675 2.154 3.987 3.262 2.632 2.222 5.187 4.585 9.207 4.318l-11.452 27.34zM82.41 48.001c-1.282 1.576-2.477 3.239-3.894 4.683-2.713 2.762-3.79 6.074-3.912 9.852-.068 2.1-.319 4.204-.626 6.286-.407 2.756-2.319 4.684-5.087 5.065-2.784.383-5.59.641-8.393.853-2.429.183-4.536 1.01-6.392 2.585-2.084 1.77-4.219 3.48-6.33 5.218-1.16.956-2.482 1.451-4.08 1.418-1.433.03-2.732-.537-3.885-1.484-1.661-1.363-3.413-2.632-4.955-4.119-2.687-2.59-5.876-3.685-9.538-3.827-2.22-.086-4.444-.333-6.644-.662-2.842-.425-4.788-2.633-5.064-5.496-.281-2.913-.588-5.824-.87-8.737-.19-1.965-.937-3.69-2.184-5.207-1.761-2.142-3.528-4.28-5.292-6.419-2.253-2.733-2.273-5.662-.04-8.4 1.58-1.938 3.13-3.902 4.784-5.774 1.784-2.02 2.686-4.34 2.885-7.002.193-2.567.478-5.128.723-7.692.287-3.008 2.55-5.255 5.564-5.546 2.917-.282 5.831-.589 8.748-.866 2.053-.195 3.83-1.004 5.407-2.308 2.138-1.767 4.275-3.534 6.428-5.283 2.588-2.104 5.546-2.114 8.136-.02 1.974 1.597 3.962 3.181 5.868 4.856 2.021 1.775 4.333 2.705 7.003 2.9 2.57.19 5.134.48 7.701.721 2.861.27 5.088 2.22 5.487 5.07.405 2.896.636 5.818.895 8.732.188 2.121.86 4.032 2.22 5.684 1.76 2.142 3.528 4.279 5.292 6.418 2.31 2.802 2.33 5.69.044 8.5zm-10.771-4.186c-.023 16.4-14.206 29.238-30.536 27.64C28.91 70.262 18.71 60.95 16.488 48.977c-2.278-12.266 3.834-24.562 14.954-30.084.245-.121.49-.243.74-.35 1.18-.507 2.12-.229 2.59.76.455.955.078 1.91-1.09 2.463-2.969 1.405-5.63 3.242-7.775 5.727-6.26 7.256-8.107 15.542-4.81 24.544 3.289 8.981 9.955 14.389 19.473 15.693 15.477 2.12 28.57-10.363 27.458-25.913-.938-13.119-12.9-23.314-26.018-22.178-.429.037-.858.076-1.287.081-1.17.013-1.95-.653-1.989-1.678-.036-.978.64-1.705 1.735-1.845 3.293-.422 6.557-.223 9.78.54 12.55 2.97 21.407 14.196 21.389 27.078z" fill="#215384"/><path d="M52.795 35.683c-4.393 4.387-8.785 8.776-13.18 13.162-1.504 1.502-2.176 1.496-3.706-.028-1.466-1.46-2.919-2.934-4.399-4.38-.949-.927-2.001-.988-2.805-.217-.815.781-.77 1.93.18 2.888a662.85 662.85 0 007.386 7.358c.393.384.956.595 1.568.962.634-.448 1.256-.77 1.73-1.24 5.348-5.31 10.674-10.642 16.006-15.968.166-.166.337-.327.49-.504.721-.847.732-1.924.032-2.642-.733-.753-1.755-.776-2.632-.045-.239.2-.45.433-.67.654z" fill="#DF1F19"/></svg>