<svg width="2872" height="19" fill="none" xmlns="http://www.w3.org/2000/svg"><path d="M13.39 0h12.172l-13.39 19H0L13.39 0zm545.325 0h12.173l-13.39 19h-12.173l13.39-19zM286.052 0h12.173l-13.39 19h-12.172l13.389-19zm545.326 0h12.172l-13.389 19h-12.173l13.39-19zm340.832 0h12.17l-13.39 19h-12.17l13.39-19zM149.721 0h12.172l-13.389 19h-12.173l13.39-19zm545.325 0h12.173l-13.39 19h-12.172l13.389-19zM422.384 0h12.172l-13.389 19h-12.173l13.39-19zm545.325 0h12.173l-13.39 19H954.32l13.389-19zm340.831 0h12.17l-13.39 19h-12.17l13.39-19zM81.555 0h12.173l-13.39 19H68.166l13.39-19zm545.326 0h12.172l-13.389 19h-12.173l13.39-19zM354.218 0h12.173l-13.39 19h-12.173l13.39-19zm545.326 0h12.172l-13.39 19h-12.172l13.39-19zm340.826 0h12.17l-13.39 19h-12.17l13.39-19zM217.887 0h12.172l-13.39 19h-12.172l13.39-19zm545.325 0h12.173l-13.39 19h-12.173l13.39-19zm340.828 0h12.17l-13.39 19h-12.17l13.39-19zM490.549 0h12.173l-13.39 19H477.16l13.389-19zm545.321 0h12.18l-13.39 19h-12.17l13.38-19zm340.83 0h12.18l-13.39 19h-12.18l13.39-19zM47.472 0h12.173l-13.39 19H34.083l13.39-19zm545.326 0h12.172l-13.389 19h-12.173l13.39-19zM320.135 0h12.173l-13.39 19h-12.172l13.389-19zm545.326 0h12.172l-13.39 19h-12.172l13.39-19zm340.829 0h12.17l-13.39 19h-12.17l13.39-19zM183.804 0h12.172l-13.389 19h-12.173l13.39-19zm545.325 0h12.173l-13.39 19H715.74l13.389-19zM456.467 0h12.172l-13.39 19h-12.172l13.39-19zm545.323 0h12.17l-13.39 19h-12.168l13.388-19zm340.83 0h12.17l-13.39 19h-12.17l13.39-19zM115.638 0h12.173l-13.39 19h-12.172l13.389-19zm545.326 0h12.172l-13.39 19h-12.172l13.39-19zM388.301 0h12.172l-13.389 19h-12.173l13.39-19zm545.325 0h12.173l-13.39 19h-12.172l13.389-19zm340.824 0h12.18l-13.39 19h-12.17l13.38-19zM251.97 0h12.172l-13.39 19H238.58l13.39-19zm545.325 0h12.172l-13.389 19h-12.173l13.39-19zm340.825 0h12.18l-13.39 19h-12.18l13.39-19zM524.632 0h12.173l-13.39 19h-12.172l13.389-19zm545.328 0h12.17l-13.39 19h-12.17l13.39-19zm340.83 0h12.17l-13.39 19h-12.17l13.39-19zM30.431 0h12.172l-13.39 19H17.042l13.39-19zm545.326 0h12.172l-13.39 19h-12.172l13.39-19zM303.094 0h12.172l-13.389 19h-12.173l13.39-19zm545.325 0h12.173l-13.39 19H835.03l13.389-19zm340.831 0h12.17l-13.39 19h-12.17l13.39-19zM166.762 0h12.173l-13.39 19h-12.172l13.389-19zm545.326 0h12.172l-13.389 19h-12.173l13.39-19zM439.425 0h12.173l-13.39 19h-12.173l13.39-19zm545.326 0h12.172l-13.39 19h-12.172l13.39-19zm340.829 0h12.17l-13.39 19h-12.17l13.39-19zM98.597 0h12.172l-13.39 19H85.207l13.39-19zm545.325 0h12.173l-13.39 19h-12.172l13.389-19zM371.26 0h12.172l-13.39 19H357.87l13.39-19zm545.325 0h12.172l-13.389 19h-12.173l13.39-19zm340.825 0h12.18l-13.39 19h-12.18l13.39-19zM234.928 0h12.173l-13.39 19h-12.173l13.39-19zm545.326 0h12.172l-13.39 19h-12.172l13.39-19zm340.826 0h12.17l-13.39 19h-12.17l13.39-19zM507.591 0h12.172l-13.389 19h-12.173l13.39-19zm545.329 0h12.17l-13.39 19h-12.17l13.39-19zm340.82 0h12.18l-13.39 19h-12.18l13.39-19zM64.514 0h12.172l-13.39 19H51.125l13.39-19zm545.325 0h12.173l-13.39 19H596.45l13.389-19zM337.177 0h12.172l-13.39 19h-12.172l13.39-19zm545.325 0h12.173l-13.39 19h-12.173l13.39-19zm340.828 0h12.17l-13.39 19h-12.17l13.39-19zM200.845 0h12.173l-13.39 19h-12.172l13.389-19zm545.326 0h12.172l-13.39 19h-12.172l13.39-19zM473.508 0h12.172l-13.389 19h-12.173l13.39-19zm545.322 0h12.18l-13.39 19h-12.18l13.39-19zm340.83 0h12.17l-13.39 19h-12.17l13.39-19zM132.68 0h12.172l-13.39 19H119.29l13.39-19zm545.325 0h12.172l-13.389 19h-12.173l13.39-19zM405.342 0h12.173l-13.39 19h-12.172l13.389-19zm545.326 0h12.172l-13.389 19h-12.173l13.39-19zM1291.5 0h12.17l-13.39 19h-12.17l13.39-19zM269.011 0h12.172l-13.389 19h-12.173l13.39-19zm545.325 0h12.173l-13.39 19h-12.172l13.389-19zm340.824 0h12.18l-13.39 19h-12.17l13.38-19zM541.674 0h12.172l-13.39 19h-12.172l13.39-19zM1087 0h12.17l-13.39 19h-12.17L1087 0zm340.83 0H1440l-13.39 19h-12.17l13.39-19zm17.56 0h12.17l-13.39 19H1432l13.39-19zm545.33 0h12.17l-13.39 19h-12.17l13.39-19zm-272.67 0h12.17l-13.38 19h-12.18l13.39-19zm545.33 0h12.17l-13.39 19h-12.17l13.39-19zm340.83 0h12.17l-13.39 19h-12.17l13.39-19zM1581.72 0h12.17l-13.39 19h-12.17l13.39-19zm545.33 0h12.17l-13.39 19h-12.17l13.39-19zm-272.67 0h12.18l-13.39 19h-12.18l13.39-19zm545.33 0h12.17l-13.39 19h-12.17l13.39-19zm340.83 0h12.17l-13.39 19h-12.17l13.39-19zM1513.56 0h12.17l-13.39 19h-12.17l13.39-19zm545.32 0h12.17l-13.39 19h-12.17l13.39-19zm-272.66 0h12.17L1785 19h-12.17l13.39-19zm545.32 0h12.18l-13.39 19h-12.18l13.39-19zm340.83 0h12.17l-13.39 19h-12.17l13.39-19zM1649.89 0h12.17l-13.39 19h-12.17l13.39-19zm545.32 0h12.17l-13.39 19h-12.17l13.39-19zm340.83 0h12.17l-13.39 19h-12.17l13.39-19zm-613.49 0h12.17l-13.39 19h-12.17l13.39-19zm545.32 0h12.18l-13.39 19h-12.17l13.38-19zm340.83 0h12.18l-13.39 19h-12.18l13.39-19zM1479.47 0h12.17l-13.38 19h-12.18l13.39-19zm545.33 0h12.17l-13.39 19h-12.17l13.39-19zm-272.66 0h12.17l-13.39 19h-12.17l13.39-19zm545.32 0h12.17l-13.39 19h-12.17l13.39-19zm340.83 0h12.17l-13.39 19h-12.17l13.39-19zM1615.8 0h12.18l-13.39 19h-12.18l13.39-19zm545.33 0h12.17l-13.39 19h-12.17l13.39-19zm-272.66 0h12.17l-13.39 19h-12.17l13.39-19zm545.32 0h12.17l-13.39 19h-12.17l13.39-19zm340.83 0h12.17l-13.39 19h-12.17l13.39-19zM1547.64 0h12.17l-13.39 19h-12.17l13.39-19zm545.32 0h12.18l-13.39 19h-12.18l13.39-19zM1820.3 0h12.17l-13.39 19h-12.17l13.39-19zm545.33 0h12.17l-13.39 19h-12.17l13.39-19zm340.82 0h12.18l-13.39 19h-12.17l13.38-19zM1683.97 0h12.17l-13.39 19h-12.17l13.39-19zm545.32 0h12.18l-13.39 19h-12.17l13.38-19zm340.83 0h12.18l-13.39 19h-12.18l13.39-19zm-613.49 0h12.17l-13.38 19h-12.18l13.39-19zm545.33 0h12.17l-13.39 19h-12.17l13.39-19zm340.83 0h12.17l-13.39 19h-12.17l13.39-19zM1462.43 0h12.17l-13.39 19h-12.17l13.39-19zm545.33 0h12.17l-13.39 19h-12.17l13.39-19zm-272.67 0h12.18l-13.39 19h-12.18l13.39-19zm545.33 0h12.17l-13.39 19h-12.17l13.39-19zm340.83 0h12.17l-13.39 19h-12.17l13.39-19zM1598.76 0h12.17l-13.38 19h-12.18l13.39-19zm545.33 0h12.17l-13.39 19h-12.17l13.39-19zm-272.66 0h12.17l-13.39 19h-12.17l13.39-19zm545.32 0h12.17l-13.39 19h-12.17l13.39-19zm340.83 0h12.17l-13.39 19h-12.17l13.39-19zM1530.6 0h12.17l-13.39 19h-12.17l13.39-19zm545.32 0h12.17l-13.39 19h-12.17l13.39-19zm-272.66 0h12.17l-13.39 19h-12.17l13.39-19zm545.32 0h12.18l-13.39 19h-12.17l13.38-19zm340.83 0h12.18l-13.39 19h-12.18l13.39-19zM1666.93 0h12.17l-13.39 19h-12.17l13.39-19zm545.32 0h12.18l-13.39 19h-12.18l13.39-19zm340.83 0h12.17l-13.39 19h-12.17l13.39-19zm-613.49 0h12.17l-13.39 19h-12.17l13.39-19zm545.33 0h12.17l-13.39 19h-12.17l13.39-19zm340.82 0h12.18l-13.39 19h-12.18l13.39-19zM1496.51 0h12.18l-13.39 19h-12.18l13.39-19zm545.33 0h12.17l-13.39 19h-12.17l13.39-19zm-272.66 0h12.17l-13.39 19h-12.17l13.39-19zm545.32 0h12.17l-13.39 19h-12.17l13.39-19zm340.83 0h12.17l-13.39 19h-12.17l13.39-19zM1632.85 0h12.17l-13.39 19h-12.17l13.39-19zm545.32 0h12.17l-13.39 19h-12.17l13.39-19zm-272.66 0h12.17l-13.39 19h-12.17l13.39-19zm545.32 0h12.18l-13.39 19h-12.18l13.39-19zm340.83 0h12.17l-13.39 19h-12.17l13.39-19zM1564.68 0h12.17l-13.39 19h-12.17l13.39-19zm545.33 0h12.17l-13.39 19h-12.17l13.39-19zm-272.67 0h12.17l-13.38 19h-12.18l13.39-19zm545.33 0h12.17l-13.39 19h-12.17l13.39-19zm340.83 0h12.17l-13.39 19h-12.17l13.39-19zM1701.01 0h12.17l-13.39 19h-12.17l13.39-19zm545.33 0h12.17l-13.39 19h-12.17l13.39-19zm340.82 0h12.18l-13.39 19h-12.17l13.38-19zm-613.49 0h12.18l-13.39 19h-12.18l13.39-19zM2519 0h12.17l-13.39 19h-12.17L2519 0zm340.83 0H2872l-13.39 19h-12.17l13.39-19z" fill="#F0F0F0"/></svg>