<svg width="120" height="120" fill="none" xmlns="http://www.w3.org/2000/svg"><path d="M115.433 66.653c-1.4.091-2.812.051-4.215-.009-.34-.015-.902-.285-.962-.534-.973-4.015-2.586-7.754-4.82-11.348 1.387-1.367 2.761-2.692 4.101-4.05 1.775-1.795 1.771-3.614-.009-5.417a658.294 658.294 0 00-5.716-5.717c-1.797-1.775-3.638-1.78-5.419-.016-1.357 1.344-2.688 2.716-4.056 4.102-3.578-2.223-7.313-3.845-11.33-4.813-.247-.06-.518-.617-.53-.951-.054-1.639-.017-3.28-.027-4.92-.016-2.493-1.35-3.845-3.835-3.862-2.5-.017-4.999.014-7.498-.01-1.275-.014-2.458.092-3.497 1.003-.66.579-1.228.251-1.555-.565-1.043-2.596-2.158-5.164-3.19-7.764-.127-.323-.061-.9.157-1.15.82-.938 1.755-1.775 2.622-2.676 1.448-1.507 1.472-3.173.03-4.654a245.736 245.736 0 00-4.888-4.886c-1.417-1.376-3.133-1.364-4.577.008a62.23 62.23 0 00-2.648 2.653c-.421.451-.734.44-1.3.191-2.56-1.128-5.166-2.15-7.732-3.265-.32-.14-.691-.586-.712-.911-.083-1.284-.002-2.577-.045-3.864C43.716 1.246 42.485.04 40.507.019a312.152 312.152 0 00-6.912 0c-1.93.022-3.134 1.182-3.223 3.122a49.897 49.897 0 00-.01 3.749c.02.688-.21.956-.898 1.215-2.545.958-5.06 2.004-7.535 3.131-.68.31-1.02.24-1.48-.258-.796-.858-1.637-1.677-2.48-2.49-1.518-1.47-3.225-1.467-4.747.024a380.94 380.94 0 00-4.64 4.639c-1.596 1.617-1.603 3.307.003 4.915 1.016 1.017 2.086 1.98 2.827 2.68C10.18 24 9.095 26.908 7.957 29.795c-.1.254-.549.51-.847.525-1.286.06-2.578-.013-3.864.045-2.087.093-3.215 1.283-3.232 3.364a402.595 402.595 0 000 6.679c.017 2.111 1.223 3.336 3.341 3.391 1.25.033 2.503-.042 3.747.042.323.022.764.398.903.72 1.115 2.566 2.135 5.174 3.268 7.732.257.579.23.885-.209 1.296a71.754 71.754 0 00-2.57 2.566c-1.474 1.532-1.475 3.227.013 4.748a375.82 375.82 0 004.637 4.642c1.634 1.613 3.286 1.631 4.9.022 1.02-1.016 1.974-2.096 2.71-2.882 3.08 1.206 5.813 2.313 8.577 3.34 1.141.424 1.26.78.661 1.821-.43.747-.82 1.632-.852 2.47-.104 2.808-.061 5.623-.032 8.435.024 2.34 1.4 3.692 3.743 3.719 1.68.02 3.36-.025 5.037.03.334.01.892.28.952.527.97 4.017 2.588 7.755 4.748 11.226-.075.127-.104.205-.157.258-1.293 1.303-2.595 2.596-3.883 3.904-1.759 1.787-1.755 3.623.02 5.419 1.786 1.805 3.588 3.593 5.383 5.387 2.231 2.231 3.859 2.236 6.083.011 1.258-1.259 2.507-2.527 3.74-3.77 3.559 2.227 7.19 3.809 11.102 4.713.622.144.8.461.786 1.064-.033 1.445.062 2.894-.027 4.334-.127 2.052.6 3.552 2.497 4.427H79.91c1.919-.839 2.675-2.312 2.562-4.382-.094-1.709-.02-3.428-.02-4.837l12.158-5.02c1.062 1.067 2.395 2.423 3.745 3.762 1.844 1.829 3.644 1.825 5.5-.015a684.657 684.657 0 005.715-5.718c1.728-1.753 1.732-3.595.009-5.334-1.346-1.359-2.725-2.683-3.866-3.802l5.049-12.18c1.37 0 3.05-.076 4.72.02 2.098.12 3.638-.589 4.496-2.568v-10.78c-.896-1.96-2.465-2.63-4.545-2.493zm-92.306-7.084c-1.857-1.13-3.05-.972-4.6.56-.915.906-1.829 1.813-2.747 2.716-.051.05-.133.07-.082.045l-4.602-4.6c.964-.891 2.02-1.807 3.006-2.792 1.417-1.413 1.562-2.71.505-4.42-1.552-2.512-2.646-5.204-3.339-8.07-.473-1.956-1.456-2.705-3.505-2.715-1.36-.007-2.72-.001-4.159-.001v-6.43c1.246 0 2.516.002 3.786-.001 2.512-.007 3.203-.705 4.002-3.038.89-2.602 1.975-5.154 3.183-7.627.973-1.99.973-3.127-.625-4.707-.94-.93-1.923-1.816-2.822-2.66l4.668-4.67c.89.925 1.842 1.946 2.83 2.932 1.424 1.422 2.691 1.582 4.412.527a27.73 27.73 0 018.183-3.365c1.764-.416 2.58-1.423 2.632-3.235.041-1.44.008-2.884.008-4.408h6.419c0 1.363-.007 2.752.001 4.14.013 2.103.75 3.038 2.82 3.543a27.479 27.479 0 017.956 3.307c1.765 1.087 3.006.914 4.508-.56.92-.903 1.83-1.815 2.748-2.718.05-.048.136-.058.122-.052l4.58 4.597c-.83.761-1.8 1.598-2.71 2.493-1.791 1.76-1.792 2.774-.666 4.974 1.13 2.208 2.18 4.497 2.904 6.861.654 2.136 1.37 3.86 4.103 3.676 0 1.527.029 2.924-.028 4.318-.01.244-.335.6-.59.689-1.911.665-3.885 1.17-5.753 1.935-1.867.765-3.634 1.773-5.596 2.751-1.337-1.345-2.777-2.763-4.167-4.227-.19-.2-.21-.638-.185-.957.576-7.515-4.5-13.755-12.009-14.487-1.773-.172-3.635.22-5.414.566-1.36.265-1.875 1.236-1.545 2.29.336 1.075 1.219 1.446 2.578 1.03 3.476-1.061 6.66-.492 9.445 1.828 2.43 2.023 3.54 4.713 3.433 7.859-.016.48-.393 1.034-.755 1.404a401.028 401.028 0 01-7.203 7.2c-.392.38-.995.752-1.511.769-7.256.23-12.193-7.253-9.188-13.869.764-1.681.633-2.639-.428-3.13-1.116-.515-2.026.047-2.791 1.729-4.197 9.216 3.215 19.674 13.295 18.789.433-.038 1.013.118 1.322.403 1.374 1.27 2.675 2.62 4.045 3.985-.153.297-.275.572-.43.827a35.625 35.625 0 00-4.22 10.23c-.16.675-.44.898-1.101.878-1.28-.037-2.562-.01-3.852-.01-.063-.311-.11-.497-.136-.685-.256-1.903-.939-2.713-2.768-3.138-2.837-.66-5.483-1.765-7.968-3.279zm93.281 19.39c-1.876 0-3.698-.003-5.521 0-2.463.006-3.481.798-4.051 3.163-.847 3.515-2.195 6.82-4.096 9.9-1.3 2.107-1.123 3.425.657 5.202 1.268 1.267 2.55 2.52 3.753 3.706l-6.238 6.227c-1.252-1.263-2.586-2.628-3.941-3.972-1.494-1.481-2.938-1.665-4.745-.551-3.249 2.002-6.714 3.449-10.442 4.289-1.898.428-2.822 1.647-2.84 3.609-.017 1.942-.004 3.884-.004 5.888h-8.777c0-1.944.01-3.775-.003-5.605-.017-2.361-.832-3.394-3.149-3.955-3.552-.862-6.89-2.22-9.998-4.155-1.973-1.228-3.38-1.039-5.027.611-1.293 1.295-2.56 2.614-3.752 3.834l-6.249-6.244c1.113-1.102 2.381-2.347 3.638-3.604 1.88-1.879 2.04-3.15.665-5.398a32.563 32.563 0 01-3.934-9.462c-.66-2.757-1.595-3.481-4.4-3.483h-5.242v-8.774c1.106 0 2.256.003 3.406 0 .937-.004 1.876.026 2.81-.03 1.65-.098 2.833-.998 3.197-2.603.89-3.921 2.424-7.556 4.525-10.977.918-1.494.677-3.008-.563-4.276-1.387-1.416-2.814-2.795-4.155-4.122l6.215-6.23c1.205 1.211 2.488 2.51 3.779 3.799 1.726 1.723 3.08 1.905 5.117.651 3.046-1.875 6.295-3.243 9.78-4.071 2.584-.615 3.333-1.611 3.34-4.286.004-1.75 0-3.499 0-5.328h8.776v5.235c.002 2.83.697 3.728 3.47 4.406a33.127 33.127 0 019.562 3.996c2.121 1.307 3.446 1.138 5.215-.62 1.22-1.21 2.434-2.425 3.654-3.635.052-.052.132-.078.074-.045l6.169 6.154-3.36 3.365c-2.224 2.224-2.355 3.27-.743 5.939 1.79 2.961 3.047 6.139 3.856 9.499.567 2.351 1.6 3.158 4.052 3.179 1.756.014 3.513.023 5.269.04.069.001.138.065.251.12v8.614z" fill="#215384"/><path d="M72.953 97.09c14.985.003 25.513-11.674 24.017-24.894-1.843-16.274-19.414-25.232-33.672-17.166-9.71 5.493-13.916 17.69-9.648 27.978.501 1.208 1.35 1.685 2.36 1.328.97-.343 1.342-1.346.934-2.528-.076-.222-.17-.437-.245-.658-2.36-6.912-1.35-13.309 3.366-18.872 4.688-5.531 10.838-7.64 17.966-6.404 7.739 1.34 13.887 7.589 15.214 15.14 1.404 7.993-2.084 15.778-8.906 19.877-6.743 4.053-15.298 3.521-21.525-1.346-.584-.456-1.1-.999-1.694-1.44-.987-.733-2.332-.37-2.708.72-.325.942.099 1.634.792 2.265 4.345 3.954 9.447 5.956 13.75 6z" fill="#DF1F19"/><path d="M78.644 74.563a4.067 4.067 0 01-4.07 4.081 4.057 4.057 0 01-4.065-4.045 4.042 4.042 0 014.047-4.09 4.05 4.05 0 014.088 4.054z" fill="#DF1F19"/></svg>