<svg width="175" height="98" fill="none" xmlns="http://www.w3.org/2000/svg"><path d="M42.547 66.48h-3.44l10.372-26.183h3.657L63.35 66.48h-4.005l-8.372-21.305-8.425 21.305z" fill="#DF1F19"/><path fill-rule="evenodd" clip-rule="evenodd" d="M120.802 0l21.469 28.996h-53.26L110.48 0h10.321z" fill="#DF1F19"/><path d="M154.198 66.48h-3.441l10.373-26.183h3.657L175 66.48h-4.005l-8.372-21.305-8.425 21.305z" fill="#DF1F19"/><path fill-rule="evenodd" clip-rule="evenodd" d="M69.867 28.914L91.373 0H38.021l21.507 28.914h10.339zM0 72.59l20.63 25.175h150.459V72.59H0z" fill="#215384"/><path d="M15.112 66.293l-9.876-26.11h3.719l8.087 21.382 7.83-21.381h3.235l-9.492 26.109h-3.503zm20.215-26.109h-3.712v26.109h3.712v-26.11zm43.531 26.109h-3.446l10.39-26.11h3.664l10.23 26.11h-4.012l-8.386-21.246-8.44 21.246zm24.603 0v-26.11h6.981c2.483 0 4.264.248 5.344.741a5.324 5.324 0 012.486 2.276c.578 1.023.866 2.3.866 3.829 0 1.787-.382 3.351-1.145 4.692-.763 1.34-1.988 2.376-3.676 3.105-1.687.73-3.547 1.094-5.578 1.094h-1.602v10.373h-3.676zm3.676-13.178h1.446c2.369 0 4.07-.559 5.102-1.676 1.031-1.117 1.547-2.5 1.547-4.146 0-.894-.164-1.65-.493-2.267-.329-.617-.856-1.117-1.582-1.5-.725-.382-2.001-.573-3.826-.573h-2.194v10.162zm16.332 13.178v-26.11h6.981c2.482 0 4.264.248 5.344.741a5.326 5.326 0 012.485 2.276c.578 1.023.866 2.3.866 3.829 0 1.787-.381 3.351-1.144 4.692-.764 1.34-1.989 2.376-3.676 3.105-1.688.73-3.547 1.094-5.579 1.094h-1.601v10.373h-3.676zm3.676-13.178h1.445c2.37 0 4.07-.559 5.102-1.676s1.548-2.5 1.548-4.146c0-.894-.165-1.65-.494-2.267-.329-.617-.856-1.117-1.581-1.5-.726-.382-2.001-.573-3.826-.573h-2.194v10.162zm20.025-12.931h-3.712v26.109h3.712v-26.11z" fill="#215384"/><path d="M21.509 90.759V78.375h1.237c.988 0 1.742.313 2.261.937.52.625.779 1.456.779 2.494 0 1.177-.399 2.06-1.196 2.652.618.471 1.143 1.723 1.575 3.757l.53 2.544h-1.553l-.445-2.137c-.318-1.496-.595-2.448-.83-2.856-.237-.407-.529-.59-.876-.547v5.54h-1.482zm1.482-7.025h.067c.83 0 1.246-.624 1.246-1.873 0-1.328-.438-1.995-1.313-2.001v3.874zm7.484 7.188c-.909 0-1.65-.566-2.222-1.697-.573-1.132-.859-2.685-.859-4.658 0-1.865.27-3.39.812-4.576.542-1.186 1.298-1.779 2.27-1.779.942 0 1.693.592 2.252 1.774.558 1.183.837 2.71.837 4.58 0 1.992-.294 3.55-.884 4.672-.589 1.123-1.324 1.684-2.206 1.684zm-.017-11.225c-.488 0-.862.432-1.123 1.296-.261.865-.392 2.056-.392 3.574 0 1.572.135 2.777.404 3.614.27.837.651 1.256 1.145 1.256.472 0 .843-.428 1.116-1.283.272-.855.408-2.05.408-3.587 0-1.56-.137-2.762-.412-3.605-.275-.844-.657-1.265-1.145-1.265zm3.545 11.062l2.172-12.456h1.54l2.156 12.456h-1.43l-.414-2.743H35.89l-.455 2.743h-1.43zm2.105-4.228h1.658l-.808-5.187h-.042l-.808 5.187zm4.832 4.228V78.375h1.634c2.633 0 3.949 2.058 3.949 6.174 0 2.058-.327 3.607-.981 4.648-.654 1.041-1.573 1.562-2.758 1.562h-1.843zm1.483-1.485h.218c.876 0 1.495-.36 1.857-1.082.362-.72.543-1.911.543-3.57 0-1.733-.171-2.96-.514-3.68-.342-.722-.96-1.082-1.852-1.082h-.252v9.414zm15.912-.724v1.675c-.556.464-1.142.697-1.76.697-.988 0-1.75-.543-2.29-1.63-.538-1.086-.808-2.637-.808-4.653 0-2.015.27-3.59.812-4.725.542-1.135 1.315-1.702 2.32-1.702.483 0 1.013.215 1.591.643v1.611c-.494-.513-.988-.77-1.482-.77-.595 0-1.025.376-1.292 1.126-.266.75-.4 1.998-.4 3.745 0 1.729.135 2.973.404 3.732.27.758.716 1.138 1.34 1.138.426 0 .948-.296 1.565-.887zm4.016 2.372c-.91 0-1.65-.566-2.223-1.697-.572-1.132-.859-2.685-.859-4.658 0-1.865.271-3.39.813-4.576.542-1.186 1.298-1.779 2.27-1.779.942 0 1.693.592 2.251 1.774.559 1.183.838 2.71.838 4.58 0 1.992-.295 3.55-.884 4.672-.59 1.123-1.325 1.684-2.206 1.684zm-.017-11.225c-.488 0-.863.432-1.124 1.296-.26.865-.391 2.056-.391 3.574 0 1.572.134 2.777.404 3.614.27.837.65 1.256 1.145 1.256.471 0 .843-.428 1.115-1.283.273-.855.409-2.05.409-3.587 0-1.56-.138-2.762-.413-3.605-.275-.844-.656-1.265-1.145-1.265zm4.706 11.062V78.375h1.204l2.552 7.657.033-.017v-7.64h1.364V90.76H70.99l-2.55-7.71-.034-.003v7.713H67.04zm8.117 0v-10.9h-1.768v-1.484h5.018v1.485h-1.768v10.899h-1.482zm4.471 0V78.375h1.237c.988 0 1.742.313 2.26.937.52.625.78 1.456.78 2.494 0 1.177-.4 2.06-1.196 2.652.617.471 1.142 1.723 1.574 3.757l.53 2.544h-1.552l-.446-2.137c-.318-1.496-.594-2.448-.83-2.856-.236-.407-.528-.59-.876-.547v5.54h-1.481zm1.481-7.025h.068c.83 0 1.246-.624 1.246-1.873 0-1.328-.438-1.995-1.314-2.001v3.874zm3.915 7.025l2.172-12.456h1.541l2.156 12.456H89.46l-.412-2.743H86.91l-.454 2.743h-1.432zm2.105-4.228h1.659l-.809-5.187h-.041l-.809 5.187zm9.295 2.019v1.675c-.556.464-1.142.697-1.76.697-.988 0-1.75-.543-2.29-1.63-.538-1.086-.808-2.637-.808-4.653 0-2.015.27-3.59.813-4.725.541-1.135 1.314-1.702 2.32-1.702.482 0 1.012.215 1.59.643v1.611c-.493-.513-.988-.77-1.481-.77-.596 0-1.026.376-1.293 1.126-.266.75-.4 1.998-.4 3.745 0 1.729.135 2.973.404 3.732.27.758.716 1.138 1.34 1.138.426 0 .948-.296 1.565-.887zm2.273 2.209v-10.9H96.93v-1.484h5.018v1.485h-1.768v10.899h-1.482zm5.902-12.384h-1.481V90.76h1.481V78.375zm1.987 12.384V78.375h1.204l2.551 7.657.034-.017v-7.64h1.364V90.76h-1.204l-2.551-7.71-.034-.003v7.713h-1.364zm12.587-6.654v6.084c-.696.488-1.375.733-2.037.733-1.168 0-2.091-.558-2.77-1.675-.679-1.117-1.019-2.67-1.019-4.662 0-1.961.328-3.514.985-4.657.657-1.144 1.535-1.716 2.635-1.716.663 0 1.398.296 2.206.888v1.7c-.825-.808-1.538-1.213-2.138-1.213-1.471 0-2.206 1.663-2.206 4.988 0 3.24.78 4.861 2.34 4.861.13 0 .303-.02.522-.063V85.59h-1.018v-1.485h2.5zm11.93 4.445v1.675c-.555.464-1.142.697-1.759.697-.988 0-1.752-.543-2.29-1.63-.539-1.086-.809-2.637-.809-4.653 0-2.015.271-3.59.813-4.725.542-1.135 1.315-1.702 2.319-1.702.483 0 1.013.215 1.592.643v1.611c-.494-.513-.988-.77-1.482-.77-.595 0-1.026.376-1.293 1.126-.266.75-.399 1.998-.399 3.745 0 1.729.134 2.973.404 3.732.269.758.715 1.138 1.338 1.138.427 0 .949-.296 1.566-.887zm4.016 2.372c-.909 0-1.65-.566-2.222-1.697-.573-1.132-.859-2.685-.859-4.658 0-1.865.271-3.39.812-4.576.542-1.186 1.298-1.779 2.269-1.779.943 0 1.694.592 2.253 1.774.558 1.183.837 2.71.837 4.58 0 1.992-.294 3.55-.884 4.672-.589 1.123-1.324 1.684-2.206 1.684zm-.016-11.225c-.489 0-.863.432-1.124 1.296-.261.865-.392 2.056-.392 3.574 0 1.572.135 2.777.404 3.614.27.837.651 1.256 1.145 1.256.472 0 .844-.428 1.116-1.283.272-.855.408-2.05.408-3.587 0-1.56-.138-2.762-.413-3.605-.274-.844-.656-1.265-1.144-1.265zm4.277 10.211c0-.278.092-.515.277-.71a.885.885 0 01.666-.295c.258 0 .478.098.661.294.182.196.273.433.273.71 0 .279-.091.517-.273.716a.866.866 0 01-.661.299.88.88 0 01-.666-.299 1.014 1.014 0 01-.277-.715zm7.493.851V78.375h1.482v10.899h2.845v1.485h-4.327zm4.967-.851c0-.278.093-.515.278-.71a.883.883 0 01.665-.295.87.87 0 01.661.294c.183.196.274.433.274.71 0 .279-.091.517-.274.716a.865.865 0 01-.661.299c-.258 0-.48-.1-.665-.299a1.015 1.015 0 01-.278-.715zm3.477.851V78.375h1.482v10.899h2.846v1.485h-4.328zm4.968-.851a.99.99 0 01.278-.71.881.881 0 01.665-.295c.258 0 .478.098.661.294.182.196.273.433.273.71 0 .279-.091.517-.273.716a.866.866 0 01-.661.299c-.259 0-.48-.1-.665-.299a1.01 1.01 0 01-.278-.715zm7.872-1.358v1.675c-.556.464-1.142.697-1.76.697-.988 0-1.751-.543-2.29-1.63-.539-1.086-.808-2.637-.808-4.653 0-2.015.271-3.59.812-4.725.542-1.135 1.315-1.702 2.32-1.702.483 0 1.013.215 1.591.643v1.611c-.494-.513-.988-.77-1.482-.77-.595 0-1.025.376-1.292 1.126-.267.75-.4 1.998-.4 3.745 0 1.729.135 2.973.404 3.732.27.758.716 1.138 1.339 1.138.426 0 .948-.296 1.566-.887z" fill="#fff"/></svg>